<svg width="401" height="429" viewBox="0 0 401 429" fill="none" xmlns="http://www.w3.org/2000/svg">
<g clip-path="url(#clip0_3032_3548)">
<path d="M327.687 428.848L327.688 133.641L301.355 133.641L301.355 428.848L327.687 428.848Z" fill="url(#paint0_linear_3032_3548)"/>
<path d="M400.836 428.848L400.836 133.641L332.567 133.641L332.567 428.848L400.836 428.848Z" fill="url(#paint1_linear_3032_3548)"/>
<path d="M301.359 428.848L301.359 133.641L221.387 133.641L221.387 428.848L301.359 428.848Z" fill="url(#paint2_linear_3032_3548)"/>
<path d="M39.9843 515.616L39.9844 0L31.2069 -1.10316e-06L31.2069 515.616L39.9843 515.616Z" fill="url(#paint3_linear_3032_3548)"/>
<path d="M221.383 428.848L221.383 133.641L91.6713 133.641L91.6713 428.848L221.383 428.848Z" fill="url(#paint4_linear_3032_3548)"/>
<path d="M353.047 428.85L353.047 52.8594L323.789 52.8594L323.789 428.85L353.047 428.85Z" fill="url(#paint5_linear_3032_3548)"/>
<path d="M94.6015 428.848L94.6016 133.641L39.9862 133.641L39.9862 428.848L94.6015 428.848Z" fill="url(#paint6_linear_3032_3548)"/>
<path d="M31.2031 428.848L31.2031 133.641L-0.00564957 133.641L-0.005667 428.848L31.2031 428.848Z" fill="url(#paint7_linear_3032_3548)"/>
</g>
<defs>
<linearGradient id="paint0_linear_3032_3548" x1="336.261" y1="134.911" x2="256.866" y2="415.155" gradientUnits="userSpaceOnUse">
<stop/>
<stop offset="0.568279" stop-color="#0047FF"/>
<stop offset="0.750574" stop-color="#8DACFE"/>
<stop offset="1" stop-color="white"/>
</linearGradient>
<linearGradient id="paint1_linear_3032_3548" x1="381.529" y1="146.559" x2="311.164" y2="490.015" gradientUnits="userSpaceOnUse">
<stop/>
<stop offset="0.537028" stop-color="#0047FF"/>
<stop offset="0.734948" stop-color="#8DACFE"/>
<stop offset="1" stop-color="white"/>
</linearGradient>
<linearGradient id="paint2_linear_3032_3548" x1="288.234" y1="126.017" x2="185.834" y2="433.911" gradientUnits="userSpaceOnUse">
<stop/>
<stop offset="0.557862" stop-color="#0047FF"/>
<stop offset="0.781824" stop-color="#8DACFE"/>
<stop offset="1" stop-color="white"/>
</linearGradient>
<linearGradient id="paint3_linear_3032_3548" x1="42.8421" y1="2.21929" x2="-202.17" y2="167.268" gradientUnits="userSpaceOnUse">
<stop/>
<stop offset="0.568279" stop-color="#0047FF"/>
<stop offset="0.750574" stop-color="#8DACFE"/>
<stop offset="1" stop-color="white"/>
</linearGradient>
<linearGradient id="paint4_linear_3032_3548" x1="103.184" y1="492.379" x2="253.047" y2="180.188" gradientUnits="userSpaceOnUse">
<stop offset="0.1" stop-color="white"/>
<stop offset="0.3" stop-color="#8DACFE"/>
<stop offset="0.500569" stop-color="#0047FF"/>
<stop offset="0.865159"/>
</linearGradient>
<linearGradient id="paint5_linear_3032_3548" x1="354.723" y1="100.06" x2="210.552" y2="497.147" gradientUnits="userSpaceOnUse">
<stop/>
<stop offset="0.573487" stop-color="#0047FF"/>
<stop offset="0.7" stop-color="#8DACFE"/>
<stop offset="1" stop-color="white"/>
</linearGradient>
<linearGradient id="paint6_linear_3032_3548" x1="99.1133" y1="157.147" x2="43.976" y2="428.623" gradientUnits="userSpaceOnUse">
<stop offset="0.0995203"/>
<stop offset="0.568279" stop-color="#0047FF"/>
<stop offset="0.7" stop-color="#8DACFE"/>
<stop offset="0.9" stop-color="white"/>
</linearGradient>
<linearGradient id="paint7_linear_3032_3548" x1="35.3135" y1="232.749" x2="-195.15" y2="525.272" gradientUnits="userSpaceOnUse">
<stop/>
<stop offset="0.516194" stop-color="#0047FF"/>
<stop offset="0.7" stop-color="#8DACFE"/>
<stop offset="0.9" stop-color="white"/>
</linearGradient>
<clipPath id="clip0_3032_3548">
<rect width="401" height="429" fill="white"/>
</clipPath>
</defs>
</svg>
