<svg width="1367" height="1053" viewBox="0 0 1367 1053" fill="none" xmlns="http://www.w3.org/2000/svg">
<path d="M1177.2 1052.17V315.539H874.592V1052.17H1177.2Z" fill="url(#paint0_linear_3461_3180)"/>
<path d="M1366.99 1051.63V315H1177.21V1051.63H1366.99Z" fill="url(#paint1_linear_3461_3180)"/>
<path d="M874.594 1052.17V315.539H757.559V1052.17H874.594Z" fill="url(#paint2_linear_3461_3180)"/>
<path d="M757.555 1052.17V315.539H464.44L464.44 1052.17H757.555Z" fill="url(#paint3_linear_3461_3180)"/>
<path d="M1227.8 1052.17V0L1177.19 0V1052.17H1227.8Z" fill="url(#paint4_linear_3461_3180)"/>
<path d="M464.969 1052.17L464.969 315.539H191.36L191.36 1052.17H464.969Z" fill="url(#paint5_linear_3461_3180)"/>
<path d="M191.367 1051.63L191.367 315H154.991L154.991 1051.63H191.367Z" fill="url(#paint6_linear_3461_3180)"/>
<path d="M154.992 1051.63L154.992 315H-0.000106812L-0.000106812 1051.63H154.992Z" fill="url(#paint7_linear_3461_3180)"/>
<path d="M198.484 1052.17L198.484 83H147.875L147.875 1052.17H198.484Z" fill="url(#paint8_linear_3461_3180)"/>
<defs>
<linearGradient id="paint0_linear_3461_3180" x1="1106.99" y1="298.629" x2="954.779" y2="1065.03" gradientUnits="userSpaceOnUse">
<stop/>
<stop offset="0.521403" stop-color="#0047FF"/>
<stop offset="0.839117" stop-color="#8DACFE"/>
<stop offset="1" stop-color="white"/>
</linearGradient>
<linearGradient id="paint1_linear_3461_3180" x1="1322.18" y1="350.405" x2="1192.42" y2="1216.41" gradientUnits="userSpaceOnUse">
<stop/>
<stop offset="0.537028" stop-color="#0047FF"/>
<stop offset="0.792241" stop-color="#8DACFE"/>
<stop offset="1" stop-color="white"/>
</linearGradient>
<linearGradient id="paint2_linear_3461_3180" x1="904.643" y1="314.482" x2="719.834" y2="1083.15" gradientUnits="userSpaceOnUse">
<stop offset="0.083895"/>
<stop offset="0.568279" stop-color="#0047FF"/>
<stop offset="0.7" stop-color="#8DACFE"/>
<stop offset="1" stop-color="white"/>
</linearGradient>
<linearGradient id="paint3_linear_3461_3180" x1="670.569" y1="393.746" x2="487.866" y2="1282.92" gradientUnits="userSpaceOnUse">
<stop/>
<stop offset="0.469319" stop-color="#0047FF"/>
<stop offset="0.7" stop-color="#8DACFE"/>
<stop offset="0.9" stop-color="white"/>
</linearGradient>
<linearGradient id="paint4_linear_3461_3180" x1="1258.37" y1="138.125" x2="922.526" y2="1279.87" gradientUnits="userSpaceOnUse">
<stop/>
<stop offset="0.510986" stop-color="#0047FF"/>
<stop offset="0.7" stop-color="#8DACFE"/>
<stop offset="1" stop-color="white"/>
</linearGradient>
<linearGradient id="paint5_linear_3461_3180" x1="401.179" y1="359.927" x2="241.784" y2="1060.99" gradientUnits="userSpaceOnUse">
<stop/>
<stop offset="0.510986" stop-color="#0047FF"/>
<stop offset="0.7" stop-color="#8DACFE"/>
<stop offset="0.9" stop-color="white"/>
</linearGradient>
<linearGradient id="paint6_linear_3461_3180" x1="5339.16" y1="467.188" x2="5680.52" y2="916.37" gradientUnits="userSpaceOnUse">
<stop/>
<stop offset="0.510986" stop-color="#0047FF"/>
<stop offset="0.7" stop-color="#8DACFE"/>
<stop offset="0.875576" stop-color="white"/>
</linearGradient>
<linearGradient id="paint7_linear_3461_3180" x1="148.139" y1="558.077" x2="-377.226" y2="1483.35" gradientUnits="userSpaceOnUse">
<stop/>
<stop offset="0.53182" stop-color="#0047FF"/>
<stop offset="0.7" stop-color="#8DACFE"/>
<stop offset="0.9" stop-color="white"/>
</linearGradient>
<linearGradient id="paint8_linear_3461_3180" x1="229.061" y1="210.229" x2="-59.371" y2="1274.76" gradientUnits="userSpaceOnUse">
<stop/>
<stop offset="0.510986" stop-color="#0047FF"/>
<stop offset="0.7" stop-color="#8DACFE"/>
<stop offset="1" stop-color="white"/>
</linearGradient>
</defs>
</svg>