<?xml version="1.0" standalone="no"?><!DOCTYPE svg PUBLIC "-//W3C//DTD SVG 1.1//EN" "http://www.w3.org/Graphics/SVG/1.1/DTD/svg11.dtd" ><svg xmlns="http://www.w3.org/2000/svg"><metadata></metadata><defs><font id="2.000;NONE;Sora-ExtraBold" horiz-adv-x="1298"><font-face font-family="Sora ExtraBold" font-weight="800" font-stretch="normal" units-per-em="1000" panose-1="0 0 0 0 0 0 0 0 0 0" ascent="970" descent="-290" x-height="0" bbox="-154 -314 1283 1204" underline-thickness="50" underline-position="-100" unicode-range="U+0000-fb02" /><missing-glyph horiz-adv-x="869" d="M358 252 l0 151 l69 0 q35 0 51 19.5 q16 19.5 16 45.5 q0 29 -16 47 q-16 18 -44 18 q-30 0 -46.5 -19.5 q-16.5 -19.5 -16.5 -46.5 l-116 0 q0 46 20.5 84.5 q20.5 38.5 61.5 62 q41 23.5 100 23.5 q54 0 92.5 -20.5 q38.5 -20.5 59.5 -56.5 q21 -36 21 -82 l0 -9 q0 -46 -21.5 -81 q-21.5 -35 -62.5 -54.5 q-41 -19.5 -99 -21.5 l43 43 l-2 -103 l-110 0 ZM355 100 l0 104 l116 0 l0 -104 l-116 0 ZM85 -54 l0 842 l699 0 l0 -842 l-699 0 ZM155 12 l559 0 l0 710 l-559 0 l0 -710 Z" /><glyph glyph-name="CR" unicode="" d="" /><glyph glyph-name="A" unicode="A" d="M8 0 l234 730 l298 0 l242 -730 l-192 0 l-188 600 l53 -20 l-132 0 l54 20 l-183 -600 l-186 0 ZM199 169 l56 152 l277 0 l56 -152 l-389 0 Z" /><glyph glyph-name="AE" unicode="Æ" d="M-8 0 l288 730 l213 0 l0 -150 l-128 0 l50 20 l-237 -600 l-186 0 ZM217 179 l56 153 l220 0 l0 -153 l-276 0 ZM472 0 l0 730 l177 0 l0 -730 l-177 0 ZM628 0 l0 152 l308 0 l0 -152 l-308 0 ZM628 295 l0 152 l288 0 l0 -152 l-288 0 ZM628 578 l0 152 l302 0 l0 -152 l-302 0 Z" /><glyph glyph-name="B" unicode="B" d="M234 -6 l0 142 l161 0 q41 0 61 21 q20 21 20 61 q0 40 -20 60.5 q-20 20.5 -61 20.5 l-161 0 l0 110 l155 0 q77 0 138 -18.5 q61 -18.5 96 -60.5 q35 -42 35 -112 l0 -14 q0 -66 -31 -113 q-31 -47 -91 -72 q-60 -25 -147 -25 l-155 0 ZM74 -6 l0 742 l180 0 l0 -742 l-180 0 ZM234 327 l0 110 l134 0 q41 0 59.5 20.5 q18.5 20.5 18.5 57.5 q0 38 -18.5 58.5 q-18.5 20.5 -59.5 20.5 l-134 0 l0 142 l126 0 q128 0 198 -53.5 q70 -53.5 70 -152.5 l0 -15 q0 -69 -35.5 -110.5 q-35.5 -41.5 -96 -59.5 q-60.5 -18 -136.5 -18 l-126 0 Z" /><glyph glyph-name="C" unicode="C" d="M415 -20 q-99 0 -170 34.5 q-71 34.5 -117 91 q-46 56.5 -68 122.5 q-22 66 -22 128 l0 22 q0 69 22.5 135.5 q22.5 66.5 69 120.5 q46.5 54 116.5 86 q70 32 164 32 q100 0 177.5 -37.5 q77.5 -37.5 124.5 -105 q47 -67.5 55 -156.5 l-186 0 q-7 38 -30 66 q-23 28 -59 43.5 q-36 15.5 -82 15.5 q-43 0 -77.5 -15 q-34.5 -15 -58 -42.5 q-23.5 -27.5 -36 -66.5 q-12.5 -39 -12.5 -88 q0 -49 12.5 -88 q12.5 -39 37 -67 q24.5 -28 59.5 -42.5 q35 -14.5 80 -14.5 q70 0 118.5 34 q48.5 34 58.5 91 l186 0 q-9 -82 -55 -150 q-46 -68 -124 -108.5 q-78 -40.5 -184 -40.5 Z" /><glyph glyph-name="D" unicode="D" d="M240 -4 l0 174 l120 0 q47 0 84.5 13.5 q37.5 13.5 63.5 39 q26 25.5 40 62 q14 36.5 14 82.5 q0 48 -14 84.5 q-14 36.5 -40 61 q-26 24.5 -63.5 37 q-37.5 12.5 -84.5 12.5 l-120 0 l0 174 l112 0 q99 0 173.5 -28 q74.5 -28 124.5 -77.5 q50 -49.5 75 -114.5 q25 -65 25 -138 l0 -22 q0 -67 -25 -131.5 q-25 -64.5 -75 -116 q-50 -51.5 -124.5 -82 q-74.5 -30.5 -173.5 -30.5 l-112 0 ZM74 -4 l0 740 l186 0 l0 -740 l-186 0 Z" /><glyph glyph-name="E" unicode="E" d="M74 0 l0 730 l180 0 l0 -730 l-180 0 ZM234 0 l0 152 l308 0 l0 -152 l-308 0 ZM234 295 l0 152 l287 0 l0 -152 l-287 0 ZM234 578 l0 152 l302 0 l0 -152 l-302 0 Z" /><glyph glyph-name="Eng" unicode="&#x14a;" d="M448 -245 l0 161 l114 0 q35 0 57 17 q22 17 22 67 l0 48 l27 -28 l-172 0 l-235 562 l-35 0 l20 18 l0 -600 l-172 0 l0 730 l305 0 l235 -562 l43 0 l-20 -18 l0 580 l174 0 l0 -725 q0 -79 -25 -135 q-25 -56 -81.5 -85.5 q-56.5 -29.5 -152.5 -29.5 l-104 0 Z" /><glyph glyph-name="F" unicode="F" d="M74 0 l0 730 l186 0 l0 -730 l-186 0 ZM240 283 l0 152 l271 0 l0 -152 l-271 0 ZM240 578 l0 152 l282 0 l0 -152 l-282 0 Z" /><glyph glyph-name="G" unicode="G" d="M427 -20 q-103 0 -177 34.5 q-74 34.5 -121 90.5 q-47 56 -69 122 q-22 66 -22 129 l0 22 q0 68 23 134.5 q23 66.5 69.5 120.5 q46.5 54 116.5 86.5 q70 32.5 164 32.5 q101 0 178.5 -37 q77.5 -37 124.5 -102.5 q47 -65.5 55 -151.5 l-186 0 q-6 33 -29 59.5 q-23 26.5 -59.5 42 q-36.5 15.5 -83.5 15.5 q-45 0 -79.5 -15.5 q-34.5 -15.5 -58 -44 q-23.5 -28.5 -35.5 -67.5 q-12 -39 -12 -85 q0 -46 13 -85.5 q13 -39.5 38 -69 q25 -29.5 63 -45.5 q38 -16 87 -16 q62 0 107 26 q45 26 63 69 l-14 -110 l0 159 l170 0 l0 -150 q-46 -79 -130.5 -121.5 q-84.5 -42.5 -195.5 -42.5 ZM407 258 l0 130 l406 0 l0 -130 l-406 0 Z" /><glyph glyph-name="uni1E9E" unicode="&#x1e9e;" d="M329 -21 q-100 0 -168.5 32 q-68.5 32 -103.5 88 q-35 56 -35 128 l180 0 q0 -26 14 -47.5 q14 -21.5 42 -34 q28 -12.5 71 -12.5 q38 0 64.5 10.5 q26.5 10.5 40.5 29 q14 18.5 14 42.5 q0 30 -25 48.5 q-25 18.5 -89 23.5 l-46 4 q-70 6 -125 34 q-55 28 -86.5 78 q-31.5 50 -31.5 120 q0 72 33 123 q33 51 93 78 q60 27 141 27 q88 0 150 -30 q62 -30 94.5 -84 q32.5 -54 32.5 -126 l-180 0 q0 25 -11.5 44 q-11.5 19 -33 30.5 q-21.5 11.5 -52.5 11.5 q-28 0 -47.5 -9.5 q-19.5 -9.5 -29.5 -26.5 q-10 -17 -10 -38 q0 -28 18 -47.5 q18 -19.5 63 -23.5 l46 -4 q81 -7 143.5 -35.5 q62.5 -28.5 97.5 -78 q35 -49.5 35 -119.5 q0 -71 -36 -124.5 q-36 -53.5 -103 -82.5 q-67 -29 -160 -29 ZM973 -21 q-100 0 -168.5 32 q-68.5 32 -103.5 88 q-35 56 -35 128 l180 0 q0 -26 14 -47.5 q14 -21.5 42 -34 q28 -12.5 71 -12.5 q38 0 64.5 10.5 q26.5 10.5 40.5 29 q14 18.5 14 42.5 q0 31 -26 49 q-26 18 -88 23 l-46 4 q-70 6 -125 34 q-55 28 -86.5 78 q-31.5 50 -31.5 120 q0 72 33 123 q33 51 93 78 q60 27 141 27 q88 0 150 -30 q62 -30 94.5 -84 q32.5 -54 32.5 -126 l-180 0 q0 25 -11.5 44 q-11.5 19 -33 30.5 q-21.5 11.5 -52.5 11.5 q-28 0 -47.5 -9.5 q-19.5 -9.5 -29.5 -26.5 q-10 -17 -10 -38 q0 -28 18 -47.5 q18 -19.5 63 -23.5 l46 -4 q81 -7 143 -35.5 q62 -28.5 97.5 -78 q35.5 -49.5 35.5 -119.5 q0 -71 -36 -124.5 q-36 -53.5 -103 -82.5 q-67 -29 -160 -29 Z" /><glyph glyph-name="H" unicode="H" d="M538 0 l0 730 l186 0 l0 -730 l-186 0 ZM74 0 l0 730 l186 0 l0 -730 l-186 0 ZM228 287 l0 162 l342 0 l0 -162 l-342 0 Z" /><glyph glyph-name="Hbar" unicode="&#x126;" d="M25 533 l0 124 l748 0 l0 -124 l-748 0 ZM538 0 l0 730 l186 0 l0 -730 l-186 0 ZM74 0 l0 730 l186 0 l0 -730 l-186 0 ZM228 287 l0 162 l342 0 l0 -162 l-342 0 Z" /><glyph glyph-name="I" unicode="I" d="M76 0 l0 730 l186 0 l0 -730 l-186 0 Z" /><glyph glyph-name="J" unicode="J" d="M307 -20 q-87 0 -148.5 32 q-61.5 32 -94 92.5 q-32.5 60.5 -32.5 146.5 l0 40 l184 0 l0 -46 q0 -40 23.5 -65.5 q23.5 -25.5 66.5 -25.5 q43 0 66.5 25.5 q23.5 25.5 23.5 65.5 l0 343 l186 0 l0 -337 q0 -86 -32.5 -146.5 q-32.5 -60.5 -93.5 -92.5 q-61 -32 -149 -32 ZM114 568 l0 162 l468 0 l0 -162 l-468 0 Z" /><glyph glyph-name="K" unicode="K" d="M560 0 l-237 341 l-99 0 l295 389 l214 0 l-264 -348 l0 71 l315 -453 l-224 0 ZM74 0 l0 730 l186 0 l0 -730 l-186 0 Z" /><glyph glyph-name="L" unicode="L" d="M74 0 l0 730 l186 0 l0 -730 l-186 0 ZM240 0 l0 162 l296 0 l0 -162 l-296 0 Z" /><glyph glyph-name="Lslash" unicode="&#x141;" d="M167 277 l0 146 l230 133 l0 -146 l-230 -133 ZM18 195 l0 146 l119 69 l0 -146 l-119 -69 ZM74 0 l0 730 l186 0 l0 -730 l-186 0 ZM240 0 l0 162 l296 0 l0 -162 l-296 0 Z" /><glyph glyph-name="M" unicode="M" d="M74 0 l0 730 l258 0 l150 -385 l20 0 l149 385 l263 0 l0 -730 l-184 0 l0 623 l29 -2 l-188 -474 l-169 0 l-189 474 l31 2 l0 -623 l-170 0 Z" /><glyph glyph-name="N" unicode="N" d="M74 0 l0 730 l305 0 l243 -582 l35 0 l-20 -18 l0 600 l174 0 l0 -730 l-307 0 l-243 582 l-35 0 l20 18 l0 -600 l-172 0 Z" /><glyph glyph-name="NULL" unicode="" d="" /><glyph glyph-name="O" unicode="O" d="M432 -20 q-100 0 -174 34.5 q-74 34.5 -123 91 q-49 56.5 -73 122.5 q-24 66 -24 128 l0 22 q0 69 25 135.5 q25 66.5 75 120.5 q50 54 123.5 86 q73.5 32 170.5 32 q96 0 169.5 -32 q73.5 -32 123.5 -86 q50 -54 75.5 -120.5 q25.5 -66.5 25.5 -135.5 l0 -22 q0 -62 -24.5 -128 q-24.5 -66 -73.5 -122.5 q-49 -56.5 -123 -91 q-74 -34.5 -173 -34.5 ZM432 154 q48 0 86 16 q38 16 65 45 q27 29 41 67.5 q14 38.5 14 83.5 q0 48 -14.5 87 q-14.5 39 -41.5 67 q-27 28 -65 43 q-38 15 -85 15 q-48 0 -86 -15 q-38 -15 -65 -43 q-27 -28 -41 -67 q-14 -39 -14 -87 q0 -45 14 -83.5 q14 -38.5 41 -67.5 q27 -29 65 -45 q38 -16 86 -16 Z" /><glyph glyph-name="OE" unicode="&#x152;" d="M432 -22 q-81 0 -144.5 23 q-63.5 23 -110.5 62 q-47 39 -78 88 q-31 49 -46 101.5 q-15 52.5 -15 102.5 l0 22 q0 69 24.5 135.5 q24.5 66.5 74 120.5 q49.5 54 123.5 86.5 q74 32.5 172 32.5 q38 0 72.5 -6 q34.5 -6 62.5 -16 l136 0 l0 -730 l-136 0 q-26 -10 -59 -16 q-33 -6 -76 -6 ZM432 152 q29 0 56 6.5 q27 6.5 46 16.5 l-11 -23 l0 423 l11 -19 q-20 10 -46 16 q-26 6 -56 6 q-63 0 -109.5 -27 q-46.5 -27 -71.5 -74.5 q-25 -47.5 -25 -111.5 q0 -45 14 -84 q14 -39 41 -68 q27 -29 65 -45 q38 -16 86 -16 ZM683 0 l0 152 l308 0 l0 -152 l-308 0 ZM683 295 l0 152 l288 0 l0 -152 l-288 0 ZM683 578 l0 152 l302 0 l0 -152 l-302 0 Z" /><glyph glyph-name="Oslash" unicode="Ø" d="M78 -70 l571 860 l136 0 l-571 -860 l-136 0 ZM432 -20 q-100 0 -174 34.5 q-74 34.5 -123 91 q-49 56.5 -73 122.5 q-24 66 -24 128 l0 22 q0 69 25 135.5 q25 66.5 75 120.5 q50 54 123.5 86 q73.5 32 170.5 32 q96 0 169.5 -32 q73.5 -32 123.5 -86 q50 -54 75.5 -120.5 q25.5 -66.5 25.5 -135.5 l0 -22 q0 -62 -24.5 -128 q-24.5 -66 -73.5 -122.5 q-49 -56.5 -123 -91 q-74 -34.5 -173 -34.5 ZM432 154 q48 0 86 16 q38 16 65 45 q27 29 41 67.5 q14 38.5 14 83.5 q0 48 -14.5 87 q-14.5 39 -41.5 67 q-27 28 -65 43 q-38 15 -85 15 q-48 0 -86 -15 q-38 -15 -65 -43 q-27 -28 -41 -67 q-14 -39 -14 -87 q0 -45 14 -83.5 q14 -38.5 41 -67.5 q27 -29 65 -45 q38 -16 86 -16 Z" /><glyph glyph-name="P" unicode="P" d="M240 194 l0 160 l120 0 q34 0 59 13.5 q25 13.5 39 38.5 q14 25 14 59 q0 35 -14 60 q-14 25 -39 38 q-25 13 -59 13 l-120 0 l0 160 l115 0 q94 0 162.5 -31.5 q68.5 -31.5 105.5 -90.5 q37 -59 37 -141 l0 -16 q0 -81 -37 -140 q-37 -59 -105.5 -91 q-68.5 -32 -162.5 -32 l-115 0 ZM74 0 l0 736 l186 0 l0 -736 l-186 0 Z" /><glyph glyph-name="Q" unicode="Q" d="M577 -220 q-72 0 -125 16 q-53 16 -82.5 59 q-29.5 43 -29.5 125 l0 120 l174 0 l0 -124 q0 -28 15.5 -42 q15.5 -14 43.5 -14 l104 0 l0 -140 l-100 0 ZM432 -20 q-100 0 -174 34.5 q-74 34.5 -123 91 q-49 56.5 -73 122.5 q-24 66 -24 128 l0 22 q0 69 25 135.5 q25 66.5 75 120.5 q50 54 123.5 86 q73.5 32 170.5 32 q96 0 169.5 -32 q73.5 -32 123.5 -86 q50 -54 75.5 -120.5 q25.5 -66.5 25.5 -135.5 l0 -22 q0 -62 -24.5 -128 q-24.5 -66 -73.5 -122.5 q-49 -56.5 -123 -91 q-74 -34.5 -173 -34.5 ZM432 154 q48 0 86 16 q38 16 65 45 q27 29 41 67.5 q14 38.5 14 83.5 q0 48 -14.5 87 q-14.5 39 -41.5 67 q-27 28 -65 43 q-38 15 -85 15 q-48 0 -86 -15 q-38 -15 -65 -43 q-27 -28 -41 -67 q-14 -39 -14 -87 q0 -45 14 -83.5 q14 -38.5 41 -67.5 q27 -29 65 -45 q38 -16 86 -16 Z" /><glyph glyph-name="R" unicode="R" d="M74 0 l0 736 l186 0 l0 -736 l-186 0 ZM514 0 l-205 310 l202 0 l217 -310 l-214 0 ZM213 224 l0 143 l175 0 q33 0 57 13 q24 13 37.5 37 q13.5 24 13.5 56 q0 33 -13.5 57 q-13.5 24 -37.5 37 q-24 13 -57 13 l-175 0 l0 156 l164 0 q95 0 164 -28.5 q69 -28.5 106 -84 q37 -55.5 37 -137.5 l0 -16 q0 -82 -37.5 -136.5 q-37.5 -54.5 -106 -82 q-68.5 -27.5 -163.5 -27.5 l-164 0 Z" /><glyph glyph-name="S" unicode="S" d="M334 -20 q-102 0 -171.5 32 q-69.5 32 -105 87.5 q-35.5 55.5 -35.5 127.5 l180 0 q0 -26 14.5 -47.5 q14.5 -21.5 43.5 -33.5 q29 -12 74 -12 q39 0 66.5 10 q27.5 10 42 28 q14.5 18 14.5 43 q0 32 -27 49.5 q-27 17.5 -91 22.5 l-47 4 q-113 10 -180 71 q-67 61 -67 162 q0 72 33.5 123 q33.5 51 94.5 78 q61 27 144 27 q90 0 152.5 -30 q62.5 -30 95.5 -84.5 q33 -54.5 33 -126.5 l-180 0 q0 24 -12 44 q-12 20 -34.5 31.5 q-22.5 11.5 -54.5 11.5 q-30 0 -50.5 -9.5 q-20.5 -9.5 -31 -26.5 q-10.5 -17 -10.5 -38 q0 -28 19 -48 q19 -20 66 -24 l47 -4 q82 -7 145 -35.5 q63 -28.5 99 -77.5 q36 -49 36 -120 q0 -71 -36.5 -124 q-36.5 -53 -104 -82 q-67.5 -29 -162.5 -29 Z" /><glyph glyph-name="T" unicode="T" d="M220 0 l0 588 l186 0 l0 -588 l-186 0 ZM20 568 l0 162 l586 0 l0 -162 l-586 0 Z" /><glyph glyph-name="Tbar" unicode="&#x166;" d="M80 286 l0 124 l466 0 l0 -124 l-466 0 ZM220 0 l0 588 l186 0 l0 -588 l-186 0 ZM20 568 l0 162 l586 0 l0 -162 l-586 0 Z" /><glyph glyph-name="Thorn" unicode="Þ" d="M240 104 l0 161 l112 0 q33 0 56.5 12.5 q23.5 12.5 36.5 36.5 q13 24 13 57 q0 34 -13 57.5 q-13 23.5 -36.5 36.5 q-23.5 13 -56.5 13 l-112 0 l0 160 l107 0 q93 0 160 -31 q67 -31 103 -89 q36 -58 36 -139 l0 -16 q0 -80 -36 -138.5 q-36 -58.5 -103 -89.5 q-67 -31 -160 -31 l-107 0 ZM74 0 l0 730 l186 0 l0 -730 l-186 0 Z" /><glyph glyph-name="U" unicode="U" d="M386 -20 q-105 0 -177.5 39 q-72.5 39 -110.5 110.5 q-38 71.5 -38 169.5 l0 431 l186 0 l0 -435 q0 -43 16.5 -75 q16.5 -32 47.5 -49 q31 -17 76 -17 q45 0 76 17 q31 17 47 48.5 q16 31.5 16 75.5 l0 435 l186 0 l0 -431 q0 -98 -37.5 -169.5 q-37.5 -71.5 -110 -110.5 q-72.5 -39 -177.5 -39 Z" /><glyph glyph-name="V" unicode="V" d="M232 0 l-212 730 l192 0 l159 -599 l-35 17 l96 0 l-36 -17 l148 599 l186 0 l-198 -730 l-300 0 Z" /><glyph glyph-name="W" unicode="W" d="M192 0 l-174 730 l192 0 l131 -605 l-31 23 l81 0 l-35 -23 l99 579 l151 0 l-137 -704 l-277 0 ZM626 0 l-147 704 l159 0 l116 -579 l-35 23 l76 0 l-26 -23 l113 605 l180 0 l-153 -730 l-283 0 Z" /><glyph glyph-name="X" unicode="X" d="M6 0 l242 388 l2 -16 l-224 358 l204 0 l125 -211 l26 0 l121 211 l198 0 l-223 -360 l-3 16 l250 -386 l-204 0 l-149 241 l-26 0 l-141 -241 l-198 0 Z" /><glyph glyph-name="Y" unicode="Y" d="M211 274 l-207 456 l190 0 l139 -325 l-26 9 l72 0 l-28 -9 l123 325 l180 0 l-189 -456 l-254 0 ZM247 0 l0 298 l182 0 l0 -298 l-182 0 Z" /><glyph glyph-name="Z" unicode="Z" d="M30 0 l0 124 l356 448 l5 -18 l-34 44 l23 -20 l-336 0 l0 152 l573 0 l0 -124 l-357 -448 l-5 19 l34 -45 l-23 20 l347 0 l0 -152 l-583 0 Z" /><glyph glyph-name="a" unicode="a" d="M400 0 l0 162 l-30 0 l0 173 q0 38 -17.5 56.5 q-17.5 18.5 -57.5 18.5 q-19 0 -56 -1 q-37 -1 -78 -3 q-41 -2 -75 -4 l0 152 q24 2 57 4 q33 2 68.5 3 q35.5 1 65.5 1 q85 0 144.5 -25 q59.5 -25 91 -75 q31.5 -50 31.5 -127 l0 -335 l-144 0 ZM225 -14 q-58 0 -103 21 q-45 21 -70.5 60.5 q-25.5 39.5 -25.5 94.5 q0 62 33 100.5 q33 38.5 91 56.5 q58 18 133 18 l107 0 l0 -94 l-107 0 q-37 0 -57 -18.5 q-20 -18.5 -20 -49.5 q0 -30 20 -48.5 q20 -18.5 57 -18.5 q24 0 42.5 8.5 q18.5 8.5 30.5 29.5 q12 21 14 58 l42 -40 q-5 -57 -27.5 -96.5 q-22.5 -39.5 -62 -60.5 q-39.5 -21 -97.5 -21 Z" /><glyph glyph-name="acutecomb" unicode="&#x301;" d="M0 612 l90 212 l186 0 l-116 -212 l-160 0 Z" /><glyph glyph-name="ae" unicode="æ" d="M657 -20 q-55 0 -97.5 15.5 q-42.5 15.5 -73.5 41.5 q-31 26 -51 59 q-20 33 -31 69 l52 0 q-5 -57 -35.5 -97.5 q-30.5 -40.5 -79.5 -61.5 q-49 -21 -109 -21 q-61 0 -107.5 21 q-46.5 21 -72.5 60.5 q-26 39.5 -26 94.5 q0 62 33 100.5 q33 38.5 91 56.5 q58 18 133 18 l107 0 l0 -94 l-107 0 q-37 0 -57 -18.5 q-20 -18.5 -20 -49.5 q0 -30 20 -48.5 q20 -18.5 57 -18.5 q24 0 43.5 9.5 q19.5 9.5 31.5 31.5 q12 22 12 60 l0 126 q0 38 -17.5 56.5 q-17.5 18.5 -57.5 18.5 q-19 0 -56 -1 q-37 -1 -78 -3 q-41 -2 -75 -4 l0 152 q24 2 57 4 q33 2 67.5 3 q34.5 1 64.5 1 q83 0 135.5 -26 q52.5 -26 78 -74.5 q25.5 -48.5 27.5 -118.5 l-112 0 q11 60 40 112 q29 52 80.5 84 q51.5 32 128.5 32 q88 0 149 -40.5 q61 -40.5 93.5 -106 q32.5 -65.5 32.5 -141.5 l0 -55 l-414 0 l0 94 l309 0 l-63 -41 q0 47 -12.5 79 q-12.5 32 -37 48.5 q-24.5 16.5 -61.5 16.5 q-36 0 -62.5 -17 q-26.5 -17 -40.5 -50.5 q-14 -33.5 -14 -83.5 q0 -45 12.5 -78 q12.5 -33 40 -51 q27.5 -18 70.5 -18 q37 0 62 13 q25 13 35 35 l166 0 q-12 -56 -47.5 -100 q-35.5 -44 -90 -69 q-54.5 -25 -123.5 -25 Z" /><glyph glyph-name="ampersand" unicode="&amp;" d="M530 0 l-271 294 q-46 50 -73.5 88 q-27.5 38 -40 74 q-12.5 36 -12.5 79 q0 60 27.5 106 q27.5 46 85.5 72.5 q58 26.5 150 26.5 q38 0 75.5 -3.5 q37.5 -3.5 65.5 -8.5 l0 -148 q-20 3 -48 6 q-28 3 -55.5 4.5 q-27.5 1.5 -45.5 1.5 q-55 0 -72 -18 q-17 -18 -17 -49 q0 -31 15.5 -61 q15.5 -30 50.5 -69 l364 -395 l-199 0 ZM294 -22 q-82 0 -143.5 32.5 q-61.5 32.5 -96 88.5 q-34.5 56 -34.5 125 l0 13 q0 73 41 130.5 q41 57.5 108 85.5 l70 -90 q-21 -16 -37 -46.5 q-16 -30.5 -16 -73.5 q0 -32 12 -59 q12 -27 38.5 -42.5 q26.5 -15.5 69.5 -15.5 q54 0 102 28.5 q48 28.5 78 92 q30 63.5 30 168.5 l158 0 q0 -108 -31.5 -189.5 q-31.5 -81.5 -85.5 -136.5 q-54 -55 -122 -83 q-68 -28 -141 -28 ZM429 392 l0 130 l292 0 l0 -130 l-292 0 Z" /><glyph glyph-name="asciicircum" unicode="^" d="M44 311 l161 432 l222 0 l161 -432 l-154 0 l-103 302 l-25 0 l-104 -302 l-158 0 Z" /><glyph glyph-name="asciitilde" unicode="~" d="M382 208 q-36 0 -65.5 13 q-29.5 13 -54.5 29.5 q-25 16.5 -46.5 29.5 q-21.5 13 -41.5 13 q-19 0 -33 -15.5 q-14 -15.5 -19 -49.5 l-102 -1 q2 74 25.5 119.5 q23.5 45.5 59 66.5 q35.5 21 72.5 21 q36 0 65.5 -13 q29.5 -13 54.5 -29.5 q25 -16.5 46.5 -29.5 q21.5 -13 41.5 -13 q20 0 33.5 15.5 q13.5 15.5 18.5 49.5 l102 0 q-1 -75 -25 -120.5 q-24 -45.5 -59 -65.5 q-35 -20 -73 -20 Z" /><glyph glyph-name="asterisk" unicode="*" d="M471 359 l-151 112 l0 120 l151 112 l65 -116 l-119 -47 l0 -18 l119 -47 l-65 -116 ZM332 785 l-21 -187 l-104 -60 l-172 75 l67 114 l101 -79 l15 9 l-19 126 l133 2 ZM35 449 l172 75 l104 -60 l21 -187 l-132 2 l18 126 l-15 9 l-100 -79 l-68 114 Z" /><glyph glyph-name="at" unicode="@" d="M567 -247 q-112 0 -207.5 34.5 q-95.5 34.5 -166.5 99 q-71 64.5 -110 157 q-39 92.5 -39 207.5 q0 114 36.5 206 q36.5 92 106 157.5 q69.5 65.5 167 100.5 q97.5 35 218.5 35 q104 0 195 -29.5 q91 -29.5 160.5 -87.5 q69.5 -58 109 -142.5 q39.5 -84.5 39.5 -195.5 q0 -87 -26.5 -154.5 q-26.5 -67.5 -78 -106 q-51.5 -38.5 -127.5 -38.5 q-52 0 -91 21 q-39 21 -60 60 q-21 39 -21 94 l0 52 l34 0 q-3 -71 -27.5 -120.5 q-24.5 -49.5 -67.5 -75 q-43 -25.5 -101 -25.5 q-63 0 -113.5 29.5 q-50.5 29.5 -80 84 q-29.5 54.5 -29.5 127.5 l0 16 q0 74 28 126.5 q28 52.5 76.5 81 q48.5 28.5 110.5 28.5 q60 0 104 -26.5 q44 -26.5 69.5 -74 q25.5 -47.5 28.5 -112.5 l-16 0 l0 193 l126 0 l0 -292 q0 -18 4.5 -30.5 q4.5 -12.5 14 -19.5 q9.5 -7 24.5 -7 q28 0 45.5 20 q17.5 20 26.5 57 q9 37 9 88 q0 87 -29 149 q-29 62 -80 102 q-51 40 -117 59 q-66 19 -139 19 q-92 0 -164.5 -25 q-72.5 -25 -123 -72.5 q-50.5 -47.5 -77 -116 q-26.5 -68.5 -26.5 -155.5 q0 -115 49.5 -197 q49.5 -82 136.5 -125.5 q87 -43.5 199 -43.5 q33 0 71 4 q38 4 69 10 l0 -133 q-30 -6 -68.5 -9.5 q-38.5 -3.5 -71.5 -3.5 ZM543 132 q30 0 53 13 q23 13 36.5 38.5 q13.5 25.5 13.5 60.5 l0 18 q0 32 -13.5 55 q-13.5 23 -36.5 35.5 q-23 12.5 -53 12.5 q-32 0 -55.5 -14.5 q-23.5 -14.5 -36 -40 q-12.5 -25.5 -12.5 -59.5 q0 -33 12 -60 q12 -27 35 -43 q23 -16 57 -16 Z" /><glyph glyph-name="b" unicode="b" d="M422 -18 q-68 0 -118.5 28 q-50.5 28 -79 82 q-28.5 54 -30.5 132 l16 0 l0 -224 l-144 0 l0 730 l182 0 l0 -376 l-40 -40 q3 81 31 138 q28 57 77.5 86.5 q49.5 29.5 114.5 29.5 q56 0 101 -20.5 q45 -20.5 76.5 -58 q31.5 -37.5 48.5 -88.5 q17 -51 17 -112 l0 -24 q0 -61 -17 -112.5 q-17 -51.5 -50 -90 q-33 -38.5 -79.5 -59.5 q-46.5 -21 -105.5 -21 ZM370 132 q36 0 63.5 18.5 q27.5 18.5 43 51.5 q15.5 33 15.5 75 q0 43 -15.5 74.5 q-15.5 31.5 -42.5 49 q-27 17.5 -64 17.5 q-33 0 -61.5 -15 q-28.5 -15 -46.5 -44 q-18 -29 -18 -70 l0 -34 q0 -39 19 -66.5 q19 -27.5 48 -42 q29 -14.5 59 -14.5 Z" /><glyph glyph-name="backslash" unicode="\" d="M230 -60 l-218 840 l186 0 l218 -840 l-186 0 Z" /><glyph glyph-name="bar" unicode="|" d="M112 -200 l0 930 l152 1 l0 -930 l-152 -1 Z" /><glyph glyph-name="braceleft" unicode="{" d="M340 -182 q-103 0 -163.5 46 q-60.5 46 -60.5 152 l0 143 q0 31 -19 45.5 q-19 14.5 -59 14.5 l0 160 q40 0 59 14.5 q19 14.5 19 45.5 l0 139 q0 107 60.5 152.5 q60.5 45.5 163.5 45.5 l26 0 l0 -152 l-26 0 q-29 0 -40.5 -12.5 q-11.5 -12.5 -11.5 -35.5 l0 -148 q0 -61 -26.5 -88.5 q-26.5 -27.5 -79.5 -32.5 l0 -16 q53 -4 79.5 -31.5 q26.5 -27.5 26.5 -89.5 l0 -152 q0 -23 11.5 -35.5 q11.5 -12.5 40.5 -12.5 l26 0 l0 -152 l-26 0 Z" /><glyph glyph-name="bracketleft" unicode="[" d="M78 -182 l0 958 l174 0 l0 -958 l-174 0 ZM204 -182 l0 152 l156 0 l0 -152 l-156 0 ZM204 624 l0 152 l156 0 l0 -152 l-156 0 Z" /><glyph glyph-name="uni0306" unicode="&#x306;" d="M194 606 q-90 0 -139.5 53 q-49.5 53 -52.5 165 l134 0 q2 -52 16 -71 q14 -19 42 -19 q28 0 43.5 19 q15.5 19 16.5 71 l130 0 q-3 -112 -51.5 -165 q-48.5 -53 -138.5 -53 Z" /><glyph glyph-name="brokenbar" unicode="¦" d="M112 319 l0 411 l152 0 l0 -411 l-152 0 ZM112 -200 l0 411 l152 0 l0 -411 l-152 0 Z" /><glyph glyph-name="bullet" unicode="&#x2022;" d="M78 144 l0 290 l280 0 l0 -290 l-280 0 Z" /><glyph glyph-name="c" unicode="c" d="M318 -20 q-72 0 -125 23.5 q-53 23.5 -88.5 63.5 q-35.5 40 -53 91 q-17.5 51 -17.5 106 l0 20 q0 58 18.5 110 q18.5 52 54.5 92 q36 40 89 63 q53 23 122 23 q76 0 134 -30 q58 -30 92.5 -82.5 q34.5 -52.5 38.5 -120.5 l-178 0 q-3 33 -24.5 56 q-21.5 23 -62.5 23 q-35 0 -57.5 -18 q-22.5 -18 -33.5 -50 q-11 -32 -11 -76 q0 -41 9.5 -73 q9.5 -32 32 -49.5 q22.5 -17.5 60.5 -17.5 q28 0 47 10 q19 10 30 28.5 q11 18.5 14 43.5 l178 0 q-4 -70 -39.5 -123 q-35.5 -53 -94.5 -83 q-59 -30 -135 -30 Z" /><glyph glyph-name="uni030C" unicode="&#x30c;" d="M101 612 l-101 212 l154 0 l56 -128 l14 0 l50 128 l150 0 l-95 -212 l-228 0 Z" /><glyph glyph-name="uni0327" unicode="&#x327;" d="M119 -280 q-25 0 -48.5 4.5 q-23.5 4.5 -36.5 8.5 l0 110 q14 -5 34 -9 q20 -4 42 -4 q27 0 40.5 6.5 q13.5 6.5 13.5 18.5 q0 9 -8.5 14 q-8.5 5 -29.5 5 l-57 0 l0 140 l110 0 l0 -101 l-62 45 l13 0 q72 0 112 -27 q40 -27 40 -81 q0 -55 -41.5 -92.5 q-41.5 -37.5 -121.5 -37.5 Z" /><glyph glyph-name="cent" unicode="¢" d="M315 89 q-67 0 -119 20.5 q-52 20.5 -88 56.5 q-36 36 -55 84 q-19 48 -19 102 l0 20 q0 57 19 106 q19 49 55.5 85 q36.5 36 88.5 56 q52 20 118 20 q77 0 134.5 -27.5 q57.5 -27.5 91 -78 q33.5 -50.5 37.5 -119.5 l-172 0 q-4 32 -28 53.5 q-24 21.5 -64 21.5 q-31 0 -54.5 -15 q-23.5 -15 -36.5 -43.5 q-13 -28.5 -13 -68.5 q0 -38 11.5 -65.5 q11.5 -27.5 35 -42.5 q23.5 -15 57.5 -15 q41 0 66 21.5 q25 21.5 30 58.5 l172 0 q-4 -69 -37.5 -121 q-33.5 -52 -92 -80.5 q-58.5 -28.5 -137.5 -28.5 ZM245 0 l0 146 l146 0 l0 -146 l-146 0 ZM245 574 l0 146 l146 0 l0 -146 l-146 0 Z" /><glyph glyph-name="uni0302" unicode="&#x302;" d="M0 612 l101 212 l224 0 l103 -212 l-154 0 l-56 128 l-14 0 l-54 -128 l-150 0 Z" /><glyph glyph-name="comma" unicode="," d="M139 -176 l-139 54 l110 322 l154 -56 l-125 -320 Z" /><glyph glyph-name="uni0312" unicode="&#x312;" d="M101 594 q-48 0 -74.5 32.5 q-26.5 32.5 -26.5 88.5 l0 6 q0 70 41.5 106.5 q41.5 36.5 109.5 36.5 l28 0 l0 -88 l-30 0 q-31 0 -43 -14 q-12 -14 -12 -34 l0 -27 l-27 3 q6 14 19.5 23.5 q13.5 9.5 35.5 9.5 q29 0 47 -18 q18 -18 18 -50 q0 -40 -26 -57.5 q-26 -17.5 -60 -17.5 Z" /><glyph glyph-name="copyright" unicode="©" d="M356 106 q-83 0 -143 28 q-60 28 -98 74 q-38 46 -56.5 100.5 q-18.5 54.5 -18.5 106.5 l0 18 q0 54 19 108.5 q19 54.5 57.5 99.5 q38.5 45 98 72 q59.5 27 140.5 27 q81 0 140.5 -27 q59.5 -27 98 -72 q38.5 -45 57.5 -99.5 q19 -54.5 19 -108.5 l0 -18 q0 -52 -18.5 -106.5 q-18.5 -54.5 -56.5 -100.5 q-38 -46 -97.5 -74 q-59.5 -28 -141.5 -28 ZM355 160 q79 0 136 36.5 q57 36.5 88 96.5 q31 60 31 130 q0 73 -31 132.5 q-31 59.5 -88 95 q-57 35.5 -136 35.5 q-79 0 -136 -35.5 q-57 -35.5 -88 -95 q-31 -59.5 -31 -132.5 q0 -70 31 -130 q31 -60 88 -96.5 q57 -36.5 136 -36.5 ZM356 233 q-61 0 -102.5 24.5 q-41.5 24.5 -62.5 66 q-21 41.5 -21 90.5 l0 13 q0 52 21.5 93.5 q21.5 41.5 63.5 66 q42 24.5 101 24.5 q78 0 127 -42 q49 -42 53 -110 l-122 0 q-2 21 -15 35.5 q-13 14.5 -39 14.5 q-34 0 -49 -22.5 q-15 -22.5 -15 -65.5 q0 -27 6 -46.5 q6 -19.5 20 -29.5 q14 -10 38 -10 q26 0 39.5 14.5 q13.5 14.5 16.5 39.5 l123 0 q-4 -70 -54.5 -113 q-50.5 -43 -128.5 -43 Z" /><glyph glyph-name="currency" unicode="¤" d="M344 131 q-74 0 -130.5 32 q-56.5 32 -88 83.5 q-31.5 51.5 -31.5 109.5 l0 16 q0 59 31.5 110.5 q31.5 51.5 88 83 q56.5 31.5 130.5 31.5 q74 0 130.5 -31.5 q56.5 -31.5 88 -83 q31.5 -51.5 31.5 -110.5 l0 -16 q0 -58 -31.5 -109.5 q-31.5 -51.5 -88 -83.5 q-56.5 -32 -130.5 -32 ZM130 56 l-102 104 l113 113 l102 -104 l-113 -113 ZM141 453 l-113 113 l102 104 l113 -113 l-102 -104 ZM344 267 q32 0 53 12 q21 12 32 34 q11 22 11 51 q0 31 -11.5 52.5 q-11.5 21.5 -32.5 33 q-21 11.5 -52 11.5 q-30 0 -51.5 -11.5 q-21.5 -11.5 -33 -33 q-11.5 -21.5 -11.5 -52.5 q0 -29 11 -51 q11 -22 32.5 -34 q21.5 -12 52.5 -12 ZM558 56 l-113 113 l102 104 l113 -113 l-102 -104 ZM547 453 l-102 104 l113 113 l102 -104 l-113 -113 Z" /><glyph glyph-name="d" unicode="d" d="M293 -18 q-58 0 -105.5 21 q-47.5 21 -82 58.5 q-34.5 37.5 -53 88.5 q-18.5 51 -18.5 111 l0 24 q0 60 17.5 111.5 q17.5 51.5 50.5 90 q33 38.5 80 60 q47 21.5 105 21.5 q67 0 114.5 -29.5 q47.5 -29.5 73 -85.5 q25.5 -56 27.5 -136 l-42 31 l0 382 l182 0 l0 -730 l-144 0 l0 224 l20 0 q-2 -74 -30 -128.5 q-28 -54.5 -77.5 -84 q-49.5 -29.5 -117.5 -29.5 ZM342 132 q33 0 60.5 15 q27.5 15 44.5 44 q17 29 17 70 l0 34 q0 40 -17.5 67 q-17.5 27 -45 41.5 q-27.5 14.5 -59.5 14.5 q-36 0 -64.5 -18.5 q-28.5 -18.5 -45 -51 q-16.5 -32.5 -16.5 -75.5 q0 -43 16.5 -74.5 q16.5 -31.5 45 -49 q28.5 -17.5 64.5 -17.5 Z" /><glyph glyph-name="dagger" unicode="&#x2020;" d="M216 -200 l0 548 l170 0 l0 -548 l-170 0 ZM36 408 l0 138 l530 0 l0 -138 l-530 0 ZM216 512 l0 218 l170 0 l0 -218 l-170 0 Z" /><glyph glyph-name="daggerdbl" unicode="&#x2021;" d="M36 408 l0 138 l530 0 l0 -138 l-530 0 ZM216 -200 l0 218 l170 0 l0 -218 l-170 0 ZM36 -16 l0 138 l530 0 l0 -138 l-530 0 ZM216 182 l0 166 l170 0 l0 -166 l-170 0 ZM216 512 l0 218 l170 0 l0 -218 l-170 0 Z" /><glyph glyph-name="degree" unicode="°" d="M221 333 q-60 0 -106 27 q-46 27 -71.5 72 q-25.5 45 -25.5 100 q0 55 25.5 99.5 q25.5 44.5 71.5 71.5 q46 27 106 27 q61 0 106.5 -27 q45.5 -27 71 -71.5 q25.5 -44.5 25.5 -99.5 q0 -55 -25.5 -100 q-25.5 -45 -71 -72 q-45.5 -27 -106.5 -27 ZM221 459 q33 0 52 21 q19 21 19 52 q0 31 -19 51.5 q-19 20.5 -52 20.5 q-33 0 -52 -20.5 q-19 -20.5 -19 -51.5 q0 -31 19 -52 q19 -21 52 -21 Z" /><glyph glyph-name="divide" unicode="÷" d="M44 270 l0 148 l510 0 l0 -148 l-510 0 ZM217 50 l0 158 l164 0 l0 -158 l-164 0 ZM217 480 l0 158 l164 0 l0 -158 l-164 0 Z" /><glyph glyph-name="uni2215" unicode="&#x2215;" d="M-17 -68 l350 894 l164 0 l-350 -894 l-164 0 Z" /><glyph glyph-name="dollar" unicode="$" d="M329 -6 q-102 0 -169 28.5 q-67 28.5 -100.5 81 q-33.5 52.5 -33.5 124.5 l166 0 q0 -27 15 -48 q15 -21 45.5 -32.5 q30.5 -11.5 76.5 -11.5 q60 0 94.5 19.5 q34.5 19.5 34.5 56.5 q0 31 -28.5 50.5 q-28.5 19.5 -94.5 25.5 l-46 4 q-110 10 -175 66.5 q-65 56.5 -65 159.5 q0 71 31 118 q31 47 90 70.5 q59 23.5 142 23.5 q90 0 150.5 -27.5 q60.5 -27.5 91.5 -78.5 q31 -51 31 -124 l-166 0 q0 26 -13 45.5 q-13 19.5 -36.5 31 q-23.5 11.5 -57.5 11.5 q-31 0 -52.5 -8.5 q-21.5 -8.5 -33 -24 q-11.5 -15.5 -11.5 -37.5 q0 -27 20.5 -49.5 q20.5 -22.5 69.5 -27.5 l46 -4 q124 -10 198.5 -65.5 q74.5 -55.5 74.5 -159.5 q0 -71 -34 -119.5 q-34 -48.5 -100 -73.5 q-66 -25 -161 -25 ZM249 -129 l0 146 l146 0 l0 -146 l-146 0 ZM245 681 l0 146 l146 0 l0 -146 l-146 0 Z" /><glyph glyph-name="uni0307" unicode="&#x307;" d="M92 626 q-49 0 -70.5 26.5 q-21.5 26.5 -21.5 65.5 q0 39 21.5 65.5 q21.5 26.5 70.5 26.5 q49 0 70.5 -26.5 q21.5 -26.5 21.5 -65.5 q0 -39 -21.5 -65.5 q-21.5 -26.5 -70.5 -26.5 Z" /><glyph glyph-name="e" unicode="e" d="M325 -20 q-70 0 -124 24 q-54 24 -91 65 q-37 41 -56.5 92 q-19.5 51 -19.5 105 l0 20 q0 56 19.5 107.5 q19.5 51.5 56 91.5 q36.5 40 89.5 63.5 q53 23.5 120 23.5 q89 0 151 -40 q62 -40 95 -105.5 q33 -65.5 33 -142.5 l0 -58 l-488 0 l0 98 l383 0 l-63 -44 q0 47 -12.5 79.5 q-12.5 32.5 -37 49.5 q-24.5 17 -61.5 17 q-36 0 -62.5 -16.5 q-26.5 -16.5 -40.5 -50 q-14 -33.5 -14 -84.5 q0 -46 13 -79.5 q13 -33.5 40 -51.5 q27 -18 70 -18 q38 0 62.5 13 q24.5 13 34.5 35 l166 0 q-12 -56 -47.5 -100 q-35.5 -44 -90 -69 q-54.5 -25 -125.5 -25 Z" /><glyph glyph-name="eight" unicode="8" d="M338 -22 q-91 0 -158.5 25.5 q-67.5 25.5 -104.5 75.5 q-37 50 -37 123 q0 47 14.5 82.5 q14.5 35.5 41 60.5 q26.5 25 63.5 38 l0 14 q-28 12 -50.5 32 q-22.5 20 -35 50 q-12.5 30 -12.5 71 q0 69 36 113.5 q36 44.5 99.5 66.5 q63.5 22 143.5 22 q81 0 144 -22 q63 -22 99 -66.5 q36 -44.5 36 -113.5 q0 -41 -12.5 -71 q-12.5 -30 -34.5 -50 q-22 -20 -51 -32 l0 -14 q37 -13 64 -38 q27 -25 41.5 -60.5 q14.5 -35.5 14.5 -82.5 q0 -73 -37 -123 q-37 -50 -104.5 -75.5 q-67.5 -25.5 -159.5 -25.5 ZM338 130 q36 0 63 10.5 q27 10.5 42.5 32 q15.5 21.5 15.5 53.5 q0 32 -15 53 q-15 21 -42.5 31.5 q-27.5 10.5 -63.5 10.5 q-35 0 -62.5 -10.5 q-27.5 -10.5 -42.5 -31.5 q-15 -21 -15 -53 q0 -32 15 -53.5 q15 -21.5 42.5 -32 q27.5 -10.5 62.5 -10.5 ZM338 457 q47 0 73 19 q26 19 26 53 q0 35 -26 53 q-26 18 -73 18 q-47 0 -73 -18.5 q-26 -18.5 -26 -52.5 q0 -34 26.5 -53 q26.5 -19 72.5 -19 Z" /><glyph glyph-name="emdash" unicode="&#x2014;" d="M18 216 l0 136 l882 0 l0 -136 l-882 0 Z" /><glyph glyph-name="endash" unicode="&#x2013;" d="M18 216 l0 136 l494 0 l0 -136 l-494 0 Z" /><glyph glyph-name="eng" unicode="&#x14b;" d="M312 -204 l0 152 l46 0 q36 0 48 14 q12 14 12 38 l0 33 l182 0 l0 -33 q0 -106 -58.5 -155 q-58.5 -49 -187.5 -49 l-42 0 ZM66 0 l0 552 l144 0 l0 -237 l-8 0 q0 86 22 142.5 q22 56.5 65.5 84.5 q43.5 28 105.5 28 l8 0 q94 0 145.5 -62.5 q51.5 -62.5 51.5 -191.5 l0 -316 l-182 0 l0 321 q0 38 -22.5 62.5 q-22.5 24.5 -61.5 24.5 q-39 0 -62.5 -24.5 q-23.5 -24.5 -23.5 -64.5 l0 -319 l-182 0 Z" /><glyph glyph-name="equal" unicode="=" d="M44 370 l0 148 l502 0 l0 -148 l-502 0 ZM44 142 l0 148 l502 0 l0 -148 l-502 0 Z" /><glyph glyph-name="eth" unicode="ð" d="M342 -18 q-71 0 -128 20 q-57 20 -97 55.5 q-40 35.5 -61.5 83.5 q-21.5 48 -21.5 103 l0 16 q0 78 35.5 133 q35.5 55 95 84 q59.5 29 130.5 29 q54 0 101 -17 q47 -17 79 -49.5 q32 -32.5 39 -80.5 l-12 0 q-1 96 -24 151 q-23 55 -51 76 q-20 15 -53 22.5 q-33 7.5 -74 7.5 q-33 0 -67.5 -3.5 q-34.5 -3.5 -67.5 -8.5 l0 136 q34 6 68.5 9 q34.5 3 65.5 3 q122 0 198.5 -46.5 q76.5 -46.5 112.5 -134.5 q36 -88 36 -213 l0 -26 q0 -111 -36 -189.5 q-36 -78.5 -103.5 -119.5 q-67.5 -41 -164.5 -41 ZM343 134 q39 0 67.5 13.5 q28.5 13.5 44 40 q15.5 26.5 15.5 64.5 q0 39 -16 66.5 q-16 27.5 -44.5 41.5 q-28.5 14 -66.5 14 q-37 0 -66 -14 q-29 -14 -45 -41.5 q-16 -27.5 -16 -66.5 q0 -38 15.5 -64.5 q15.5 -26.5 44 -40 q28.5 -13.5 67.5 -13.5 ZM388 504 l-63 64 l229 229 l63 -64 l-229 -229 Z" /><glyph glyph-name="Euro" unicode="&#x20ac;" d="M398 -18 q-154 0 -235.5 94.5 q-81.5 94.5 -81.5 281.5 l0 14 q0 188 79.5 282 q79.5 94 232.5 94 q96 0 159.5 -32.5 q63.5 -32.5 96 -90 q32.5 -57.5 35.5 -132.5 l-160 0 q-4 50 -35.5 79.5 q-31.5 29.5 -95.5 29.5 q-81 0 -115.5 -54 q-34.5 -54 -34.5 -183 q0 -129 36.5 -183 q36.5 -54 118.5 -54 q65 0 96.5 29.5 q31.5 29.5 35.5 79.5 l160 0 q-3 -74 -35.5 -132 q-32.5 -58 -96 -90.5 q-63.5 -32.5 -160.5 -32.5 ZM10 239 l0 86 l431 0 l0 -86 l-431 0 ZM28 391 l0 86 l431 0 l0 -86 l-431 0 Z" /><glyph glyph-name="exclam" unicode="!" d="M69 256 l0 474 l186 0 l0 -474 l-186 0 ZM56 0 l0 174 l212 0 l0 -174 l-212 0 Z" /><glyph glyph-name="f" unicode="f" d="M78 0 l0 550 q0 97 56 144.5 q56 47.5 166 47.5 l71 0 l0 -134 l-75 0 q-24 0 -37 -13 q-13 -13 -13 -37 l0 -558 l-168 0 ZM16 408 l0 132 l363 0 l0 -132 l-363 0 Z" /><glyph glyph-name="fi" unicode="&#xfb01;" d="M76 0 l0 556 q0 97 56 144.5 q56 47.5 166 47.5 l52 0 l0 -134 l-56 0 q-24 0 -37 -13 q-13 -13 -13 -37 l0 -564 l-168 0 ZM16 414 l0 132 l334 0 l0 -132 l-334 0 ZM450 0 l0 552 l182 0 l0 -552 l-182 0 ZM390 420 l0 132 l242 0 l0 -132 l-242 0 ZM525 596 q-50 0 -73.5 25.5 q-23.5 25.5 -23.5 65.5 q0 40 23.5 65.5 q23.5 25.5 72.5 25.5 q50 0 73 -25.5 q23 -25.5 23 -65.5 q0 -40 -23 -65.5 q-23 -25.5 -72 -25.5 Z" /><glyph glyph-name="five" unicode="5" d="M329 -20 q-88 0 -152.5 33.5 q-64.5 33.5 -99.5 90.5 q-35 57 -35 128 l180 0 q0 -30 14 -52 q14 -22 39 -34 q25 -12 56 -12 q36 0 60.5 15 q24.5 15 37 41 q12.5 26 12.5 59 q0 33 -12.5 59 q-12.5 26 -36.5 41 q-24 15 -59 15 q-35 0 -61 -15.5 q-26 -15.5 -38 -38.5 l-175 0 l37 420 l463 0 l0 -160 l-395 0 l76 45 l-20 -221 l-42 10 q30 38 72.5 65 q42.5 27 117.5 27 q78 0 134.5 -31.5 q56.5 -31.5 87.5 -86 q31 -54.5 31 -124.5 l0 -12 q0 -70 -34 -129.5 q-34 -59.5 -99 -96 q-65 -36.5 -159 -36.5 Z" /><glyph glyph-name="fl" unicode="&#xfb02;" d="M76 0 l0 538 q0 97 56 144.5 q56 47.5 166 47.5 l49 0 l0 -132 l-53 0 q-24 0 -37 -13 q-13 -13 -13 -37 l0 -548 l-168 0 ZM16 402 l0 132 l335 0 l0 -132 l-335 0 ZM442 0 l0 730 l182 0 l0 -730 l-182 0 ZM387 598 l0 132 l237 0 l0 -132 l-237 0 Z" /><glyph glyph-name="four" unicode="4" d="M28 129 l0 189 l268 434 l147 -93 l-221 -360 l15 -22 l425 0 l0 -148 l-634 0 ZM411 0 l0 529 l172 0 l0 -529 l-172 0 Z" /><glyph glyph-name="fraction" unicode="&#x2044;" d="M-154 -22 l416 702 l120 0 l-416 -702 l-120 0 Z" /><glyph glyph-name="g" unicode="g" d="M287 -221 q-41 0 -84.5 3 q-43.5 3 -78.5 8 l0 152 q35 -4 78 -7.5 q43 -3.5 79 -3.5 q62 0 101.5 13 q39.5 13 58.5 40 q19 27 19 69 l0 112 l28 60 q-2 -70 -27 -121.5 q-25 -51.5 -71.5 -79.5 q-46.5 -28 -112.5 -28 q-56 0 -101 20 q-45 20 -76.5 56.5 q-31.5 36.5 -48.5 86.5 q-17 50 -17 109 l0 24 q0 59 18 109.5 q18 50.5 52 88 q34 37.5 80.5 58 q46.5 20.5 103.5 20.5 q66 0 114 -29.5 q48 -29.5 75 -85.5 q27 -56 29 -136 l-20 -7 l0 242 l144 0 l0 -487 q0 -102 -38 -165 q-38 -63 -114.5 -92 q-76.5 -29 -190.5 -29 ZM338 146 q33 0 59.5 15 q26.5 15 42.5 43.5 q16 28.5 16 68.5 l0 24 q0 39 -16.5 66 q-16.5 27 -43.5 41 q-27 14 -58 14 q-36 0 -63.5 -17 q-27.5 -17 -43 -48 q-15.5 -31 -15.5 -73 q0 -42 15.5 -72 q15.5 -30 43 -46 q27.5 -16 63.5 -16 Z" /><glyph glyph-name="germandbls" unicode="ß" d="M406 -14 q-28 0 -54 3.5 q-26 3.5 -44 9.5 l0 146 q18 -5 38.5 -9 q20.5 -4 39.5 -4 q43 0 70.5 22 q27.5 22 27.5 68 q0 26 -11.5 48.5 q-11.5 22.5 -36.5 36 q-25 13.5 -66 13.5 l-44 0 l0 132 l33 0 q22 0 37.5 9 q15.5 9 23.5 25.5 q8 16.5 8 36.5 q0 24 -10 42 q-10 18 -28 27.5 q-18 9.5 -42 9.5 q-24 0 -44.5 -11 q-20.5 -11 -33 -32.5 q-12.5 -21.5 -12.5 -55.5 l0 -503 l-182 0 l0 497 q0 121 73 186 q73 65 197 65 l4 0 q79 0 137 -27 q58 -27 90.5 -75 q32.5 -48 32.5 -111 q0 -47 -20.5 -84.5 q-20.5 -37.5 -64.5 -59 q-44 -21.5 -114 -21.5 l0 44 q83 0 139.5 -25 q56.5 -25 86 -71.5 q29.5 -46.5 29.5 -111.5 q0 -77 -36.5 -125.5 q-36.5 -48.5 -95.5 -71.5 q-59 -23 -128 -23 ZM16 392 l0 132 l90 0 l0 -132 l-90 0 Z" /><glyph glyph-name="gravecomb" unicode="&#x300;" d="M114 612 l-114 212 l190 0 l88 -212 l-164 0 Z" /><glyph glyph-name="greater" unicode="&gt;" d="M68 66 l0 154 l462 138 l0 -147 l-462 -145 ZM530 294 l-462 138 l0 158 l462 -145 l0 -151 ZM400 289 l0 82 l30 0 l0 -82 l-30 0 Z" /><glyph glyph-name="greaterequal" unicode="&#x2265;" d="M68 21 l0 142 l462 0 l0 -142 l-462 0 ZM68 210 l0 146 l462 106 l0 -128 l-462 -124 ZM530 406 l-462 105 l0 150 l462 -123 l0 -132 ZM386 397 l0 82 l30 0 l0 -82 l-30 0 Z" /><glyph glyph-name="guilsinglleft" unicode="&#x2039;" d="M144 39 l-132 195 l0 50 l138 199 l208 0 l-144 -203 l0 -38 l144 -203 l-214 0 Z" /><glyph glyph-name="h" unicode="h" d="M66 0 l0 730 l182 0 l0 -416 l-24 0 q0 84 21 141 q21 57 61.5 86 q40.5 29 100.5 29 l8 0 q90 0 137.5 -65 q47.5 -65 47.5 -191 l0 -314 l-182 0 l0 321 q0 38 -23 62.5 q-23 24.5 -61 24.5 q-38 0 -62 -24.5 q-24 -24.5 -24 -64.5 l0 -319 l-182 0 Z" /><glyph glyph-name="uni030B" unicode="&#x30b;" d="M188 612 l84 212 l138 0 l-92 -212 l-130 0 ZM0 612 l84 212 l138 0 l-92 -212 l-130 0 Z" /><glyph glyph-name="hyphen" unicode="-" d="M36 203 l0 162 l438 0 l0 -162 l-438 0 Z" /><glyph glyph-name="i" unicode="i" d="M92 0 l0 552 l182 0 l0 -552 l-182 0 ZM22 420 l0 132 l252 0 l0 -132 l-252 0 ZM167 596 q-50 0 -73.5 25.5 q-23.5 25.5 -23.5 65.5 q0 40 23.5 65.5 q23.5 25.5 72.5 25.5 q50 0 73 -25.5 q23 -25.5 23 -65.5 q0 -40 -23 -65.5 q-23 -25.5 -72 -25.5 Z" /><glyph glyph-name="dotlessi" unicode="&#x131;" d="M92 0 l0 552 l182 0 l0 -552 l-182 0 ZM22 420 l0 132 l252 0 l0 -132 l-252 0 Z" /><glyph glyph-name="j" unicode="j" d="M6 -206 l0 152 l28 0 q36 0 55 19 q19 19 19 55 l0 532 l176 0 l0 -530 q0 -83 -27 -133 q-27 -50 -83 -72.5 q-56 -22.5 -144 -22.5 l-24 0 ZM34 420 l0 132 l250 0 l0 -132 l-250 0 ZM176 596 q-49 0 -72.5 25.5 q-23.5 25.5 -23.5 65.5 q0 40 23.5 65.5 q23.5 25.5 72.5 25.5 q50 0 73 -25.5 q23 -25.5 23 -65.5 q0 -40 -23 -65.5 q-23 -25.5 -73 -25.5 Z" /><glyph glyph-name="uni0237" unicode="&#x237;" d="M6 -206 l0 152 l28 0 q36 0 55 19 q19 19 19 55 l0 532 l176 0 l0 -530 q0 -83 -27 -133 q-27 -50 -83 -72.5 q-56 -22.5 -144 -22.5 l-24 0 ZM34 420 l0 132 l250 0 l0 -132 l-250 0 Z" /><glyph glyph-name="k" unicode="k" d="M458 0 l-163 258 l-74 0 l216 294 l190 0 l-205 -277 l0 88 l239 -363 l-203 0 ZM66 0 l0 730 l182 0 l0 -730 l-182 0 Z" /><glyph glyph-name="l" unicode="l" d="M74 0 l0 730 l182 0 l0 -730 l-182 0 ZM12 598 l0 132 l244 0 l0 -132 l-244 0 Z" /><glyph glyph-name="lessequal" unicode="&#x2264;" d="M68 21 l0 142 l462 0 l0 -142 l-462 0 ZM530 210 l-462 123 l0 132 l462 -105 l0 -150 ZM68 409 l0 128 l462 124 l0 -146 l-462 -106 ZM182 392 l0 82 l30 0 l0 -82 l-30 0 Z" /><glyph glyph-name="logicalnot" unicode="¬" d="M44 250 l0 148 l544 0 l0 -334 l-138 0 l0 268 l82 -82 l-488 0 Z" /><glyph glyph-name="lslash" unicode="&#x142;" d="M9 181 l0 132 l128 70 l0 -132 l-128 -70 ZM193 279 l0 132 l124 67 l0 -132 l-124 -67 ZM74 0 l0 730 l182 0 l0 -730 l-182 0 ZM12 598 l0 132 l244 0 l0 -132 l-244 0 Z" /><glyph glyph-name="m" unicode="m" d="M66 0 l0 552 l144 0 l0 -238 l-8 0 q0 86 21.5 142.5 q21.5 56.5 63.5 85 q42 28.5 103 28.5 l8 0 q62 0 103.5 -28.5 q41.5 -28.5 63 -85 q21.5 -56.5 21.5 -142.5 l-42 0 q0 86 21.5 142.5 q21.5 56.5 63.5 85 q42 28.5 103 28.5 l8 0 q62 0 104.5 -28.5 q42.5 -28.5 65 -85 q22.5 -56.5 22.5 -142.5 l0 -314 l-182 0 l0 319 q0 38 -20.5 63.5 q-20.5 25.5 -58.5 25.5 q-38 0 -59.5 -25.5 q-21.5 -25.5 -21.5 -65.5 l0 -317 l-182 0 l0 319 q0 38 -20.5 63.5 q-20.5 25.5 -58.5 25.5 q-38 0 -59.5 -25.5 q-21.5 -25.5 -21.5 -65.5 l0 -317 l-182 0 Z" /><glyph glyph-name="uni0304" unicode="&#x304;" d="M0 642 l0 126 l360 0 l0 -126 l-360 0 Z" /><glyph glyph-name="uni00B5" unicode="µ" d="M54 -200 l0 752 l182 0 l0 -325 q0 -37 22 -60 q22 -23 59 -23 q25 0 43.5 10.5 q18.5 10.5 29 29.5 q10.5 19 10.5 45 l0 323 l182 0 l0 -363 q0 -16 8.5 -24.5 q8.5 -8.5 24.5 -8.5 l47 0 l0 -156 l-66 0 q-71 0 -111 22 q-40 22 -56 66 q-16 44 -16 109 l25 35 l10 0 q0 -85 -22 -140.5 q-22 -55.5 -60.5 -82.5 q-38.5 -27 -88.5 -27 l-6 0 q-36 0 -69.5 19.5 q-33.5 19.5 -54.5 52 q-21 32.5 -21 69.5 l51 17 q0 -34 10 -69.5 q10 -35.5 20 -74 q10 -38.5 10 -83.5 l0 -113 l-163 0 Z" /><glyph glyph-name="minus" unicode="&#x2212;" d="M44 270 l0 148 l510 0 l0 -148 l-510 0 Z" /><glyph glyph-name="minute" unicode="&#x2032;" d="M24 408 l56 322 l166 0 l-56 -322 l-166 0 Z" /><glyph glyph-name="multiply" unicode="×" d="M455 84 l105 105 l-417 416 l-105 -105 l417 -416 ZM139 84 l421 420 l-101 101 l-421 -420 l101 -101 Z" /><glyph glyph-name="n" unicode="n" d="M66 0 l0 552 l144 0 l0 -237 l-8 0 q0 86 22 142.5 q22 56.5 65.5 84.5 q43.5 28 105.5 28 l8 0 q94 0 145.5 -62.5 q51.5 -62.5 51.5 -191.5 l0 -316 l-182 0 l0 321 q0 38 -22.5 62.5 q-22.5 24.5 -61.5 24.5 q-39 0 -62.5 -24.5 q-23.5 -24.5 -23.5 -64.5 l0 -319 l-182 0 Z" /><glyph glyph-name="uni00A0" unicode=" " d="" /><glyph glyph-name="numbersign" unicode="#" d="M110 0 l113 730 l140 0 l-113 -730 l-140 0 ZM370 0 l113 730 l140 0 l-113 -730 l-140 0 ZM32 177 l0 118 l628 0 l0 -118 l-628 0 ZM72 435 l0 118 l628 0 l0 -118 l-628 0 Z" /><glyph glyph-name="o" unicode="o" d="M341 -20 q-73 0 -130 22 q-57 22 -96.5 61 q-39.5 39 -60 90 q-20.5 51 -20.5 109 l0 24 q0 60 21.5 112 q21.5 52 61.5 91 q40 39 97 61 q57 22 127 22 q71 0 127.5 -22 q56.5 -22 96.5 -61 q40 -39 61.5 -91 q21.5 -52 21.5 -112 l0 -24 q0 -58 -20.5 -109 q-20.5 -51 -60 -90 q-39.5 -39 -96.5 -61 q-57 -22 -130 -22 ZM341 132 q42 0 69.5 18 q27.5 18 41.5 50.5 q14 32.5 14 73.5 q0 43 -14.5 75.5 q-14.5 32.5 -42.5 51.5 q-28 19 -68 19 q-40 0 -68 -19 q-28 -19 -42.5 -51.5 q-14.5 -32.5 -14.5 -75.5 q0 -41 14 -73.5 q14 -32.5 42 -50.5 q28 -18 69 -18 Z" /><glyph glyph-name="oe" unicode="&#x153;" d="M335 -18 q-73 0 -129 22.5 q-56 22.5 -94.5 61 q-38.5 38.5 -58 89.5 q-19.5 51 -19.5 108 l0 24 q0 60 20.5 111.5 q20.5 51.5 59.5 90.5 q39 39 95 61 q56 22 126 22 q71 0 123 -22 q52 -22 87 -61 q35 -39 52 -90.5 q17 -51.5 17 -111.5 l-114 0 q0 55 15 106 q15 51 46.5 91.5 q31.5 40.5 80 64 q48.5 23.5 115.5 23.5 q89 0 149.5 -40.5 q60.5 -40.5 92 -106 q31.5 -65.5 31.5 -141.5 l0 -56 l-404 0 l0 94 l299 0 l-63 -40 q0 47 -12.5 79 q-12.5 32 -37 48.5 q-24.5 16.5 -61.5 16.5 q-36 0 -62.5 -17 q-26.5 -17 -40.5 -50.5 q-14 -33.5 -14 -83.5 q0 -45 13 -78.5 q13 -33.5 40 -52 q27 -18.5 70 -18.5 q38 0 62.5 13 q24.5 13 34.5 35 l166 0 q-18 -85 -84.5 -139.5 q-66.5 -54.5 -172.5 -54.5 q-70 0 -120 24.5 q-50 24.5 -81.5 65.5 q-31.5 41 -46.5 91.5 q-15 50.5 -15 103.5 l114 0 q-1 -58 -17.5 -109 q-16.5 -51 -50 -90 q-33.5 -39 -86 -61.5 q-52.5 -22.5 -125.5 -22.5 ZM341 134 q42 0 69.5 18.5 q27.5 18.5 41.5 50.5 q14 32 14 72 q0 42 -14.5 74.5 q-14.5 32.5 -42.5 51.5 q-28 19 -68 19 q-40 0 -68 -19 q-28 -19 -42.5 -51.5 q-14.5 -32.5 -14.5 -74.5 q0 -40 14 -72 q14 -32 42 -50.5 q28 -18.5 69 -18.5 Z" /><glyph glyph-name="uni0328" unicode="&#x328;" d="M197 -242 q-66 0 -105.5 35 q-39.5 35 -39.5 95 q0 46 18.5 81.5 q18.5 35.5 58.5 76.5 l33 34 l78 -80 l-33 -36 q-11 -12 -18 -23.5 q-7 -11.5 -7 -24.5 q0 -14 10.5 -22 q10.5 -8 28.5 -8 q25 0 41 7 l0 -128 q-10 -3 -29.5 -5 q-19.5 -2 -35.5 -2 Z" /><glyph glyph-name="one" unicode="1" d="M166 0 l0 602 l44 -34 l-180 0 l0 162 l322 0 l0 -730 l-186 0 Z" /><glyph glyph-name="ordfeminine" unicode="ª" d="M280 345 l0 112 l-27 0 l0 111 q0 17 -6 25.5 q-6 8.5 -25 8.5 q-9 0 -35.5 -0.5 q-26.5 -0.5 -60 -1.5 q-33.5 -1 -62.5 -3 l0 134 q19 2 45.5 3 q26.5 1 54 2 q27.5 1 47.5 1 q60 0 104 -18.5 q44 -18.5 68.5 -55 q24.5 -36.5 24.5 -92.5 l0 -226 l-128 0 ZM163 335 q-61 0 -100 33 q-39 33 -39 90 q0 46 25.5 72.5 q25.5 26.5 69 38.5 q43.5 12 97.5 12 l56 0 l0 -79 l-54 0 q-16 0 -25 -8.5 q-9 -8.5 -9 -22.5 q0 -12 8 -20.5 q8 -8.5 26 -8.5 q12 0 19.5 4.5 q7.5 4.5 11 14.5 q3.5 10 4.5 26 l36 -32 q-6 -56 -36 -88 q-30 -32 -90 -32 Z" /><glyph glyph-name="ordmasculine" unicode="º" d="M246 330 q-67 0 -115.5 25.5 q-48.5 25.5 -74.5 70 q-26 44.5 -26 99.5 l0 20 q0 58 27 102.5 q27 44.5 75.5 70 q48.5 25.5 113.5 25.5 q65 0 113.5 -25.5 q48.5 -25.5 75 -70 q26.5 -44.5 26.5 -102.5 l0 -20 q0 -55 -25.5 -99.5 q-25.5 -44.5 -73.5 -70 q-48 -25.5 -116 -25.5 ZM246 464 q18 0 30 8.5 q12 8.5 17.5 24.5 q5.5 16 5.5 38 q0 22 -6 38.5 q-6 16.5 -17.5 26 q-11.5 9.5 -29.5 9.5 q-17 0 -29.5 -9 q-12.5 -9 -18.5 -25.5 q-6 -16.5 -6 -39.5 q0 -22 6 -38 q6 -16 18 -24.5 q12 -8.5 30 -8.5 Z" /><glyph glyph-name="oslash" unicode="ø" d="M68 -66 l442 666 l104 0 l-442 -666 l-104 0 ZM341 -20 q-73 0 -130 22 q-57 22 -96.5 61 q-39.5 39 -60 90 q-20.5 51 -20.5 109 l0 24 q0 60 21.5 112 q21.5 52 61.5 91 q40 39 97 61 q57 22 127 22 q71 0 127.5 -22 q56.5 -22 96.5 -61 q40 -39 61.5 -91 q21.5 -52 21.5 -112 l0 -24 q0 -58 -20.5 -109 q-20.5 -51 -60 -90 q-39.5 -39 -96.5 -61 q-57 -22 -130 -22 ZM341 132 q42 0 69.5 18 q27.5 18 41.5 50.5 q14 32.5 14 73.5 q0 43 -14.5 75.5 q-14.5 32.5 -42.5 51.5 q-28 19 -68 19 q-40 0 -68 -19 q-28 -19 -42.5 -51.5 q-14.5 -32.5 -14.5 -75.5 q0 -41 14 -73.5 q14 -32.5 42 -50.5 q28 -18 69 -18 Z" /><glyph glyph-name="p" unicode="p" d="M66 -200 l0 752 l144 0 l0 -238 l-16 0 q3 81 32.5 138 q29.5 57 80.5 86.5 q51 29.5 117 29.5 q57 0 103 -20.5 q46 -20.5 79 -58 q33 -37.5 50.5 -88.5 q17.5 -51 17.5 -112 l0 -24 q0 -61 -16 -112.5 q-16 -51.5 -48 -90 q-32 -38.5 -78.5 -59.5 q-46.5 -21 -106.5 -21 q-64 0 -113 25.5 q-49 25.5 -77.5 77 q-28.5 51.5 -30.5 129.5 l44 -54 l0 -360 l-182 0 ZM370 132 q36 0 63.5 18.5 q27.5 18.5 43 51.5 q15.5 33 15.5 75 q0 43 -15.5 74.5 q-15.5 31.5 -42.5 49 q-27 17.5 -64 17.5 q-33 0 -61.5 -15 q-28.5 -15 -46.5 -44 q-18 -29 -18 -70 l0 -34 q0 -39 19 -66.5 q19 -27.5 48 -42 q29 -14.5 59 -14.5 Z" /><glyph glyph-name="paragraph" unicode="¶" d="M203 361 q-103 0 -149 49.5 q-46 49.5 -46 131.5 l0 11 q0 82 46 131.5 q46 49.5 149 49.5 l110 0 l0 -373 l-110 0 ZM278 0 l0 734 l117 0 l0 -734 l-117 0 ZM456 0 l0 734 l115 0 l0 -734 l-115 0 Z" /><glyph glyph-name="parenleft" unicode="(" d="M188 -182 q-45 61 -78.5 131 q-33.5 70 -51.5 157 q-18 87 -18 197 q0 111 19.5 196 q19.5 85 54.5 152.5 q35 67.5 80 124.5 l200 0 q-47 -65 -87 -137.5 q-40 -72.5 -63.5 -155.5 q-23.5 -83 -23.5 -180 q0 -96 17 -180.5 q17 -84.5 55.5 -160.5 q38.5 -76 101.5 -144 l-206 0 Z" /><glyph glyph-name="percent" unicode="%" d="M246 0 l262 730 l154 0 l-262 -730 l-154 0 ZM197 326 q-60 0 -100.5 26.5 q-40.5 26.5 -61 71.5 q-20.5 45 -20.5 100 l0 26 q0 59 21 103.5 q21 44.5 62 69.5 q41 25 99 25 q59 0 99.5 -25 q40.5 -25 61.5 -69.5 q21 -44.5 21 -103.5 l0 -26 q0 -55 -20.5 -100 q-20.5 -45 -60.5 -71.5 q-40 -26.5 -101 -26.5 ZM197 446 q26 0 38 19 q12 19 12 71 q0 56 -12.5 74 q-12.5 18 -37.5 18 q-25 0 -37.5 -18 q-12.5 -18 -12.5 -73 q0 -52 12.5 -71.5 q12.5 -19.5 37.5 -19.5 ZM707 -20 q-60 0 -100.5 26.5 q-40.5 26.5 -61 71.5 q-20.5 45 -20.5 100 l0 26 q0 59 21 103.5 q21 44.5 62 69.5 q41 25 99 25 q59 0 99.5 -25 q40.5 -25 61.5 -69.5 q21 -44.5 21 -103.5 l0 -26 q0 -55 -20.5 -100 q-20.5 -45 -60.5 -71.5 q-40 -26.5 -101 -26.5 ZM707 100 q26 0 38 19 q12 19 12 71 q0 56 -12.5 74 q-12.5 18 -37.5 18 q-25 0 -37.5 -18 q-12.5 -18 -12.5 -73 q0 -52 12.5 -71.5 q12.5 -19.5 37.5 -19.5 Z" /><glyph glyph-name="period" unicode="." d="M40 0 l0 198 l196 0 l0 -198 l-196 0 Z" /><glyph glyph-name="perthousand" unicode="&#x2030;" d="M246 0 l262 730 l154 0 l-262 -730 l-154 0 ZM197 326 q-60 0 -100.5 26.5 q-40.5 26.5 -61 71.5 q-20.5 45 -20.5 100 l0 26 q0 59 21 103.5 q21 44.5 62 69.5 q41 25 99 25 q59 0 99.5 -25 q40.5 -25 61.5 -69.5 q21 -44.5 21 -103.5 l0 -26 q0 -55 -20.5 -100 q-20.5 -45 -60.5 -71.5 q-40 -26.5 -101 -26.5 ZM197 446 q26 0 38 19 q12 19 12 71 q0 56 -12.5 74 q-12.5 18 -37.5 18 q-25 0 -37.5 -18 q-12.5 -18 -12.5 -73 q0 -52 12.5 -71.5 q12.5 -19.5 37.5 -19.5 ZM707 -20 q-60 0 -100.5 26.5 q-40.5 26.5 -61 71.5 q-20.5 45 -20.5 100 l0 26 q0 59 21 103.5 q21 44.5 62 69.5 q41 25 99 25 q59 0 99.5 -25 q40.5 -25 61.5 -69.5 q21 -44.5 21 -103.5 l0 -26 q0 -55 -20.5 -100 q-20.5 -45 -60.5 -71.5 q-40 -26.5 -101 -26.5 ZM707 100 q26 0 38 19 q12 19 12 71 q0 56 -12.5 74 q-12.5 18 -37.5 18 q-25 0 -37.5 -18 q-12.5 -18 -12.5 -73 q0 -52 12.5 -71.5 q12.5 -19.5 37.5 -19.5 ZM1101 -20 q-60 0 -100.5 26.5 q-40.5 26.5 -61 71.5 q-20.5 45 -20.5 100 l0 26 q0 59 21 103.5 q21 44.5 62 69.5 q41 25 99 25 q59 0 99.5 -25 q40.5 -25 61.5 -69.5 q21 -44.5 21 -103.5 l0 -26 q0 -55 -20.5 -100 q-20.5 -45 -60.5 -71.5 q-40 -26.5 -101 -26.5 ZM1101 100 q26 0 38 19 q12 19 12 71 q0 56 -12.5 74 q-12.5 18 -37.5 18 q-25 0 -37.5 -18 q-12.5 -18 -12.5 -73 q0 -52 12.5 -71.5 q12.5 -19.5 37.5 -19.5 Z" /><glyph glyph-name="plus" unicode="+" d="M218 88 l0 512 l162 0 l0 -512 l-162 0 ZM44 270 l0 148 l510 0 l0 -148 l-510 0 Z" /><glyph glyph-name="plusminus" unicode="±" d="M60 15 l0 137 l490 0 l0 -137 l-490 0 ZM229 212 l0 460 l152 0 l0 -460 l-152 0 ZM60 373 l0 138 l490 0 l0 -138 l-490 0 Z" /><glyph glyph-name="q" unicode="q" d="M460 -200 l0 363 l44 52 q-2 -70 -28 -122.5 q-26 -52.5 -74 -81.5 q-48 -29 -116 -29 q-58 0 -104.5 21 q-46.5 21 -79.5 58.5 q-33 37.5 -50.5 88.5 q-17.5 51 -17.5 111 l0 24 q0 60 18.5 111.5 q18.5 51.5 53 90 q34.5 38.5 82 60 q47.5 21.5 105.5 21.5 q67 0 116 -29.5 q49 -29.5 76 -85.5 q27 -56 29 -136 l-16 0 l0 235 l144 0 l0 -752 l-182 0 ZM342 132 q33 0 60.5 15 q27.5 15 44.5 44 q17 29 17 70 l0 34 q0 40 -17.5 67 q-17.5 27 -45 41.5 q-27.5 14.5 -59.5 14.5 q-36 0 -64.5 -18.5 q-28.5 -18.5 -45 -51 q-16.5 -32.5 -16.5 -75.5 q0 -43 16.5 -74.5 q16.5 -31.5 45 -49 q28.5 -17.5 64.5 -17.5 Z" /><glyph glyph-name="question" unicode="?" d="M169 254 l0 170 l101 0 q48 0 71 25 q23 25 23 62 q0 25 -9.5 44 q-9.5 19 -28.5 30 q-19 11 -46 11 q-27 0 -45.5 -11.5 q-18.5 -11.5 -28.5 -30.5 q-10 -19 -10 -43 l-174 0 q0 69 31 123.5 q31 54.5 90.5 86 q59.5 31.5 142.5 31.5 q78 0 134.5 -28.5 q56.5 -28.5 87 -79 q30.5 -50.5 30.5 -118.5 l0 -12 q0 -66 -31.5 -115 q-31.5 -49 -91 -76.5 q-59.5 -27.5 -143.5 -30.5 l79 58 l-2 -96 l-180 0 ZM157 0 l0 174 l204 0 l0 -174 l-204 0 Z" /><glyph glyph-name="quoteright" unicode="&#x2019;" d="M36 376 l0 104 l38 0 q26 0 41.5 7 q15.5 7 23 26.5 q7.5 19.5 7.5 55.5 l0 73 l33 -68 q-7 -6 -21 -10.5 q-14 -4.5 -31 -4.5 q-38 0 -63.5 23 q-25.5 23 -25.5 65 q0 39 24.5 67 q24.5 28 72.5 28 q31 0 56.5 -14.5 q25.5 -14.5 41 -48 q15.5 -33.5 15.5 -90.5 l0 -13 q0 -70 -21 -114 q-21 -44 -62 -65 q-41 -21 -102 -21 l-27 0 Z" /><glyph glyph-name="quotesingle" unicode="&#39;" d="M52 408 l0 322 l166 0 l0 -322 l-166 0 Z" /><glyph glyph-name="r" unicode="r" d="M66 0 l0 552 l144 0 l0 -240 l-2 0 q0 116 48.5 182 q48.5 66 139.5 66 l22 0 l0 -156 l-42 0 q-61 0 -94.5 -33 q-33.5 -33 -33.5 -95 l0 -276 l-182 0 Z" /><glyph glyph-name="registered" unicode="®" d="M339 174 q-70 0 -123.5 24.5 q-53.5 24.5 -89.5 65 q-36 40.5 -54 89.5 q-18 49 -18 98 l0 16 q0 51 18.5 99.5 q18.5 48.5 55 88.5 q36.5 40 89.5 63.5 q53 23.5 122 23.5 q69 0 122 -23.5 q53 -23.5 89.5 -63.5 q36.5 -40 55 -88.5 q18.5 -48.5 18.5 -99.5 l0 -16 q0 -49 -18 -98 q-18 -49 -54 -89.5 q-36 -40.5 -89.5 -65 q-53.5 -24.5 -123.5 -24.5 ZM339 226 q69 0 120.5 31.5 q51.5 31.5 80 84 q28.5 52.5 28.5 116.5 q0 66 -28.5 118.5 q-28.5 52.5 -80 83 q-51.5 30.5 -120.5 30.5 q-69 0 -120.5 -30.5 q-51.5 -30.5 -80 -83 q-28.5 -52.5 -28.5 -118.5 q0 -64 28.5 -116.5 q28.5 -52.5 80 -84 q51.5 -31.5 120.5 -31.5 ZM213 306 l0 317 l92 0 l0 -317 l-92 0 ZM396 306 l-66 123 l94 0 l72 -123 l-100 0 ZM256 393 l0 76 l88 0 q25 0 35 10.5 q10 10.5 10 28.5 q0 18 -10 28.5 q-10 10.5 -35 10.5 l-88 0 l0 76 l86 0 q69 0 104 -29 q35 -29 35 -86 q0 -57 -35 -86 q-35 -29 -104 -29 l-86 0 Z" /><glyph glyph-name="uni17DB" unicode="&#x17db;" d="M264 -8 q-70 0 -117.5 18.5 q-47.5 18.5 -72 53 q-24.5 34.5 -24.5 83.5 q0 50 24.5 85.5 q24.5 35.5 74 54.5 q49.5 19 123.5 19 l0 -106 q-37 0 -56.5 -13 q-19.5 -13 -19.5 -38 q0 -25 18.5 -38 q18.5 -13 47.5 -13 l37 0 l-35 -37 l4 304 l138 0 l0 -373 l-142 0 ZM128 334 l0 106 l382 0 l0 -106 l-382 0 ZM268 408 l0 32 q0 8 -2.5 12.5 q-2.5 4.5 -10.5 8.5 q-18 11 -45.5 25.5 q-27.5 14.5 -43.5 23.5 q-42 24 -54 67 q-12 43 7 92 q20 49 54 65 q34 16 101 16 q44 0 85 -4 q41 -4 82 -10 l0 -122 q-41 6 -81.5 10 q-40.5 4 -90.5 4 q-12 0 -16.5 -2 q-4.5 -2 -6.5 -7 q-2 -6 -1.5 -10 q0.5 -4 7.5 -8 q7 -3 23 -12 q16 -9 34.5 -19 q18.5 -10 31.5 -18 q31 -18 48 -42.5 q17 -24.5 17 -69.5 l0 -32 l-138 0 Z" /><glyph glyph-name="uni030A" unicode="&#x30a;" d="M133 601 q-59 0 -96 35 q-37 35 -37 90 q0 55 37 90 q37 35 96 35 q59 0 96 -35 q37 -35 37 -90 q0 -55 -37 -90 q-37 -35 -96 -35 ZM133 686 q19 0 29.5 11.5 q10.5 11.5 10.5 28.5 q0 17 -10.5 28.5 q-10.5 11.5 -29.5 11.5 q-19 0 -29.5 -11.5 q-10.5 -11.5 -10.5 -28.5 q0 -17 10.5 -28.5 q10.5 -11.5 29.5 -11.5 Z" /><glyph glyph-name="s" unicode="s" d="M285 -18 q-120 0 -189 49.5 q-69 49.5 -74 139.5 l160 0 q4 -25 31 -43 q27 -18 76 -18 q35 0 60.5 10.5 q25.5 10.5 25.5 34.5 q0 21 -20 34.5 q-20 13.5 -73 18.5 l-38 4 q-106 11 -156 58 q-50 47 -50 118 q0 61 30 100.5 q30 39.5 83 59.5 q53 20 121 20 q111 0 179 -48.5 q68 -48.5 72 -139.5 l-160 0 q-4 25 -27 42.5 q-23 17.5 -66 17.5 q-31 0 -50.5 -11 q-19.5 -11 -19.5 -31 q0 -21 18.5 -31 q18.5 -10 59.5 -15 l38 -4 q106 -11 163.5 -58.5 q57.5 -47.5 57.5 -124.5 q0 -57 -30.5 -98 q-30.5 -41 -87 -63 q-56.5 -22 -134.5 -22 Z" /><glyph glyph-name="section" unicode="§" d="M287 -102 q-118 0 -187.5 52.5 q-69.5 52.5 -74.5 148.5 l160 0 q4 -29 31 -51 q27 -22 73 -22 q38 0 58.5 14.5 q20.5 14.5 20.5 36.5 q0 19 -16.5 31.5 q-16.5 12.5 -44 22.5 q-27.5 10 -60.5 20 q-36 11 -74.5 25 q-38.5 14 -70.5 34.5 q-32 20.5 -52 51 q-20 30.5 -20 74.5 q0 53 25.5 92.5 q25.5 39.5 65.5 64 q40 24.5 81 29.5 l110 -57 q-44 -7 -70.5 -22.5 q-26.5 -15.5 -38 -34 q-11.5 -18.5 -11.5 -36.5 q0 -26 18.5 -42.5 q18.5 -16.5 48.5 -28.5 q30 -12 65 -23 q35 -11 70.5 -24.5 q35.5 -13.5 65.5 -34 q30 -20.5 48 -51.5 q18 -31 18 -77 q0 -90 -63.5 -141.5 q-63.5 -51.5 -175.5 -51.5 ZM372 157 l-85 85 q64 12 94 40 q30 28 30 63 q0 22 -18 37 q-18 15 -47.5 26.5 q-29.5 11.5 -64.5 22.5 q-37 12 -75.5 27 q-38.5 15 -71 36.5 q-32.5 21.5 -52.5 53 q-20 31.5 -20 77.5 q0 53 29 95 q29 42 80.5 67 q51.5 25 118.5 25 q110 0 174 -49.5 q64 -49.5 64 -141.5 l-156 0 q-1 30 -21.5 47 q-20.5 17 -61.5 17 q-33 0 -49.5 -14.5 q-16.5 -14.5 -16.5 -37.5 q0 -17 16.5 -30 q16.5 -13 44 -23 q27.5 -10 60.5 -20 q38 -12 78.5 -27 q40.5 -15 74.5 -36.5 q34 -21.5 55 -53.5 q21 -32 21 -79 q0 -51 -21 -89.5 q-21 -38.5 -65 -67.5 q-44 -29 -115 -50 Z" /><glyph glyph-name="seven" unicode="7" d="M143 0 l238 561 l-13 17 l-340 0 l0 152 l574 0 l0 -100 l-261 -630 l-198 0 ZM28 460 l0 270 l150 0 l0 -270 l-150 0 Z" /><glyph glyph-name="six" unicode="6" d="M362 -22 q-81 0 -140.5 26.5 q-59.5 26.5 -98 74.5 q-38.5 48 -57 111.5 q-18.5 63.5 -18.5 136.5 l0 40 q0 185 95 277 q95 92 282 92 q37 0 76 -2 q39 -2 73 -6 l0 -156 q-33 3 -74 5.5 q-41 2.5 -81 2.5 q-77 0 -120.5 -24 q-43.5 -24 -61 -73 q-17.5 -49 -17.5 -124 l0 -86 l-40 -2 q1 74 30.5 123.5 q29.5 49.5 81.5 74.5 q52 25 120 25 q77 0 133.5 -30.5 q56.5 -30.5 87.5 -85.5 q31 -55 31 -131 q0 -82 -38.5 -142.5 q-38.5 -60.5 -106.5 -93.5 q-68 -33 -157 -33 ZM356 132 q40 0 68.5 14 q28.5 14 44 39 q15.5 25 15.5 58 q0 34 -15 58.5 q-15 24.5 -43 38.5 q-28 14 -67 14 q-35 0 -65 -12 q-30 -12 -48 -36.5 q-18 -24.5 -18 -62.5 q0 -33 15 -58 q15 -25 43.5 -39 q28.5 -14 69.5 -14 Z" /><glyph glyph-name="slash" unicode="/" d="M16 -60 l208 840 l188 0 l-208 -840 l-188 0 Z" /><glyph glyph-name="uni00AD" unicode="­" d="M32 203 l0 162 l367 0 l0 -162 l-367 0 Z" /><glyph glyph-name="sora" unicode="&#xe000;" d="M274 0 l-205 0 l270 435 l166 0 l269 -435 l-206 0 l-146 239 l-148 -239 ZM70 435 l0 106 l704 0 l0 -106 l-704 0 ZM339 478 l0 196 l166 0 l0 -196 l-166 0 ZM70 624 l0 106 l704 0 l0 -106 l-704 0 Z" /><glyph glyph-name="space" unicode=" " d="" /><glyph glyph-name="sterling" unicode="£" d="M104 0 l0 483 q0 128 80.5 193.5 q80.5 65.5 215.5 65.5 q22 0 53.5 -1.5 q31.5 -1.5 62.5 -4 q31 -2.5 50 -4.5 l0 -146 q-19 2 -51 4.5 q-32 2.5 -64 4 q-32 1.5 -51 1.5 q-49 0 -77.5 -14 q-28.5 -14 -40.5 -41 q-12 -27 -12 -65 l0 -476 l-166 0 ZM40 0 l0 140 l468 0 l0 -140 l-468 0 ZM46 312 l0 120 l454 0 l0 -120 l-454 0 ZM472 0 l0 226 l140 0 l0 -226 l-140 0 Z" /><glyph glyph-name="uni0336" unicode="&#x336;" d="M-47 284 l0 152 l394 0 l0 -152 l-394 0 Z" /><glyph glyph-name="uni0335" unicode="&#x335;" d="M-36 220 l0 94 l372 0 l0 -94 l-372 0 Z" /><glyph glyph-name="t" unicode="t" d="M329 -8 q-90 0 -143.5 22 q-53.5 22 -77.5 73 q-24 51 -24 138 l1 471 l168 0 l-1 -476 q0 -37 19.5 -56.5 q19.5 -19.5 56.5 -19.5 l76 0 l0 -152 l-75 0 ZM4 420 l0 132 l400 0 l0 -132 l-400 0 Z" /><glyph glyph-name="thorn" unicode="þ" d="M66 -200 l0 930 l182 0 l0 -388 l-24 0 q3 66 29 116 q26 50 73 78 q47 28 113 28 q55 0 98.5 -20 q43.5 -20 74 -56.5 q30.5 -36.5 46.5 -87.5 q16 -51 16 -113 l0 -24 q0 -61 -16 -112 q-16 -51 -48 -89 q-32 -38 -78.5 -59 q-46.5 -21 -106.5 -21 q-64 0 -113 25 q-49 25 -77.5 76 q-28.5 51 -30.5 129 l44 -54 l0 -358 l-182 0 ZM370 132 q36 0 63.5 18 q27.5 18 43 50.5 q15.5 32.5 15.5 74.5 q0 43 -15.5 74 q-15.5 31 -42.5 48 q-27 17 -64 17 q-33 0 -61.5 -14.5 q-28.5 -14.5 -46.5 -43 q-18 -28.5 -18 -69.5 l0 -34 q0 -39 19 -66 q19 -27 48 -41 q29 -14 59 -14 Z" /><glyph glyph-name="three" unicode="3" d="M313 -20 q-86 0 -150 31.5 q-64 31.5 -98.5 86 q-34.5 54.5 -34.5 124.5 l180 0 q0 -39 27 -63.5 q27 -24.5 76 -24.5 q33 0 56 12.5 q23 12.5 35 34 q12 21.5 12 48.5 q0 41 -26.5 68 q-26.5 27 -76.5 27 q-29 0 -51.5 -9 q-22.5 -9 -38.5 -23 l-83 138 l202 124 l-9 16 l-272 0 l0 160 l508 0 l0 -159 l-263 -160 l-84 31 q21 6 44.5 9 q23.5 3 48.5 3 q86 0 149 -27 q63 -27 97.5 -77.5 q34.5 -50.5 34.5 -120.5 l0 -12 q0 -69 -34.5 -122.5 q-34.5 -53.5 -98 -84 q-63.5 -30.5 -150.5 -30.5 Z" /><glyph glyph-name="tildecomb" unicode="&#x303;" d="M276 618 q-31 0 -52 8 q-21 8 -37.5 18 q-16.5 10 -34 18 q-17.5 8 -41.5 8 q-28 0 -49 -10.5 q-21 -10.5 -36 -24.5 l-26 124 q18 18 44.5 31.5 q26.5 13.5 66.5 13.5 q32 0 52.5 -8 q20.5 -8 37 -18 q16.5 -10 34 -18 q17.5 -8 41.5 -8 q29 0 50 10.5 q21 10.5 36 24.5 l26 -124 q-18 -18 -45 -31.5 q-27 -13.5 -67 -13.5 Z" /><glyph glyph-name="trademark" unicode="&#x2122;" d="M396 326 l0 404 l155 0 l86 -238 l4 0 l86 238 l155 0 l0 -404 l-114 0 l0 348 l29 -1 l-103 -283 l-114 0 l-103 283 l27 1 l0 -348 l-108 0 ZM120 326 l0 312 l120 0 l0 -312 l-120 0 ZM10 628 l0 102 l340 0 l0 -102 l-340 0 Z" /><glyph glyph-name="two" unicode="2" d="M54 0 l0 160 q0 48 16.5 84.5 q16.5 36.5 52 64.5 q35.5 28 92.5 52 l111 47 q43 18 62.5 43 q19.5 25 19.5 63 q0 35 -23.5 59.5 q-23.5 24.5 -68.5 24.5 q-46 0 -69 -25.5 q-23 -25.5 -23 -68.5 l-180 0 q0 72 31 128 q31 56 91.5 88 q60.5 32 149.5 32 q88 0 148.5 -30.5 q60.5 -30.5 92 -83 q31.5 -52.5 31.5 -118.5 l0 -12 q0 -85 -46 -140 q-46 -55 -148 -99 l-111 -47 q-24 -10 -35.5 -22 q-11.5 -12 -11.5 -32 l0 -36 l-43 28 l393 0 l0 -160 l-532 0 Z" /><glyph glyph-name="u" unicode="u" d="M251 -18 q-94 0 -145.5 61.5 q-51.5 61.5 -51.5 188.5 l0 320 l182 0 l0 -325 q0 -37 22 -60 q22 -23 59 -23 q37 0 60 23 q23 23 23 62 l0 323 l182 0 l0 -552 l-144 0 l0 232 l10 0 q0 -85 -21.5 -140.5 q-21.5 -55.5 -63.5 -82.5 q-42 -27 -104 -27 l-8 0 Z" /><glyph glyph-name="underscore" unicode="_" d="M0 -184 l0 136 l594 0 l0 -136 l-594 0 Z" /><glyph glyph-name="v" unicode="v" d="M170 0 l-158 552 l186 0 l147 -552 l-175 0 ZM228 0 l0 152 l177 0 l0 -152 l-177 0 ZM292 0 l125 552 l174 0 l-136 -552 l-163 0 Z" /><glyph glyph-name="w" unicode="w" d="M282 0 l98 534 l190 0 l112 -534 l-138 0 l-116 530 l84 0 l-106 -530 l-124 0 ZM248 0 l-1 152 l110 0 l1 -152 l-110 0 ZM159 0 l-145 552 l178 0 l134 -552 l-167 0 ZM593 0 l1 152 l110 0 l-1 -152 l-110 0 ZM637 0 l121 552 l166 0 l-132 -552 l-155 0 Z" /><glyph glyph-name="x" unicode="x" d="M6 0 l163 298 l-4 -26 l-154 280 l196 0 l89 -181 l16 0 l84 181 l184 0 l-147 -285 l4 22 l173 -289 l-196 0 l-108 193 l-16 0 l-100 -193 l-184 0 Z" /><glyph glyph-name="y" unicode="y" d="M70 -220 l0 152 l127 0 q23 0 39 6 q16 6 26 19.5 q10 13.5 15 37.5 l124 557 l172 0 l-145 -592 q-16 -68 -44.5 -107.5 q-28.5 -39.5 -78 -56 q-49.5 -16.5 -128.5 -16.5 l-107 0 ZM245 12 l0 140 l116 0 l0 -140 l-116 0 ZM161 12 l-161 540 l182 0 l151 -540 l-172 0 Z" /><glyph glyph-name="yen" unicode="¥" d="M232 294 l-216 436 l188 0 l142 -305 l-25 9 l66 0 l-27 -9 l126 305 l178 0 l-198 -436 l-234 0 ZM264 0 l0 318 l170 0 l0 -318 l-170 0 ZM62 142 l0 86 l570 0 l0 -86 l-570 0 ZM62 294 l0 86 l570 0 l0 -86 l-570 0 Z" /><glyph glyph-name="z" unicode="z" d="M30 0 l0 113 l245 295 l0 -16 l-26 32 l20 -10 l-237 0 l0 138 l448 0 l0 -113 l-245 -295 l0 16 l26 -32 l-20 10 l245 0 l0 -138 l-456 0 Z" /><glyph glyph-name="zero" unicode="0" d="M385 -20 q-89 0 -152 28.5 q-63 28.5 -103 78 q-40 49.5 -59 114 q-19 64.5 -19 135.5 l0 58 q0 100 36 181 q36 81 110 129 q74 48 187 48 q113 0 186.5 -48 q73.5 -48 109.5 -129 q36 -81 36 -181 l0 -58 q0 -71 -19 -135.5 q-19 -64.5 -58.5 -114 q-39.5 -49.5 -102.5 -78 q-63 -28.5 -152 -28.5 ZM385 152 q74 0 110 52 q36 52 36 160 q0 115 -37 165.5 q-37 50.5 -109 50.5 q-73 0 -110 -50.5 q-37 -50.5 -37 -163.5 q0 -109 36.5 -161.5 q36.5 -52.5 110.5 -52.5 Z" /></font>
</defs>
</svg>
