<?xml version="1.0" standalone="no"?><!DOCTYPE svg PUBLIC "-//W3C//DTD SVG 1.1//EN" "http://www.w3.org/Graphics/SVG/1.1/DTD/svg11.dtd" ><svg xmlns="http://www.w3.org/2000/svg"><metadata></metadata><defs><font id="2.000;NONE;Sora-Medium" horiz-adv-x="1318"><font-face font-family="Sora Medium" font-weight="500" font-stretch="normal" units-per-em="1000" panose-1="0 0 0 0 0 0 0 0 0 0" ascent="970" descent="-290" x-height="0" bbox="-125 -291 1269 1186" underline-thickness="50" underline-position="-100" unicode-range="U+0000-fb02" /><missing-glyph horiz-adv-x="862" d="M378 240 l0 140 l48 0 q43 0 65.5 25 q22.5 25 22.5 62 q0 38 -22 62.5 q-22 24.5 -60 24.5 q-38 0 -61 -25.5 q-23 -25.5 -23 -65.5 l-80 0 q0 47 20 83.5 q20 36.5 57.5 58.5 q37.5 22 88.5 22 q50 0 85.5 -20.5 q35.5 -20.5 55 -54.5 q19.5 -34 19.5 -77 l0 -8 q0 -42 -19.5 -76 q-19.5 -34 -57 -53.5 q-37.5 -19.5 -92.5 -20.5 l29 30 l-2 -107 l-74 0 ZM372 100 l0 83 l86 0 l0 -83 l-86 0 ZM89 -45 l0 824 l684 0 l0 -824 l-684 0 ZM148 12 l565 0 l0 710 l-565 0 l0 -710 Z" /><glyph glyph-name="CR" unicode="" d="" /><glyph glyph-name="A" unicode="A" d="M23 0 l256 730 l199 0 l264 -730 l-124 0 l-231 650 l49 -23 l-121 0 l52 23 l-224 -650 l-120 0 ZM189 206 l38 104 l306 0 l39 -104 l-383 0 Z" /><glyph glyph-name="AE" unicode="Æ" d="M7 0 l289 730 l202 0 l0 -103 l-166 0 l51 23 l-256 -650 l-120 0 ZM188 230 l41 105 l269 0 l0 -105 l-310 0 ZM477 0 l0 730 l118 0 l0 -730 l-118 0 ZM574 0 l0 104 l343 0 l0 -104 l-343 0 ZM574 319 l0 104 l315 0 l0 -104 l-315 0 ZM574 626 l0 104 l334 0 l0 -104 l-334 0 Z" /><glyph glyph-name="B" unicode="B" d="M197 -4 l0 100 l193 0 q54 0 83.5 30 q29.5 30 29.5 82 q0 53 -29 82.5 q-29 29.5 -84 29.5 l-193 0 l0 76 l181 0 q72 0 127 -17.5 q55 -17.5 87 -57.5 q32 -40 32 -109 l0 -14 q0 -64 -27.5 -109.5 q-27.5 -45.5 -82 -69 q-54.5 -23.5 -136.5 -23.5 l-181 0 ZM98 -4 l0 739 l119 0 l0 -739 l-119 0 ZM197 341 l0 75 l166 0 q57 0 83.5 30.5 q26.5 30.5 26.5 78.5 q0 49 -26.5 79.5 q-26.5 30.5 -83.5 30.5 l-166 0 l0 100 l151 0 q122 0 184 -51.5 q62 -51.5 62 -147.5 l0 -14 q0 -68 -31.5 -108 q-31.5 -40 -87 -56.5 q-55.5 -16.5 -127.5 -16.5 l-151 0 Z" /><glyph glyph-name="C" unicode="C" d="M421 -18 q-100 0 -170.5 34.5 q-70.5 34.5 -114 91 q-43.5 56.5 -64 122 q-20.5 65.5 -20.5 126.5 l0 22 q0 67 21 133 q21 66 64.5 120 q43.5 54 113 87 q69.5 33 164.5 33 q99 0 171 -35 q72 -35 114.5 -97.5 q42.5 -62.5 50.5 -147.5 l-121 0 q-8 56 -37.5 93.5 q-29.5 37.5 -75 56.5 q-45.5 19 -102.5 19 q-59 0 -104.5 -21 q-45.5 -21 -75.5 -58 q-30 -37 -45.5 -86.5 q-15.5 -49.5 -15.5 -108.5 q0 -56 15.5 -105.5 q15.5 -49.5 46.5 -87.5 q31 -38 77.5 -59 q46.5 -21 107.5 -21 q88 0 148 43.5 q60 43.5 73 124.5 l122 0 q-10 -77 -52 -140.5 q-42 -63.5 -115 -101 q-73 -37.5 -176 -37.5 Z" /><glyph glyph-name="D" unicode="D" d="M198 -4 l0 111 l167 0 q61 0 109 19.5 q48 19.5 82 54.5 q34 35 51.5 82.5 q17.5 47.5 17.5 102.5 q0 59 -17.5 106 q-17.5 47 -51.5 81 q-34 34 -82 52.5 q-48 18.5 -109 18.5 l-167 0 l0 111 l157 0 q99 0 172.5 -30 q73.5 -30 122.5 -81 q49 -51 73 -115 q24 -64 24 -132 l0 -22 q0 -64 -24 -128.5 q-24 -64.5 -73 -116 q-49 -51.5 -122.5 -83 q-73.5 -31.5 -172.5 -31.5 l-157 0 ZM98 -4 l0 739 l120 0 l0 -739 l-120 0 Z" /><glyph glyph-name="E" unicode="E" d="M98 0 l0 730 l119 0 l0 -730 l-119 0 ZM197 0 l0 104 l342 0 l0 -104 l-342 0 ZM197 319 l0 104 l314 0 l0 -104 l-314 0 ZM197 626 l0 104 l333 0 l0 -104 l-333 0 Z" /><glyph glyph-name="Eng" unicode="&#x14a;" d="M435 -229 l0 105 l111 0 q51 0 76 27 q25 27 25 81 l0 54 l35 -26 l-126 0 l-333 615 l-33 0 l20 18 l0 -645 l-112 0 l0 730 l196 0 l337 -622 l35 0 l-20 -18 l0 640 l114 0 l0 -733 q0 -74 -24 -124.5 q-24 -50.5 -74.5 -76 q-50.5 -25.5 -128.5 -25.5 l-98 0 Z" /><glyph glyph-name="F" unicode="F" d="M98 0 l0 730 l120 0 l0 -730 l-120 0 ZM198 315 l0 104 l303 0 l0 -104 l-303 0 ZM198 626 l0 104 l318 0 l0 -104 l-318 0 Z" /><glyph glyph-name="G" unicode="G" d="M431 -18 q-90 0 -160 29.5 q-70 29.5 -119 81.5 q-49 52 -74.5 121 q-25.5 69 -25.5 146 l0 22 q0 69 24 135 q24 66 70.5 119 q46.5 53 114 84 q67.5 31 154.5 31 q93 0 166 -35.5 q73 -35.5 117 -98 q44 -62.5 51 -144.5 l-122 0 q-6 54 -36.5 91 q-30.5 37 -76 56.5 q-45.5 19.5 -99.5 19.5 q-54 0 -98.5 -19.5 q-44.5 -19.5 -76.5 -55 q-32 -35.5 -49 -85 q-17 -49.5 -17 -110.5 q0 -68 18.5 -120 q18.5 -52 52.5 -87.5 q34 -35.5 81.5 -54 q47.5 -18.5 104.5 -18.5 q79 0 138.5 32.5 q59.5 32.5 89.5 84.5 l-31 -117 l0 203 l112 0 l0 -168 q-49 -68 -127.5 -105.5 q-78.5 -37.5 -181.5 -37.5 ZM406 269 l0 94 l395 0 l0 -94 l-395 0 Z" /><glyph glyph-name="uni1E9E" unicode="&#x1e9e;" d="M337 -17 q-91 0 -155.5 29 q-64.5 29 -99 82 q-34.5 53 -34.5 124 l117 0 q0 -28 16.5 -58 q16.5 -30 54 -50.5 q37.5 -20.5 101.5 -20.5 q57 0 94 17 q37 17 55.5 45.5 q18.5 28.5 18.5 61.5 q0 40 -35 67 q-35 27 -107 33 l-68 7 q-66 6 -115 30.5 q-49 24.5 -76.5 68 q-27.5 43.5 -27.5 105.5 q0 69 32 119 q32 50 89.5 77 q57.5 27 134.5 27 q79 0 137 -27 q58 -27 90 -77.5 q32 -50.5 32 -122.5 l-117 0 q0 30 -16 58 q-16 28 -47.5 45.5 q-31.5 17.5 -78.5 17.5 q-47 0 -77.5 -16 q-30.5 -16 -45.5 -43 q-15 -27 -15 -58 q0 -36 27 -64 q27 -28 84 -33 l69 -6 q76 -7 132.5 -33 q56.5 -26 87 -69.5 q30.5 -43.5 30.5 -105.5 q0 -68 -34.5 -120 q-34.5 -52 -98.5 -81 q-64 -29 -154 -29 ZM986 -17 q-90 0 -154 29 q-64 29 -97.5 82 q-33.5 53 -33.5 124 l117 0 q0 -28 15.5 -58 q15.5 -30 52.5 -50.5 q37 -20.5 100 -20.5 q57 0 93 17 q36 17 54 45.5 q18 28.5 18 61.5 q0 41 -35.5 67.5 q-35.5 26.5 -106.5 32.5 l-72 7 q-65 6 -114.5 30.5 q-49.5 24.5 -77 68.5 q-27.5 44 -27.5 105 q0 69 32.5 119 q32.5 50 90.5 77 q58 27 135 27 q80 0 138.5 -27 q58.5 -27 90.5 -77.5 q32 -50.5 32 -122.5 l-118 0 q0 30 -16 58 q-16 28 -47.5 45.5 q-31.5 17.5 -79.5 17.5 q-46 0 -77.5 -16 q-31.5 -16 -46.5 -43 q-15 -27 -15 -58 q0 -36 27 -64 q27 -28 84 -33 l71 -6 q76 -6 132 -32 q56 -26 87 -70 q31 -44 31 -106 q0 -68 -33.5 -120 q-33.5 -52 -97 -81 q-63.5 -29 -152.5 -29 Z" /><glyph glyph-name="H" unicode="H" d="M585 0 l0 730 l120 0 l0 -730 l-120 0 ZM98 0 l0 730 l120 0 l0 -730 l-120 0 ZM195 311 l0 107 l413 0 l0 -107 l-413 0 Z" /><glyph glyph-name="Hbar" unicode="&#x126;" d="M38 550 l0 91 l727 0 l0 -91 l-727 0 ZM585 0 l0 730 l120 0 l0 -730 l-120 0 ZM98 0 l0 730 l120 0 l0 -730 l-120 0 ZM195 311 l0 107 l413 0 l0 -107 l-413 0 Z" /><glyph glyph-name="I" unicode="I" d="M100 0 l0 730 l120 0 l0 -730 l-120 0 Z" /><glyph glyph-name="J" unicode="J" d="M296 -18 q-75 0 -134 30.5 q-59 30.5 -92 89.5 q-33 59 -33 147 l0 29 l119 0 l0 -44 q0 -66 39 -103.5 q39 -37.5 101 -37.5 q61 0 100 37.5 q39 37.5 39 103.5 l0 410 l120 0 l0 -395 q0 -88 -33 -147 q-33 -59 -91.5 -89.5 q-58.5 -30.5 -134.5 -30.5 ZM129 624 l0 106 l426 0 l0 -106 l-426 0 Z" /><glyph glyph-name="K" unicode="K" d="M565 0 l-282 341 l-105 0 l328 389 l137 0 l-297 -351 l-7 70 l373 -449 l-147 0 ZM98 0 l0 730 l120 0 l0 -730 l-120 0 Z" /><glyph glyph-name="L" unicode="L" d="M98 0 l0 730 l120 0 l0 -730 l-120 0 ZM198 0 l0 107 l325 0 l0 -107 l-325 0 Z" /><glyph glyph-name="Lslash" unicode="&#x141;" d="M167 292 l0 100 l217 125 l0 -99 l-217 -126 ZM27 215 l0 100 l110 64 l0 -100 l-110 -64 ZM98 0 l0 730 l120 0 l0 -730 l-120 0 ZM198 0 l0 107 l325 0 l0 -107 l-325 0 Z" /><glyph glyph-name="M" unicode="M" d="M98 0 l0 730 l162 0 l200 -461 l17 0 l198 461 l164 0 l0 -730 l-119 0 l0 623 l12 -2 l-202 -471 l-132 0 l-204 471 l14 2 l0 -623 l-110 0 Z" /><glyph glyph-name="N" unicode="N" d="M98 0 l0 730 l196 0 l339 -627 l33 0 l-20 -18 l0 645 l114 0 l0 -730 l-198 0 l-339 627 l-33 0 l20 18 l0 -645 l-112 0 Z" /><glyph glyph-name="NULL" unicode="" d="" /><glyph glyph-name="O" unicode="O" d="M433 -18 q-99 0 -170.5 34.5 q-71.5 34.5 -118.5 91.5 q-47 57 -69.5 122.5 q-22.5 65.5 -22.5 125.5 l0 22 q0 66 23.5 132 q23.5 66 71 120.5 q47.5 54.5 119 87.5 q71.5 33 167.5 33 q96 0 167 -33 q71 -33 119 -87.5 q48 -54.5 71.5 -120.5 q23.5 -66 23.5 -132 l0 -22 q0 -60 -23 -125.5 q-23 -65.5 -69.5 -122.5 q-46.5 -57 -118.5 -91.5 q-72 -34.5 -170 -34.5 ZM433 93 q60 0 108 22 q48 22 82 60 q34 38 51.5 87 q17.5 49 17.5 104 q0 58 -18 107.5 q-18 49.5 -51.5 87 q-33.5 37.5 -81.5 58.5 q-48 21 -108 21 q-60 0 -108 -21 q-48 -21 -82 -58.5 q-34 -37.5 -51.5 -87 q-17.5 -49.5 -17.5 -107.5 q0 -55 17.5 -104 q17.5 -49 51.5 -87 q34 -38 82 -60 q48 -22 108 -22 Z" /><glyph glyph-name="OE" unicode="&#x152;" d="M438 -20 q-82 0 -144.5 23 q-62.5 23 -108.5 62 q-46 39 -75.5 88 q-29.5 49 -43.5 101.5 q-14 52.5 -14 100.5 l0 22 q0 67 23 133 q23 66 71 120.5 q48 54.5 120.5 87.5 q72.5 33 171.5 33 q40 0 75 -6 q35 -6 60 -15 l99 0 l0 -730 l-99 0 q-24 -9 -58.5 -14.5 q-34.5 -5.5 -76.5 -5.5 ZM438 89 q36 0 75.5 7.5 q39.5 7.5 67.5 22.5 l-28 -35 l0 560 l28 -32 q-29 15 -67.5 22 q-38.5 7 -75.5 7 q-82 0 -140.5 -37 q-58.5 -37 -90.5 -99 q-32 -62 -32 -140 q0 -55 18 -104.5 q18 -49.5 52.5 -88.5 q34.5 -39 83 -61 q48.5 -22 109.5 -22 ZM652 0 l0 104 l342 0 l0 -104 l-342 0 ZM652 319 l0 104 l315 0 l0 -104 l-315 0 ZM652 626 l0 104 l333 0 l0 -104 l-333 0 Z" /><glyph glyph-name="Oslash" unicode="Ø" d="M93 -56 l573 833 l106 0 l-573 -833 l-106 0 ZM433 -18 q-99 0 -170.5 34.5 q-71.5 34.5 -118.5 91.5 q-47 57 -69.5 122.5 q-22.5 65.5 -22.5 125.5 l0 22 q0 66 23.5 132 q23.5 66 71 120.5 q47.5 54.5 119 87.5 q71.5 33 167.5 33 q96 0 167 -33 q71 -33 119 -87.5 q48 -54.5 71.5 -120.5 q23.5 -66 23.5 -132 l0 -22 q0 -60 -23 -125.5 q-23 -65.5 -69.5 -122.5 q-46.5 -57 -118.5 -91.5 q-72 -34.5 -170 -34.5 ZM433 93 q60 0 108 22 q48 22 82 60 q34 38 51.5 87 q17.5 49 17.5 104 q0 58 -18 107.5 q-18 49.5 -51.5 87 q-33.5 37.5 -81.5 58.5 q-48 21 -108 21 q-60 0 -108 -21 q-48 -21 -82 -58.5 q-34 -37.5 -51.5 -87 q-17.5 -49.5 -17.5 -107.5 q0 -55 17.5 -104 q17.5 -49 51.5 -87 q34 -38 82 -60 q48 -22 108 -22 Z" /><glyph glyph-name="P" unicode="P" d="M198 239 l0 105 l152 0 q48 0 79.5 18.5 q31.5 18.5 48.5 51 q17 32.5 17 73.5 q0 42 -17 74.5 q-17 32.5 -48.5 50.5 q-31.5 18 -79.5 18 l-152 0 l0 105 l138 0 q91 0 153.5 -29.5 q62.5 -29.5 95 -83 q32.5 -53.5 32.5 -127.5 l0 -16 q0 -73 -32.5 -127 q-32.5 -54 -95 -83.5 q-62.5 -29.5 -153.5 -29.5 l-138 0 ZM98 0 l0 735 l120 0 l0 -735 l-120 0 Z" /><glyph glyph-name="Q" unicode="Q" d="M570 -213 q-58 0 -101.5 15.5 q-43.5 15.5 -67 55 q-23.5 39.5 -23.5 109.5 l0 96 l111 0 l0 -109 q0 -31 18.5 -49 q18.5 -18 49.5 -18 l119 0 l0 -100 l-106 0 ZM433 -18 q-99 0 -170.5 34.5 q-71.5 34.5 -118.5 91.5 q-47 57 -69.5 122.5 q-22.5 65.5 -22.5 125.5 l0 22 q0 66 23.5 132 q23.5 66 71 120.5 q47.5 54.5 119 87.5 q71.5 33 167.5 33 q96 0 167 -33 q71 -33 119 -87.5 q48 -54.5 71.5 -120.5 q23.5 -66 23.5 -132 l0 -22 q0 -60 -23 -125.5 q-23 -65.5 -69.5 -122.5 q-46.5 -57 -118.5 -91.5 q-72 -34.5 -170 -34.5 ZM433 93 q60 0 108 22 q48 22 82 60 q34 38 51.5 87 q17.5 49 17.5 104 q0 58 -18 107.5 q-18 49.5 -51.5 87 q-33.5 37.5 -81.5 58.5 q-48 21 -108 21 q-60 0 -108 -21 q-48 -21 -82 -58.5 q-34 -37.5 -51.5 -87 q-17.5 -49.5 -17.5 -107.5 q0 -55 17.5 -104 q17.5 -49 51.5 -87 q34 -38 82 -60 q48 -22 108 -22 Z" /><glyph glyph-name="R" unicode="R" d="M98 0 l0 735 l120 0 l0 -735 l-120 0 ZM546 0 l-232 321 l136 0 l239 -321 l-143 0 ZM179 254 l0 101 l190 0 q43 0 74 17.5 q31 17.5 47.5 48.5 q16.5 31 16.5 72 q0 40 -16.5 71 q-16.5 31 -47.5 49 q-31 18 -74 18 l-190 0 l0 104 l174 0 q84 0 146 -25.5 q62 -25.5 96 -76.5 q34 -51 34 -131 l0 -16 q0 -80 -34.5 -131 q-34.5 -51 -96 -76 q-61.5 -25 -145.5 -25 l-174 0 Z" /><glyph glyph-name="S" unicode="S" d="M341 -18 q-94 0 -159.5 30.5 q-65.5 30.5 -99.5 84 q-34 53.5 -34 121.5 l118 0 q0 -31 17 -61 q17 -30 55 -49.5 q38 -19.5 103 -19.5 q59 0 97.5 17 q38.5 17 57 45 q18.5 28 18.5 62 q0 42 -36 68.5 q-36 26.5 -108 32.5 l-73 7 q-101 8 -161 62.5 q-60 54.5 -60 143.5 q0 68 32.5 118 q32.5 50 91.5 78.5 q59 28.5 137 28.5 q80 0 139 -28.5 q59 -28.5 91.5 -80 q32.5 -51.5 32.5 -122.5 l-118 0 q0 32 -15.5 60.5 q-15.5 28.5 -47.5 46.5 q-32 18 -82 18 q-48 0 -79.5 -17 q-31.5 -17 -47.5 -44 q-16 -27 -16 -58 q0 -37 28 -65.5 q28 -28.5 86 -33.5 l72 -6 q77 -6 133.5 -32.5 q56.5 -26.5 88 -70.5 q31.5 -44 31.5 -106 q0 -68 -36.5 -120 q-36.5 -52 -102 -81 q-65.5 -29 -153.5 -29 Z" /><glyph glyph-name="T" unicode="T" d="M241 0 l0 644 l120 0 l0 -644 l-120 0 ZM25 624 l0 106 l553 0 l0 -106 l-553 0 Z" /><glyph glyph-name="Tbar" unicode="&#x166;" d="M89 312 l0 91 l424 0 l0 -91 l-424 0 ZM241 0 l0 644 l120 0 l0 -644 l-120 0 ZM25 624 l0 106 l553 0 l0 -106 l-553 0 Z" /><glyph glyph-name="Thorn" unicode="Þ" d="M198 131 l0 106 l144 0 q46 0 76 16.5 q30 16.5 45 47 q15 30.5 15 70.5 q0 41 -15 71 q-15 30 -45 47.5 q-30 17.5 -76 17.5 l-144 0 l0 104 l132 0 q87 0 147 -29 q60 -29 91.5 -81.5 q31.5 -52.5 31.5 -122.5 l0 -14 q0 -69 -31.5 -122 q-31.5 -53 -91.5 -82 q-60 -29 -147 -29 l-132 0 ZM98 0 l0 730 l120 0 l0 -730 l-120 0 Z" /><glyph glyph-name="U" unicode="U" d="M393 -18 q-101 0 -169.5 38.5 q-68.5 38.5 -104 108.5 q-35.5 70 -35.5 163 l0 438 l120 0 l0 -448 q0 -56 22 -99 q22 -43 64 -66.5 q42 -23.5 103 -23.5 q61 0 102.5 23 q41.5 23 63.5 66 q22 43 22 100 l0 448 l120 0 l0 -438 q0 -93 -35 -163 q-35 -70 -103.5 -108.5 q-68.5 -38.5 -169.5 -38.5 Z" /><glyph glyph-name="V" unicode="V" d="M264 0 l-242 730 l123 0 l210 -649 l-44 22 l114 0 l-48 -22 l194 649 l120 0 l-226 -730 l-201 0 Z" /><glyph glyph-name="W" unicode="W" d="M218 0 l-191 730 l124 0 l161 -651 l-43 24 l109 0 l-47 -24 l129 622 l106 0 l-153 -701 l-195 0 ZM656 0 l-168 701 l111 0 l147 -622 l-46 24 l109 0 l-45 -24 l143 651 l118 0 l-172 -730 l-197 0 Z" /><glyph glyph-name="X" unicode="X" d="M14 0 l264 390 l1 -18 l-242 358 l134 0 l174 -263 l19 0 l176 263 l129 0 l-247 -361 l-2 17 l270 -386 l-135 0 l-200 291 l-19 0 l-193 -291 l-129 0 Z" /><glyph glyph-name="Y" unicode="Y" d="M239 282 l-226 448 l124 0 l182 -368 l-35 11 l106 0 l-37 -11 l169 368 l117 0 l-211 -448 l-189 0 ZM275 0 l0 303 l117 0 l0 -303 l-117 0 Z" /><glyph glyph-name="Z" unicode="Z" d="M54 0 l0 121 l427 507 l0 -22 l-28 38 l19 -13 l-408 0 l0 99 l537 0 l0 -121 l-428 -507 l-2 26 l33 -45 l-25 17 l430 0 l0 -100 l-555 0 Z" /><glyph glyph-name="a" unicode="a" d="M411 0 l0 161 l-19 0 l0 182 q0 50 -26 76 q-26 26 -77 26 q-28 0 -62 -1 q-34 -1 -66.5 -2.5 q-32.5 -1.5 -57.5 -3.5 l0 101 q22 2 48.5 3.5 q26.5 1.5 55 2.5 q28.5 1 54.5 1 q82 0 136 -21 q54 -21 80.5 -66.5 q26.5 -45.5 26.5 -121.5 l0 -337 l-93 0 ZM236 -14 q-59 0 -103 20.5 q-44 20.5 -68 60 q-24 39.5 -24 94.5 q0 58 27.5 96 q27.5 38 78.5 57 q51 19 122 19 l135 0 l0 -77 l-138 0 q-53 0 -81 -25.5 q-28 -25.5 -28 -66.5 q0 -41 28 -65.5 q28 -24.5 81 -24.5 q31 0 59 11.5 q28 11.5 46.5 38.5 q18.5 27 20.5 76 l30 -39 q-5 -57 -27.5 -95.5 q-22.5 -38.5 -62 -59 q-39.5 -20.5 -96.5 -20.5 Z" /><glyph glyph-name="acutecomb" unicode="&#x301;" d="M0 612 l89 202 l122 0 l-112 -202 l-99 0 Z" /><glyph glyph-name="ae" unicode="æ" d="M662 -18 q-55 0 -96 14 q-41 14 -71.5 39 q-30.5 25 -50 57.5 q-19.5 32.5 -30.5 68.5 l32 0 q-5 -57 -32.5 -96 q-27.5 -39 -72 -59 q-44.5 -20 -103.5 -20 q-60 0 -104.5 20.5 q-44.5 20.5 -68.5 59.5 q-24 39 -24 94 q0 59 27.5 97 q27.5 38 78.5 57 q51 19 122 19 l135 0 l0 -77 l-138 0 q-53 0 -81 -26 q-28 -26 -28 -66 q0 -41 28 -66 q28 -25 81 -25 q31 0 59.5 12 q28.5 12 46.5 39.5 q18 27.5 20 76.5 l0 141 q0 51 -25.5 76.5 q-25.5 25.5 -76.5 25.5 q-28 0 -62 -1 q-34 -1 -67 -2 q-33 -1 -58 -3 l0 101 q22 2 48.5 3.5 q26.5 1.5 55 2 q28.5 0.5 53.5 0.5 q82 0 132 -20.5 q50 -20.5 73 -65.5 q23 -45 23 -120 l-77 0 q10 59 38.5 108 q28.5 49 80 78.5 q51.5 29.5 126.5 29.5 q86 0 143.5 -38 q57.5 -38 86.5 -98.5 q29 -60.5 29 -129.5 l0 -45 l-427 0 l0 77 l349 0 l-33 -40 q0 54 -17 93 q-17 39 -50 59.5 q-33 20.5 -82 20.5 q-51 0 -85.5 -23 q-34.5 -23 -52 -64.5 q-17.5 -41.5 -17.5 -98.5 q0 -54 17 -96 q17 -42 52.5 -65.5 q35.5 -23.5 91.5 -23.5 q56 0 92 23 q36 23 44 56 l109 0 q-11 -55 -44.5 -95.5 q-33.5 -40.5 -84.5 -62.5 q-51 -22 -115 -22 Z" /><glyph glyph-name="ampersand" unicode="&amp;" d="M535 0 l-293 314 q-46 50 -72 86.5 q-26 36.5 -37 69.5 q-11 33 -11 72 q0 64 25 107.5 q25 43.5 79.5 66.5 q54.5 23 140.5 23 q34 0 74 -3.5 q40 -3.5 71 -7.5 l0 -100 q-20 2 -51 5 q-31 3 -61 4.5 q-30 1.5 -49 1.5 q-67 0 -93 -26 q-26 -26 -26 -75 q0 -41 19.5 -76 q19.5 -35 61.5 -80 l357 -382 l-135 0 ZM290 -19 q-78 0 -137 30 q-59 30 -91.5 81.5 q-32.5 51.5 -32.5 114.5 l0 14 q0 73 40.5 129 q40.5 56 102.5 88 l55 -73 q-38 -20 -62.5 -59.5 q-24.5 -39.5 -24.5 -88.5 q0 -43 19.5 -74 q19.5 -31 54.5 -47 q35 -16 79 -16 q66 0 116.5 36.5 q50.5 36.5 78.5 110.5 q28 74 28 187 l104 0 q0 -102 -23 -182 q-23 -80 -66.5 -136 q-43.5 -56 -104.5 -85.5 q-61 -29.5 -136 -29.5 ZM407 398 l0 90 l270 0 l0 -90 l-270 0 Z" /><glyph glyph-name="asciicircum" unicode="^" d="M61 310 l164 417 l138 0 l164 -417 l-97 0 l-123 332 l-24 0 l-124 -332 l-98 0 Z" /><glyph glyph-name="asciitilde" unicode="~" d="M354 231 q-36 0 -63 13.5 q-27 13.5 -50 31 q-23 17.5 -43.5 31.5 q-20.5 14 -42.5 14 q-22 0 -37.5 -15 q-15.5 -15 -22.5 -52 l-75 -1 q4 53 24.5 88 q20.5 35 50.5 53 q30 18 62 18 q36 0 63 -14 q27 -14 50 -31.5 q23 -17.5 43.5 -31.5 q20.5 -14 43.5 -14 q21 0 37 15.5 q16 15.5 22 51.5 l75 0 q-3 -52 -23.5 -87 q-20.5 -35 -51 -52.5 q-30.5 -17.5 -62.5 -17.5 Z" /><glyph glyph-name="asterisk" unicode="*" d="M473 371 l-152 109 l0 102 l152 109 l50 -87 l-128 -55 l0 -36 l128 -54 l-50 -88 ZM322 781 l-18 -187 l-89 -51 l-170 78 l50 86 l112 -83 l31 18 l-16 137 l100 2 ZM45 442 l170 78 l89 -51 l18 -187 l-100 1 l16 137 l-31 18 l-111 -83 l-51 87 Z" /><glyph glyph-name="at" unicode="@" d="M566 -244 q-109 0 -201.5 35.5 q-92.5 35.5 -160.5 100.5 q-68 65 -105.5 156 q-37.5 91 -37.5 202 q0 108 36 199.5 q36 91.5 103 159 q67 67.5 161.5 104.5 q94.5 37 209.5 37 q100 0 188.5 -28.5 q88.5 -28.5 157 -85 q68.5 -56.5 107.5 -138.5 q39 -82 39 -190 q0 -88 -27 -156.5 q-27 -68.5 -75.5 -108 q-48.5 -39.5 -114.5 -39.5 q-49 0 -84 20 q-35 20 -54 56.5 q-19 36.5 -19 84.5 l0 60 l30 0 q-3 -71 -30 -119 q-27 -48 -70 -71.5 q-43 -23.5 -96 -23.5 q-62 0 -111 30.5 q-49 30.5 -77 83 q-28 52.5 -28 120.5 l0 16 q0 68 28.5 119 q28.5 51 78 80 q49.5 29 110.5 29 q56 0 100 -24.5 q44 -24.5 71 -70 q27 -45.5 30 -110.5 l-31 0 l0 190 l90 0 l0 -304 q0 -26 8.5 -42.5 q8.5 -16.5 22.5 -24.5 q14 -8 32 -8 q33 0 59 25.5 q26 25.5 42 72 q16 46.5 16 111.5 q0 90 -31 156.5 q-31 66.5 -86 110 q-55 43.5 -125.5 65.5 q-70.5 22 -149.5 22 q-95 0 -171.5 -30.5 q-76.5 -30.5 -130.5 -85.5 q-54 -55 -82 -129.5 q-28 -74.5 -28 -162.5 q0 -121 51 -210.5 q51 -89.5 143 -139 q92 -49.5 212 -49.5 q32 0 64 3.5 q32 3.5 61 10.5 l0 -96 q-29 -6 -61 -9.5 q-32 -3.5 -64 -3.5 ZM544 101 q37 0 67.5 16.5 q30.5 16.5 49 49 q18.5 32.5 18.5 79.5 l0 24 q0 43 -19 71.5 q-19 28.5 -49.5 43.5 q-30.5 15 -66.5 15 q-40 0 -70.5 -18.5 q-30.5 -18.5 -46.5 -51.5 q-16 -33 -16 -77 q0 -45 16.5 -79.5 q16.5 -34.5 46 -53.5 q29.5 -19 70.5 -19 Z" /><glyph glyph-name="b" unicode="b" d="M386 -18 q-66 0 -117.5 29 q-51.5 29 -81 84 q-29.5 55 -32.5 133 l24 0 l0 -228 l-93 0 l0 730 l117 0 l0 -360 l-35 -65 q3 86 33.5 141.5 q30.5 55.5 80.5 82.5 q50 27 112 27 q57 0 103.5 -21 q46.5 -21 80 -58.5 q33.5 -37.5 51 -87.5 q17.5 -50 17.5 -108 l0 -20 q0 -58 -18 -108 q-18 -50 -52.5 -88.5 q-34.5 -38.5 -82.5 -60.5 q-48 -22 -107 -22 ZM365 83 q49 0 86 24 q37 24 57.5 66.5 q20.5 42.5 20.5 97.5 q0 56 -21 97.5 q-21 41.5 -57.5 64.5 q-36.5 23 -85.5 23 q-44 0 -82 -20 q-38 -20 -61 -57.5 q-23 -37.5 -23 -90.5 l0 -43 q0 -51 23.5 -87.5 q23.5 -36.5 61.5 -55.5 q38 -19 81 -19 Z" /><glyph glyph-name="backslash" unicode="\" d="M237 -60 l-222 840 l113 0 l222 -840 l-113 0 Z" /><glyph glyph-name="bar" unicode="|" d="M136 -200 l0 930 l103 0 l0 -930 l-103 0 Z" /><glyph glyph-name="braceleft" unicode="{" d="M316 -182 q-87 0 -140.5 48.5 q-53.5 48.5 -53.5 142.5 l0 173 q0 31 -19 47 q-19 16 -51 16 l0 108 q32 0 51 16 q19 16 19 47 l0 170 q0 94 53.5 142 q53.5 48 140.5 48 l23 0 l0 -95 l-23 0 q-40 0 -61 -23.5 q-21 -23.5 -21 -69.5 l0 -167 q0 -55 -24.5 -83 q-24.5 -28 -72.5 -34 l0 -10 q48 -5 72.5 -33 q24.5 -28 24.5 -83 l0 -172 q0 -45 21 -69 q21 -24 61 -24 l23 0 l0 -95 l-23 0 Z" /><glyph glyph-name="bracketleft" unicode="[" d="M102 -182 l0 958 l113 0 l0 -958 l-113 0 ZM167 -182 l0 95 l165 0 l0 -95 l-165 0 ZM167 681 l0 95 l165 0 l0 -95 l-165 0 Z" /><glyph glyph-name="uni0306" unicode="&#x306;" d="M164 606 q-79 0 -119.5 53.5 q-40.5 53.5 -43.5 154.5 l83 0 q3 -64 22.5 -96 q19.5 -32 57.5 -32 q38 0 58.5 32 q20.5 32 24.5 96 l79 0 q-3 -101 -43 -154.5 q-40 -53.5 -119 -53.5 Z" /><glyph glyph-name="brokenbar" unicode="¦" d="M136 342 l0 388 l103 0 l0 -388 l-103 0 ZM136 -200 l0 380 l103 0 l0 -380 l-103 0 Z" /><glyph glyph-name="bullet" unicode="&#x2022;" d="M92 158 l0 261 l250 0 l0 -261 l-250 0 Z" /><glyph glyph-name="c" unicode="c" d="M320 -18 q-69 0 -120.5 23.5 q-51.5 23.5 -85 64 q-33.5 40.5 -50 90 q-16.5 49.5 -16.5 100.5 l0 18 q0 53 17 102.5 q17 49.5 51 89.5 q34 40 84.5 63.5 q50.5 23.5 118.5 23.5 q69 0 123.5 -26 q54.5 -26 87.5 -73.5 q33 -47.5 37 -110.5 l-113 0 q-6 45 -40.5 76 q-34.5 31 -94.5 31 q-52 0 -86 -24 q-34 -24 -51 -65.5 q-17 -41.5 -17 -95.5 q0 -52 16.5 -94 q16.5 -42 51 -66 q34.5 -24 87.5 -24 q41 0 70.5 14.5 q29.5 14.5 47.5 39 q18 24.5 21 56.5 l114 0 q-3 -65 -37 -112.5 q-34 -47.5 -90 -74 q-56 -26.5 -126 -26.5 Z" /><glyph glyph-name="uni030C" unicode="&#x30c;" d="M108 612 l-108 202 l98 0 l75 -145 l10 0 l64 145 l94 0 l-97 -202 l-136 0 Z" /><glyph glyph-name="uni0327" unicode="&#x327;" d="M120 -251 q-21 0 -40 3 q-19 3 -32 7 l0 75 q14 -4 32.5 -7 q18.5 -3 37.5 -3 q30 0 45 9.5 q15 9.5 15 24.5 q0 14 -11.5 22.5 q-11.5 8.5 -38.5 8.5 l-43 0 l0 122 l71 0 l0 -96 l-46 39 l15 0 q61 0 97 -24.5 q36 -24.5 36 -71.5 q0 -46 -36 -77.5 q-36 -31.5 -102 -31.5 Z" /><glyph glyph-name="cent" unicode="¢" d="M319 100 q-69 0 -119.5 22 q-50.5 22 -84.5 58.5 q-34 36.5 -50.5 82.5 q-16.5 46 -16.5 94 l0 20 q0 51 17 97 q17 46 51 82.5 q34 36.5 84.5 57.5 q50.5 21 118.5 21 q68 0 121.5 -23 q53.5 -23 87 -66.5 q33.5 -43.5 40.5 -107.5 l-112 0 q-7 43 -43.5 70.5 q-36.5 27.5 -93.5 27.5 q-49 0 -84.5 -21 q-35.5 -21 -54 -58.5 q-18.5 -37.5 -18.5 -89.5 q0 -49 18 -87 q18 -38 52.5 -59.5 q34.5 -21.5 86.5 -21.5 q59 0 97.5 29 q38.5 29 44.5 73 l112 0 q-5 -62 -40 -107.5 q-35 -45.5 -90.5 -69.5 q-55.5 -24 -123.5 -24 ZM269 0 l0 146 l101 0 l0 -146 l-101 0 ZM269 582 l0 146 l101 0 l0 -146 l-101 0 Z" /><glyph glyph-name="uni0302" unicode="&#x302;" d="M0 612 l108 202 l137 0 l107 -202 l-97 0 l-74 145 l-10 0 l-75 -145 l-96 0 Z" /><glyph glyph-name="comma" unicode="," d="M112 -162 l-92 36 l97 274 l98 -37 l-103 -273 Z" /><glyph glyph-name="uni0312" unicode="&#x312;" d="M79 600 q-35 0 -57 27 q-22 27 -22 78 l0 6 q0 62 34 94 q34 32 96 32 l12 0 l0 -56 l-14 0 q-35 0 -50.5 -18.5 q-15.5 -18.5 -14.5 -44.5 l0 -31 l-21 1 q5 11 17.5 19 q12.5 8 29.5 8 q22 0 38 -13.5 q16 -13.5 16 -42.5 q0 -31 -19 -45 q-19 -14 -45 -14 Z" /><glyph glyph-name="copyright" unicode="©" d="M360 114 q-82 0 -141 28 q-59 28 -96.5 74 q-37.5 46 -56 100.5 q-18.5 54.5 -18.5 106.5 l0 18 q0 54 19 108.5 q19 54.5 57 99.5 q38 45 97 72 q59 27 139 27 q80 0 138.5 -27 q58.5 -27 96.5 -72 q38 -45 57.5 -99.5 q19.5 -54.5 19.5 -108.5 l0 -18 q0 -52 -18.5 -106.5 q-18.5 -54.5 -56.5 -100.5 q-38 -46 -97 -74 q-59 -28 -140 -28 ZM360 168 q77 0 133.5 36.5 q56.5 36.5 87.5 96.5 q31 60 31 130 q0 73 -31 132.5 q-31 59.5 -87.5 95 q-56.5 35.5 -133.5 35.5 q-78 0 -134.5 -35.5 q-56.5 -35.5 -87 -95 q-30.5 -59.5 -30.5 -132.5 q0 -70 30.5 -130 q30.5 -60 87 -96.5 q56.5 -36.5 134.5 -36.5 ZM364 246 q-60 0 -97.5 26.5 q-37.5 26.5 -55 68 q-17.5 41.5 -17.5 82.5 l0 13 q0 45 18.5 85.5 q18.5 40.5 56.5 66 q38 25.5 95 25.5 q66 0 110 -36 q44 -36 48 -99 l-77 0 q-4 29 -23.5 47 q-19.5 18 -56.5 18 q-47 0 -67.5 -31 q-20.5 -31 -20.5 -82 q0 -32 8.5 -58 q8.5 -26 28 -41 q19.5 -15 51.5 -15 q37 0 58 19 q21 19 25 50 l77 0 q-3 -64 -49 -101.5 q-46 -37.5 -112 -37.5 Z" /><glyph glyph-name="currency" unicode="¤" d="M336 142 q-75 0 -127.5 32 q-52.5 32 -79.5 82 q-27 50 -27 103 l0 16 q0 54 27 104 q27 50 79.5 82 q52.5 32 127.5 32 q75 0 127 -32 q52 -32 79 -82 q27 -50 27 -104 l0 -16 q0 -53 -27 -103 q-27 -50 -79 -82 q-52 -32 -127 -32 ZM108 84 l-69 69 l105 106 l69 -70 l-105 -105 ZM144 475 l-105 105 l69 70 l105 -106 l-69 -69 ZM336 236 q42 0 71 16.5 q29 16.5 44 46.5 q15 30 15 68 q0 40 -15.5 69.5 q-15.5 29.5 -44.5 46 q-29 16.5 -70 16.5 q-41 0 -70 -16.5 q-29 -16.5 -45 -46 q-16 -29.5 -16 -69.5 q0 -38 15.5 -68 q15.5 -30 44.5 -46.5 q29 -16.5 71 -16.5 ZM564 84 l-105 105 l69 70 l105 -106 l-69 -69 ZM528 475 l-69 69 l105 106 l69 -70 l-105 -105 Z" /><glyph glyph-name="d" unicode="d" d="M310 -18 q-58 0 -105.5 21 q-47.5 21 -83 59 q-35.5 38 -54.5 88 q-19 50 -19 109 l0 19 q0 58 18.5 108.5 q18.5 50.5 52.5 88.5 q34 38 81.5 59.5 q47.5 21.5 105.5 21.5 q62 0 111.5 -26.5 q49.5 -26.5 80 -81 q30.5 -54.5 33.5 -138.5 l-40 55 l0 365 l117 0 l0 -730 l-93 0 l0 234 l26 0 q-3 -87 -35.5 -143 q-32.5 -56 -83.5 -82.5 q-51 -26.5 -112 -26.5 ZM332 83 q45 0 81.5 20 q36.5 20 59 58.5 q22.5 38.5 22.5 90.5 l0 43 q0 51 -23 87 q-23 36 -60 55 q-37 19 -81 19 q-49 0 -86.5 -23.5 q-37.5 -23.5 -58.5 -65.5 q-21 -42 -21 -98 q0 -57 21.5 -99 q21.5 -42 59.5 -64.5 q38 -22.5 86 -22.5 Z" /><glyph glyph-name="dagger" unicode="&#x2020;" d="M227 -200 l0 568 l107 0 l0 -568 l-107 0 ZM45 446 l0 91 l470 0 l0 -91 l-470 0 ZM227 503 l0 227 l107 0 l0 -227 l-107 0 Z" /><glyph glyph-name="daggerdbl" unicode="&#x2021;" d="M45 446 l0 91 l470 0 l0 -91 l-470 0 ZM227 -200 l0 227 l107 0 l0 -227 l-107 0 ZM45 -7 l0 92 l470 0 l0 -92 l-470 0 ZM227 158 l0 214 l107 0 l0 -214 l-107 0 ZM227 503 l0 227 l107 0 l0 -227 l-107 0 Z" /><glyph glyph-name="degree" unicode="°" d="M194 401 q-49 0 -87.5 22.5 q-38.5 22.5 -59.5 60 q-21 37.5 -21 82.5 q0 45 21 82 q21 37 59.5 59.5 q38.5 22.5 87.5 22.5 q51 0 88.5 -22.5 q37.5 -22.5 59 -59.5 q21.5 -37 21.5 -82 q0 -45 -21.5 -82.5 q-21.5 -37.5 -59.5 -60 q-38 -22.5 -88 -22.5 ZM194 480 q39 0 61 25.5 q22 25.5 22 60.5 q0 34 -22 59.5 q-22 25.5 -61 25.5 q-39 0 -61 -25.5 q-22 -25.5 -22 -59.5 q0 -35 22 -60.5 q22 -25.5 61 -25.5 Z" /><glyph glyph-name="divide" unicode="÷" d="M61 297 l0 94 l471 0 l0 -94 l-471 0 ZM237 79 l0 123 l119 0 l0 -123 l-119 0 ZM237 486 l0 124 l119 0 l0 -124 l-119 0 Z" /><glyph glyph-name="uni2215" unicode="&#x2215;" d="M-4 -62 l347 877 l101 0 l-347 -877 l-101 0 Z" /><glyph glyph-name="dollar" unicode="$" d="M326 -1 q-90 0 -151.5 28.5 q-61.5 28.5 -93.5 81 q-32 52.5 -32 123.5 l109 0 q0 -32 16 -63.5 q16 -31.5 53 -52 q37 -20.5 99 -20.5 q83 0 124 33 q41 33 41 79 q0 44 -36.5 73 q-36.5 29 -108.5 36 l-61 5 q-99 9 -158 60 q-59 51 -59 145 q0 65 30.5 110 q30.5 45 87 69 q56.5 24 133.5 24 q79 0 135 -26.5 q56 -26.5 86 -77.5 q30 -51 30 -122 l-109 0 q0 33 -15 62.5 q-15 29.5 -46 48 q-31 18.5 -81 18.5 q-45 0 -76 -13.5 q-31 -13.5 -48 -38 q-17 -24.5 -17 -54.5 q0 -39 28.5 -68 q28.5 -29 88.5 -35 l61 -6 q112 -10 179 -63 q67 -53 67 -147 q0 -64 -33.5 -111 q-33.5 -47 -95 -72.5 q-61.5 -25.5 -147.5 -25.5 ZM274 -129 l0 146 l101 0 l0 -146 l-101 0 ZM270 681 l0 146 l101 0 l0 -146 l-101 0 Z" /><glyph glyph-name="uni0307" unicode="&#x307;" d="M70 640 q-36 0 -53 19 q-17 19 -17 48 q0 29 17 48 q17 19 53 19 q36 0 52.5 -19 q16.5 -19 16.5 -48 q0 -29 -16.5 -48 q-16.5 -19 -52.5 -19 Z" /><glyph glyph-name="e" unicode="e" d="M321 -18 q-70 0 -122 24 q-52 24 -85 63.5 q-33 39.5 -49.5 89 q-16.5 49.5 -16.5 101.5 l0 19 q0 53 16.5 102.5 q16.5 49.5 49.5 89 q33 39.5 83.5 63 q50.5 23.5 117.5 23.5 q87 0 145 -38 q58 -38 87 -98.5 q29 -60.5 29 -130.5 l0 -47 l-478 0 l0 79 l399 0 l-32 -40 q0 54 -17 93.5 q-17 39.5 -50 61 q-33 21.5 -83 21.5 q-52 0 -87 -24 q-35 -24 -52 -66 q-17 -42 -17 -99 q0 -54 17 -96.5 q17 -42.5 53 -67 q36 -24.5 92 -24.5 q56 0 92 24.5 q36 24.5 44 57.5 l109 0 q-11 -55 -44.5 -96 q-33.5 -41 -84.5 -63 q-51 -22 -116 -22 Z" /><glyph glyph-name="eight" unicode="8" d="M323 -19 q-81 0 -143.5 27.5 q-62.5 27.5 -97.5 77.5 q-35 50 -35 118 q0 44 16.5 79.5 q16.5 35.5 45.5 61.5 q29 26 67 40 l0 11 q-30 12 -54 33.5 q-24 21.5 -38 51.5 q-14 30 -14 69 q0 65 34.5 109 q34.5 44 92 67 q57.5 23 126.5 23 q71 0 128 -23 q57 -23 91 -67 q34 -44 34 -109 q0 -39 -13.5 -69 q-13.5 -30 -37.5 -51.5 q-24 -21.5 -55 -33.5 l0 -11 q39 -14 68 -40 q29 -26 45.5 -61.5 q16.5 -35.5 16.5 -79.5 q0 -68 -35 -118 q-35 -50 -97.5 -77.5 q-62.5 -27.5 -144.5 -27.5 ZM323 81 q50 0 86 15.5 q36 15.5 56 45.5 q20 30 20 71 q0 41 -19.5 70 q-19.5 29 -55.5 45 q-36 16 -87 16 q-50 0 -86 -16 q-36 -16 -55 -45 q-19 -29 -19 -70 q0 -41 19 -71 q19 -30 55 -45.5 q36 -15.5 86 -15.5 ZM323 435 q63 0 100 26.5 q37 26.5 37 81.5 q0 55 -37.5 81 q-37.5 26 -99.5 26 q-62 0 -99.5 -26.5 q-37.5 -26.5 -37.5 -80.5 q0 -55 37.5 -81.5 q37.5 -26.5 99.5 -26.5 Z" /><glyph glyph-name="emdash" unicode="&#x2014;" d="M18 232 l0 95 l869 0 l0 -95 l-869 0 Z" /><glyph glyph-name="endash" unicode="&#x2013;" d="M18 232 l0 95 l481 0 l0 -95 l-481 0 Z" /><glyph glyph-name="eng" unicode="&#x14b;" d="M307 -201 l0 103 l64 0 q40 0 59.5 20 q19.5 20 19.5 56 l0 45 l117 0 l0 -34 q0 -100 -51 -145 q-51 -45 -157 -45 l-52 0 ZM86 0 l0 539 l93 0 l0 -231 l-11 0 q0 80 21.5 135 q21.5 55 65.5 83.5 q44 28.5 109 28.5 l5 0 q100 0 149 -63 q49 -63 49 -184 l0 -308 l-117 0 l0 324 q0 56 -32 90.5 q-32 34.5 -88 34.5 q-57 0 -92 -35.5 q-35 -35.5 -35 -94.5 l0 -319 l-117 0 Z" /><glyph glyph-name="equal" unicode="=" d="M61 378 l0 94 l469 0 l0 -94 l-469 0 ZM61 188 l0 94 l469 0 l0 -94 l-469 0 Z" /><glyph glyph-name="eth" unicode="ð" d="M329 -19 q-72 0 -125.5 21.5 q-53.5 21.5 -87.5 58.5 q-34 37 -51 84 q-17 47 -17 96 l0 19 q0 69 30.5 126.5 q30.5 57.5 89 92.5 q58.5 35 141.5 35 q60 0 105 -20 q45 -20 72 -55.5 q27 -35.5 33 -82.5 l-11 0 q-1 103 -19 166 q-18 63 -58 92 q-22 16 -53.5 25 q-31.5 9 -78.5 9 q-31 0 -60 -2.5 q-29 -2.5 -57 -6.5 l0 91 q28 4 56.5 6.5 q28.5 2.5 59.5 2.5 q111 0 179 -45 q68 -45 99 -135 q31 -90 31 -228 l0 -26 q0 -94 -29 -168 q-29 -74 -90 -115 q-61 -41 -159 -41 ZM330 83 q54 0 90.5 20.5 q36.5 20.5 55 58.5 q18.5 38 18.5 89 q0 51 -19.5 89 q-19.5 38 -56.5 58.5 q-37 20.5 -90 20.5 q-52 0 -88.5 -20.5 q-36.5 -20.5 -55.5 -58.5 q-19 -38 -19 -89 q0 -51 18.5 -89 q18.5 -38 55.5 -58.5 q37 -20.5 91 -20.5 ZM368 527 l-41 47 l229 201 l42 -47 l-230 -201 Z" /><glyph glyph-name="Euro" unicode="&#x20ac;" d="M403 -15 q-147 0 -225 94 q-78 94 -78 279 l0 14 q0 186 75.5 279.5 q75.5 93.5 221.5 93.5 q88 0 146 -29 q58 -29 87.5 -80 q29.5 -51 32.5 -118 l-104 0 q-4 60 -44.5 94.5 q-40.5 34.5 -117.5 34.5 q-95 0 -143.5 -65 q-48.5 -65 -48.5 -217 q0 -151 50.5 -216.5 q50.5 -65.5 147.5 -65.5 q80 0 119 35 q39 35 43 94 l104 0 q-3 -67 -32 -118 q-29 -51 -87 -80 q-58 -29 -147 -29 ZM16 245 l0 71 l441 0 l0 -71 l-441 0 ZM34 397 l0 71 l441 0 l0 -71 l-441 0 Z" /><glyph glyph-name="exclam" unicode="!" d="M92 228 l0 502 l120 0 l0 -502 l-120 0 ZM82 0 l0 135 l140 0 l0 -135 l-140 0 Z" /><glyph glyph-name="f" unicode="f" d="M99 0 l0 558 q0 91 49.5 134.5 q49.5 43.5 144.5 43.5 l68 0 l0 -93 l-81 0 q-33 0 -51.5 -19 q-18.5 -19 -18.5 -52 l0 -572 l-111 0 ZM28 444 l0 87 l342 0 l0 -87 l-342 0 Z" /><glyph glyph-name="fi" unicode="&#xfb01;" d="M99 0 l0 564 q0 91 49 134.5 q49 43.5 145 43.5 l58 0 l0 -93 l-71 0 q-34 0 -52 -19 q-18 -19 -18 -52 l0 -578 l-111 0 ZM28 450 l0 87 l315 0 l0 -87 l-315 0 ZM467 0 l0 539 l118 0 l0 -539 l-118 0 ZM394 449 l0 90 l191 0 l0 -90 l-191 0 ZM506 614 q-36 0 -53.5 19 q-17.5 19 -17.5 49 q0 29 17.5 48.5 q17.5 19.5 53.5 19.5 q37 0 54 -19.5 q17 -19.5 17 -48.5 q0 -30 -17 -49 q-17 -19 -54 -19 Z" /><glyph glyph-name="five" unicode="5" d="M319 -18 q-85 0 -144.5 34 q-59.5 34 -90.5 90.5 q-31 56.5 -31 121.5 l115 0 q0 -42 19 -74.5 q19 -32.5 53 -51.5 q34 -19 80 -19 q46 0 80.5 19 q34.5 19 53.5 53 q19 34 19 77 q0 43 -18.5 77 q-18.5 34 -53 54.5 q-34.5 20.5 -81.5 20.5 q-36 0 -71 -13.5 q-35 -13.5 -55 -36.5 l-110 0 l37 396 l403 0 l0 -101 l-344 0 l37 36 l-26 -268 l-30 9 q29 32 71 51.5 q42 19.5 100 19.5 q83 0 139.5 -34 q56.5 -34 86.5 -88.5 q30 -54.5 30 -116.5 l0 -13 q0 -62 -31 -117.5 q-31 -55.5 -91 -90.5 q-60 -35 -147 -35 Z" /><glyph glyph-name="fl" unicode="&#xfb02;" d="M99 0 l0 552 q0 91 49 134.5 q49 43.5 145 43.5 l48 0 l0 -93 l-61 0 q-34 0 -52 -18.5 q-18 -18.5 -18 -51.5 l0 -567 l-111 0 ZM28 443 l0 87 l317 0 l0 -87 l-317 0 ZM462 0 l0 730 l117 0 l0 -730 l-117 0 ZM395 640 l0 90 l184 0 l0 -90 l-184 0 Z" /><glyph glyph-name="four" unicode="4" d="M43 162 l0 136 l294 451 l87 -63 l-267 -411 l10 -19 l461 0 l0 -94 l-585 0 ZM425 0 l0 520 l110 0 l0 -520 l-110 0 Z" /><glyph glyph-name="fraction" unicode="&#x2044;" d="M-125 -22 l384 702 l92 0 l-384 -702 l-92 0 Z" /><glyph glyph-name="g" unicode="g" d="M292 -211 q-38 0 -77 3 q-39 3 -73 8 l0 99 q36 -5 76.5 -8.5 q40.5 -3.5 75.5 -3.5 q70 0 112.5 18 q42.5 18 62 55.5 q19.5 37.5 19.5 97.5 l0 104 l31 72 q-3 -78 -32.5 -131 q-29.5 -53 -78 -80 q-48.5 -27 -110.5 -27 q-56 0 -102 21 q-46 21 -79 59 q-33 38 -51 87.5 q-18 49.5 -18 105.5 l0 19 q0 57 18.5 106 q18.5 49 52.5 85.5 q34 36.5 81.5 56.5 q47.5 20 104.5 20 q66 0 116.5 -28.5 q50.5 -28.5 79.5 -83.5 q29 -55 31 -134 l-26 -3 l0 232 l93 0 l0 -475 q0 -98 -31.5 -158.5 q-31.5 -60.5 -99 -88.5 q-67.5 -28 -176.5 -28 ZM327 100 q44 0 80.5 19.5 q36.5 19.5 58 56 q21.5 36.5 21.5 87.5 l0 41 q0 50 -22.5 84.5 q-22.5 34.5 -58.5 52.5 q-36 18 -78 18 q-48 0 -85 -22.5 q-37 -22.5 -57.5 -63 q-20.5 -40.5 -20.5 -94.5 q0 -55 21 -95.5 q21 -40.5 57.5 -62 q36.5 -21.5 83.5 -21.5 Z" /><glyph glyph-name="germandbls" unicode="ß" d="M362 -12 q-25 0 -50 2.5 q-25 2.5 -44 7.5 l0 98 q19 -5 44.5 -7.5 q25.5 -2.5 44.5 -2.5 q64 0 96.5 34 q32.5 34 32.5 86 q0 40 -17.5 72 q-17.5 32 -51.5 50.5 q-34 18.5 -82 18.5 l-40 0 l0 90 l25 0 q34 0 55.5 15 q21.5 15 32 39 q10.5 24 10.5 50 q0 28 -11.5 52 q-11.5 24 -33.5 39 q-22 15 -56 15 q-35 0 -59 -17.5 q-24 -17.5 -36.5 -48 q-12.5 -30.5 -12.5 -70.5 l0 -511 l-118 0 l0 499 q0 115 59 180.5 q59 65.5 165 65.5 l4 0 q68 0 116.5 -26.5 q48.5 -26.5 74 -71 q25.5 -44.5 25.5 -99.5 q0 -51 -23 -90 q-23 -39 -67 -60.5 q-44 -21.5 -108 -21.5 l4 35 q86 0 144 -26.5 q58 -26.5 88 -74 q30 -47.5 30 -111.5 q0 -65 -30 -112.5 q-30 -47.5 -84 -73 q-54 -25.5 -127 -25.5 ZM31 434 l0 90 l90 0 l0 -90 l-90 0 Z" /><glyph glyph-name="gravecomb" unicode="&#x300;" d="M111 612 l-111 202 l126 0 l88 -202 l-103 0 Z" /><glyph glyph-name="greater" unicode="&gt;" d="M74 107 l0 98 l444 143 l0 -95 l-444 -146 ZM518 311 l-444 142 l0 98 l444 -146 l0 -94 ZM433 289 l0 82 l30 0 l0 -82 l-30 0 Z" /><glyph glyph-name="greaterequal" unicode="&#x2265;" d="M74 32 l0 93 l444 0 l0 -93 l-444 0 ZM74 192 l0 94 l444 115 l0 -86 l-444 -123 ZM518 369 l-444 114 l0 93 l444 -122 l0 -85 ZM430 345 l0 82 l30 0 l0 -82 l-30 0 Z" /><glyph glyph-name="guilsinglleft" unicode="&#x2039;" d="M164 39 l-131 197 l0 44 l137 203 l119 0 l-138 -210 l0 -23 l138 -211 l-125 0 Z" /><glyph glyph-name="h" unicode="h" d="M86 0 l0 730 l117 0 l0 -431 l-24 0 q0 80 20.5 137.5 q20.5 57.5 63 88 q42.5 30.5 107.5 30.5 l5 0 q95 0 143.5 -64 q48.5 -64 48.5 -184 l0 -307 l-117 0 l0 324 q0 58 -33.5 91.5 q-33.5 33.5 -86.5 33.5 q-57 0 -92 -38 q-35 -38 -35 -100 l0 -311 l-117 0 Z" /><glyph glyph-name="uni030B" unicode="&#x30b;" d="M169 612 l74 202 l103 0 l-89 -202 l-88 0 ZM0 612 l74 202 l103 0 l-89 -202 l-88 0 Z" /><glyph glyph-name="hyphen" unicode="-" d="M59 229 l0 102 l388 0 l0 -102 l-388 0 Z" /><glyph glyph-name="i" unicode="i" d="M112 0 l0 539 l117 0 l0 -539 l-117 0 ZM33 449 l0 90 l196 0 l0 -90 l-196 0 ZM150 614 q-36 0 -53.5 19 q-17.5 19 -17.5 49 q0 29 17.5 48.5 q17.5 19.5 53.5 19.5 q37 0 54.5 -19.5 q17.5 -19.5 17.5 -48.5 q0 -30 -17.5 -49 q-17.5 -19 -54.5 -19 Z" /><glyph glyph-name="dotlessi" unicode="&#x131;" d="M112 0 l0 539 l117 0 l0 -539 l-117 0 ZM33 449 l0 90 l196 0 l0 -90 l-196 0 Z" /><glyph glyph-name="j" unicode="j" d="M0 -204 l0 102 l49 0 q38 0 58 20.5 q20 20.5 20 57.5 l0 563 l113 0 l0 -552 q0 -71 -20.5 -113 q-20.5 -42 -65 -60 q-44.5 -18 -116.5 -18 l-38 0 ZM45 449 l0 90 l195 0 l0 -90 l-195 0 ZM161 620 q-36 0 -53.5 19 q-17.5 19 -17.5 49 q0 29 17.5 48.5 q17.5 19.5 53.5 19.5 q37 0 54 -19.5 q17 -19.5 17 -48.5 q0 -30 -17 -49 q-17 -19 -54 -19 Z" /><glyph glyph-name="uni0237" unicode="&#x237;" d="M0 -204 l0 102 l49 0 q38 0 58 20.5 q20 20.5 20 57.5 l0 563 l113 0 l0 -552 q0 -71 -20.5 -113 q-20.5 -42 -65 -60 q-44.5 -18 -116.5 -18 l-38 0 ZM45 449 l0 90 l195 0 l0 -90 l-195 0 Z" /><glyph glyph-name="k" unicode="k" d="M460 0 l-192 251 l-84 0 l237 288 l124 0 l-218 -262 l5 60 l262 -337 l-134 0 ZM86 0 l0 730 l117 0 l0 -730 l-117 0 Z" /><glyph glyph-name="l" unicode="l" d="M92 0 l0 730 l118 0 l0 -730 l-118 0 ZM21 640 l0 90 l189 0 l0 -90 l-189 0 Z" /><glyph glyph-name="lessequal" unicode="&#x2264;" d="M74 32 l0 93 l444 0 l0 -93 l-444 0 ZM518 192 l-444 122 l0 86 l444 -114 l0 -94 ZM74 368 l0 86 l444 122 l0 -94 l-444 -114 ZM133 342 l0 82 l30 0 l0 -82 l-30 0 Z" /><glyph glyph-name="logicalnot" unicode="¬" d="M61 270 l0 94 l495 0 l0 -277 l-93 -1 l0 236 l53 -52 l-455 0 Z" /><glyph glyph-name="lslash" unicode="&#x142;" d="M17 213 l0 87 l106 61 l0 -87 l-106 -61 ZM179 302 l0 87 l105 59 l0 -87 l-105 -59 ZM92 0 l0 730 l118 0 l0 -730 l-118 0 ZM21 640 l0 90 l189 0 l0 -90 l-189 0 Z" /><glyph glyph-name="m" unicode="m" d="M86 0 l0 539 l93 0 l0 -232 l-11 0 q0 80 20.5 135 q20.5 55 62 84 q41.5 29 103.5 29 l5 0 q63 0 104.5 -29 q41.5 -29 62 -84 q20.5 -55 20.5 -135 l-32 0 q0 80 21 135 q21 55 63 84 q42 29 104 29 l5 0 q63 0 105 -29 q42 -29 63 -84 q21 -55 21 -135 l0 -307 l-117 0 l0 324 q0 59 -29.5 92 q-29.5 33 -81.5 33 q-54 0 -86 -34.5 q-32 -34.5 -32 -95.5 l0 -319 l-118 0 l0 324 q0 59 -29 92 q-29 33 -81 33 q-54 0 -86.5 -34.5 q-32.5 -34.5 -32.5 -95.5 l0 -319 l-117 0 Z" /><glyph glyph-name="uni0304" unicode="&#x304;" d="M0 660 l0 83 l299 0 l0 -83 l-299 0 Z" /><glyph glyph-name="uni00B5" unicode="µ" d="M74 -200 l0 739 l117 0 l0 -328 q0 -56 31 -88.5 q31 -32.5 84 -32.5 q36 0 63.5 16 q27.5 16 43.5 45 q16 29 16 68 l0 320 l117 0 l0 -400 q0 -18 10 -28 q10 -10 28 -10 l54 0 l0 -101 l-54 0 q-48 0 -80.5 15.5 q-32.5 15.5 -49 49 q-16.5 33.5 -16.5 85.5 l15 80 l12 0 q0 -81 -21.5 -135.5 q-21.5 -54.5 -62 -82.5 q-40.5 -28 -101.5 -28 l-4 0 q-33 0 -66 13.5 q-33 13.5 -55.5 42.5 q-22.5 29 -25.5 73 l34 5 q0 -32 6 -64 q6 -32 11.5 -65.5 q5.5 -33.5 5.5 -67.5 l0 -121 l-112 0 Z" /><glyph glyph-name="minus" unicode="&#x2212;" d="M61 297 l0 94 l471 0 l0 -94 l-471 0 Z" /><glyph glyph-name="minute" unicode="&#x2032;" d="M51 447 l59 283 l103 0 l-59 -283 l-103 0 Z" /><glyph glyph-name="multiply" unicode="×" d="M463 110 l69 69 l-402 401 l-69 -69 l402 -401 ZM126 110 l406 405 l-65 65 l-406 -405 l65 -65 Z" /><glyph glyph-name="n" unicode="n" d="M86 0 l0 539 l93 0 l0 -231 l-11 0 q0 80 21.5 135 q21.5 55 65.5 83.5 q44 28.5 109 28.5 l5 0 q100 0 149 -63 q49 -63 49 -184 l0 -308 l-117 0 l0 324 q0 56 -32 90.5 q-32 34.5 -88 34.5 q-57 0 -92 -35.5 q-35 -35.5 -35 -94.5 l0 -319 l-117 0 Z" /><glyph glyph-name="uni00A0" unicode=" " d="" /><glyph glyph-name="numbersign" unicode="#" d="M125 0 l113 730 l100 0 l-113 -730 l-100 0 ZM366 0 l113 730 l99 0 l-113 -730 l-99 0 ZM35 201 l0 82 l595 0 l0 -82 l-595 0 ZM72 447 l0 82 l595 0 l0 -82 l-595 0 Z" /><glyph glyph-name="o" unicode="o" d="M339 -18 q-71 0 -125 23.5 q-54 23.5 -91 62.5 q-37 39 -56 88.5 q-19 49.5 -19 102.5 l0 20 q0 53 19.5 103 q19.5 50 57 89.5 q37.5 39.5 91.5 62.5 q54 23 123 23 q69 0 122.5 -23 q53.5 -23 91.5 -62.5 q38 -39.5 57.5 -89.5 q19.5 -50 19.5 -103 l0 -20 q0 -53 -19 -102.5 q-19 -49.5 -56 -88.5 q-37 -39 -91 -62.5 q-54 -23.5 -125 -23.5 ZM339 84 q55 0 94 24.5 q39 24.5 59.5 66.5 q20.5 42 20.5 94 q0 53 -21 95 q-21 42 -60 66.5 q-39 24.5 -93 24.5 q-54 0 -93 -24.5 q-39 -24.5 -60 -66.5 q-21 -42 -21 -95 q0 -52 20.5 -94 q20.5 -42 59.5 -66.5 q39 -24.5 94 -24.5 Z" /><glyph glyph-name="oe" unicode="&#x153;" d="M337 -18 q-71 0 -125 23.5 q-54 23.5 -91 62.5 q-37 39 -55 89 q-18 50 -18 102 l0 20 q0 54 19 104 q19 50 56.5 89.5 q37.5 39.5 91 62 q53.5 22.5 122.5 22.5 q71 0 121.5 -23 q50.5 -23 84 -63 q33.5 -40 49 -89.5 q15.5 -49.5 15.5 -101.5 l-76 0 q0 52 13.5 101.5 q13.5 49.5 43 89 q29.5 39.5 76.5 63 q47 23.5 114 23.5 q87 0 144.5 -38 q57.5 -38 86.5 -98.5 q29 -60.5 29 -130.5 l0 -46 l-425 0 l0 77 l346 0 l-32 -39 q0 55 -17 93.5 q-17 38.5 -50.5 59.5 q-33.5 21 -82.5 21 q-51 0 -86.5 -23.5 q-35.5 -23.5 -52.5 -65 q-17 -41.5 -17 -98.5 q0 -54 17 -96 q17 -42 53 -66 q36 -24 92 -24 q56 0 92 22 q36 22 44 56 l109 0 q-17 -84 -81.5 -131.5 q-64.5 -47.5 -162.5 -47.5 q-71 0 -120 24.5 q-49 24.5 -78.5 64.5 q-29.5 40 -42 89.5 q-12.5 49.5 -12.5 98.5 l76 0 q0 -50 -15 -99.5 q-15 -49.5 -47.5 -89.5 q-32.5 -40 -83.5 -64 q-51 -24 -124 -24 ZM338 85 q56 0 94 24.5 q38 24.5 58.5 66 q20.5 41.5 20.5 93.5 q0 53 -21 95 q-21 42 -59.5 66.5 q-38.5 24.5 -92.5 24.5 q-53 0 -92 -24 q-39 -24 -60 -66 q-21 -42 -21 -96 q0 -53 20.5 -94.5 q20.5 -41.5 59.5 -65.5 q39 -24 93 -24 Z" /><glyph glyph-name="uni0328" unicode="&#x328;" d="M183 -242 q-56 0 -89.5 29.5 q-33.5 29.5 -33.5 83.5 q0 46 25.5 80.5 q25.5 34.5 71.5 72.5 l30 26 l43 -50 l-30 -26 q-29 -25 -43 -46 q-14 -21 -14 -43 q0 -21 13 -32.5 q13 -11.5 36 -11.5 q28 0 51 9 l0 -83 q-11 -4 -27 -6.5 q-16 -2.5 -33 -2.5 Z" /><glyph glyph-name="one" unicode="1" d="M195 0 l0 662 l44 -34 l-200 0 l0 102 l274 0 l0 -730 l-118 0 Z" /><glyph glyph-name="ordfeminine" unicode="ª" d="M280 353 l0 109 l-17 0 l0 120 q0 29 -13 44 q-13 15 -44 15 q-14 0 -37.5 -1 q-23.5 -1 -49 -2 q-25.5 -1 -47.5 -3 l0 90 q17 2 38.5 3 q21.5 1 43 1.5 q21.5 0.5 38.5 0.5 q62 0 99.5 -18 q37.5 -18 55.5 -51 q18 -33 18 -79 l0 -229 l-85 0 ZM163 343 q-56 0 -93.5 31.5 q-37.5 31.5 -37.5 87.5 q0 41 21 67 q21 26 58.5 38.5 q37.5 12.5 85.5 12.5 l77 0 l0 -59 l-78 0 q-28 0 -43 -14.5 q-15 -14.5 -15 -38.5 q0 -23 15.5 -37 q15.5 -14 42.5 -14 q18 0 32.5 6.5 q14.5 6.5 24 22.5 q9.5 16 10.5 44 l25 -26 q-4 -58 -36 -89.5 q-32 -31.5 -89 -31.5 Z" /><glyph glyph-name="ordmasculine" unicode="º" d="M232 339 q-62 0 -105.5 26.5 q-43.5 26.5 -67 70.5 q-23.5 44 -23.5 94 l0 15 q0 53 24 96.5 q24 43.5 68 70 q44 26.5 104 26.5 q60 0 104 -26.5 q44 -26.5 67.5 -70 q23.5 -43.5 23.5 -96.5 l0 -15 q0 -50 -22.5 -94 q-22.5 -44 -66.5 -70.5 q-44 -26.5 -106 -26.5 ZM232 429 q29 0 49 14.5 q20 14.5 30 39 q10 24.5 10 54.5 q0 32 -10.5 57 q-10.5 25 -30.5 39 q-20 14 -48 14 q-28 0 -48 -14 q-20 -14 -30.5 -39 q-10.5 -25 -10.5 -57 q0 -31 10 -55 q10 -24 30 -38.5 q20 -14.5 49 -14.5 Z" /><glyph glyph-name="oslash" unicode="ø" d="M73 -55 l443 645 l88 0 l-444 -645 l-87 0 ZM339 -18 q-71 0 -125 23.5 q-54 23.5 -91 62.5 q-37 39 -56 88.5 q-19 49.5 -19 102.5 l0 20 q0 53 19.5 103 q19.5 50 57 89.5 q37.5 39.5 91.5 62.5 q54 23 123 23 q69 0 122.5 -23 q53.5 -23 91.5 -62.5 q38 -39.5 57.5 -89.5 q19.5 -50 19.5 -103 l0 -20 q0 -53 -19 -102.5 q-19 -49.5 -56 -88.5 q-37 -39 -91 -62.5 q-54 -23.5 -125 -23.5 ZM339 84 q55 0 94 24.5 q39 24.5 59.5 66.5 q20.5 42 20.5 94 q0 53 -21 95 q-21 42 -60 66.5 q-39 24.5 -93 24.5 q-54 0 -93 -24.5 q-39 -24.5 -60 -66.5 q-21 -42 -21 -95 q0 -52 20.5 -94 q20.5 -42 59.5 -66.5 q39 -24.5 94 -24.5 Z" /><glyph glyph-name="p" unicode="p" d="M86 -200 l0 739 l93 0 l0 -233 l-18 1 q5 85 36 140 q31 55 82 82 q51 27 112 27 q58 0 105 -21.5 q47 -21.5 81 -59.5 q34 -38 51.5 -88 q17.5 -50 17.5 -108 l0 -19 q0 -57 -18 -107.5 q-18 -50.5 -52 -88.5 q-34 -38 -81 -60 q-47 -22 -105 -22 q-59 0 -110 25 q-51 25 -84 80 q-33 55 -37 143 l44 -74 l0 -356 l-117 0 ZM365 83 q49 0 86 23.5 q37 23.5 57.5 66 q20.5 42.5 20.5 97.5 q0 55 -20.5 97 q-20.5 42 -57 65.5 q-36.5 23.5 -86.5 23.5 q-44 0 -82 -20 q-38 -20 -61 -57.5 q-23 -37.5 -23 -90.5 l0 -43 q0 -51 23.5 -87.5 q23.5 -36.5 61.5 -55.5 q38 -19 81 -19 Z" /><glyph glyph-name="paragraph" unicode="¶" d="M201 391 q-96 0 -143.5 45.5 q-47.5 45.5 -47.5 120.5 l0 11 q0 76 47.5 121 q47.5 45 143.5 45 l98 0 l0 -343 l-98 0 ZM259 0 l0 734 l104 0 l0 -734 l-104 0 ZM437 0 l0 734 l102 0 l0 -734 l-102 0 Z" /><glyph glyph-name="parenleft" unicode="(" d="M235 -182 q-51 61 -90 132 q-39 71 -60 158 q-21 87 -21 194 q0 107 22 192.5 q22 85.5 61 155 q39 69.5 89 126.5 l133 0 q-59 -66 -101.5 -138.5 q-42.5 -72.5 -65 -155 q-22.5 -82.5 -22.5 -180.5 q0 -99 20.5 -182.5 q20.5 -83.5 63 -157.5 q42.5 -74 105.5 -144 l-134 0 Z" /><glyph glyph-name="percent" unicode="%" d="M250 0 l272 730 l96 0 l-273 -730 l-95 0 ZM197 335 q-58 0 -94.5 26 q-36.5 26 -54 69.5 q-17.5 43.5 -17.5 95.5 l0 26 q0 55 18 98 q18 43 55 67.5 q37 24.5 93 24.5 q57 0 93.5 -24.5 q36.5 -24.5 54.5 -67.5 q18 -43 18 -98 l0 -26 q0 -52 -17.5 -95.5 q-17.5 -43.5 -53.5 -69.5 q-36 -26 -95 -26 ZM197 415 q41 0 61 29.5 q20 29.5 20 93.5 q0 67 -20.5 96 q-20.5 29 -60.5 29 q-40 0 -60.5 -29 q-20.5 -29 -20.5 -95 q0 -64 20 -94 q20 -30 61 -30 ZM667 -12 q-58 0 -95 26 q-37 26 -54.5 69.5 q-17.5 43.5 -17.5 94.5 l0 26 q0 55 18 98 q18 43 55.5 68 q37.5 25 93.5 25 q56 0 93 -25 q37 -25 55 -68 q18 -43 18 -98 l0 -26 q0 -51 -17.5 -94.5 q-17.5 -43.5 -54 -69.5 q-36.5 -26 -94.5 -26 ZM667 67 q41 0 60.5 30 q19.5 30 19.5 93 q0 67 -20 96 q-20 29 -60 29 q-40 0 -60.5 -29 q-20.5 -29 -20.5 -95 q0 -63 20 -93.5 q20 -30.5 61 -30.5 Z" /><glyph glyph-name="period" unicode="." d="M65 0 l0 141 l136 0 l0 -141 l-136 0 Z" /><glyph glyph-name="perthousand" unicode="&#x2030;" d="M250 0 l272 730 l96 0 l-273 -730 l-95 0 ZM197 335 q-58 0 -94.5 26 q-36.5 26 -54 69.5 q-17.5 43.5 -17.5 95.5 l0 26 q0 55 18 98 q18 43 55 67.5 q37 24.5 93 24.5 q57 0 93.5 -24.5 q36.5 -24.5 54.5 -67.5 q18 -43 18 -98 l0 -26 q0 -52 -17.5 -95.5 q-17.5 -43.5 -53.5 -69.5 q-36 -26 -95 -26 ZM197 415 q41 0 61 29.5 q20 29.5 20 93.5 q0 67 -20.5 96 q-20.5 29 -60.5 29 q-40 0 -60.5 -29 q-20.5 -29 -20.5 -95 q0 -64 20 -94 q20 -30 61 -30 ZM667 -12 q-58 0 -95 26 q-37 26 -54.5 69.5 q-17.5 43.5 -17.5 94.5 l0 26 q0 55 18 98 q18 43 55.5 68 q37.5 25 93.5 25 q56 0 93 -25 q37 -25 55 -68 q18 -43 18 -98 l0 -26 q0 -51 -17.5 -94.5 q-17.5 -43.5 -54 -69.5 q-36.5 -26 -94.5 -26 ZM667 67 q41 0 60.5 30 q19.5 30 19.5 93 q0 67 -20 96 q-20 29 -60 29 q-40 0 -60.5 -29 q-20.5 -29 -20.5 -95 q0 -63 20 -93.5 q20 -30.5 61 -30.5 ZM1054 -12 q-58 0 -94.5 26 q-36.5 26 -54 69.5 q-17.5 43.5 -17.5 94.5 l0 26 q0 55 18 98 q18 43 55 68 q37 25 93 25 q57 0 93.5 -25 q36.5 -25 54.5 -68 q18 -43 18 -98 l0 -26 q0 -51 -17.5 -94.5 q-17.5 -43.5 -53.5 -69.5 q-36 -26 -95 -26 ZM1054 67 q41 0 61 30 q20 30 20 93 q0 67 -20.5 96 q-20.5 29 -60.5 29 q-40 0 -60.5 -29 q-20.5 -29 -20.5 -95 q0 -63 20 -93.5 q20 -30.5 61 -30.5 Z" /><glyph glyph-name="plus" unicode="+" d="M245 102 l0 485 l102 0 l0 -485 l-102 0 ZM61 297 l0 94 l471 0 l0 -94 l-471 0 Z" /><glyph glyph-name="plusminus" unicode="±" d="M72 53 l0 91 l466 0 l0 -91 l-466 0 ZM257 203 l0 445 l96 1 l0 -445 l-96 -1 ZM72 381 l0 91 l466 0 l0 -91 l-466 0 Z" /><glyph glyph-name="q" unicode="q" d="M491 -200 l0 360 l39 70 q-2 -83 -32.5 -138 q-30.5 -55 -80.5 -82.5 q-50 -27.5 -112 -27.5 q-57 0 -104.5 22 q-47.5 22 -81.5 60.5 q-34 38.5 -52.5 89 q-18.5 50.5 -18.5 108.5 l0 19 q0 58 18.5 107.5 q18.5 49.5 53.5 87.5 q35 38 83 59 q48 21 106 21 q68 0 119 -29 q51 -29 80.5 -84.5 q29.5 -55.5 31.5 -134.5 l-25 0 l0 231 l93 0 l0 -739 l-117 0 ZM332 86 q45 0 81.5 20 q36.5 20 59 58.5 q22.5 38.5 22.5 90.5 l0 43 q0 51 -23 87 q-23 36 -60 55 q-37 19 -80 19 q-50 0 -87.5 -23.5 q-37.5 -23.5 -58.5 -66 q-21 -42.5 -21 -98.5 q0 -55 21.5 -97 q21.5 -42 59 -65 q37.5 -23 86.5 -23 Z" /><glyph glyph-name="question" unicode="?" d="M195 227 l0 182 l77 0 q65 0 96.5 35 q31.5 35 31.5 85 q0 37 -15 64 q-15 27 -42.5 41.5 q-27.5 14.5 -63.5 14.5 q-41 0 -70 -17 q-29 -17 -45 -45.5 q-16 -28.5 -16 -64.5 l-112 0 q0 61 27.5 113 q27.5 52 82 84 q54.5 32 134.5 32 q72 0 124 -28.5 q52 -28.5 80.5 -77 q28.5 -48.5 28.5 -108.5 l0 -12 q0 -58 -28.5 -105.5 q-28.5 -47.5 -83.5 -75 q-55 -27.5 -134 -28.5 l47 49 l-2 -138 l-117 0 ZM184 0 l0 135 l138 0 l0 -135 l-138 0 Z" /><glyph glyph-name="quoteright" unicode="&#x2019;" d="M45 414 l0 65 l16 0 q31 0 49 10 q18 10 26.5 32.5 q8.5 22.5 8.5 58.5 l0 74 l26 -51 q-7 -4 -19 -6.5 q-12 -2.5 -25 -2.5 q-30 0 -50.5 18.5 q-20.5 18.5 -20.5 52.5 q0 32 19.5 53 q19.5 21 53.5 21 q22 0 41 -10.5 q19 -10.5 31.5 -36 q12.5 -25.5 12.5 -71.5 l0 -19 q0 -73 -19 -114 q-19 -41 -54 -57.5 q-35 -16.5 -84 -16.5 l-12 0 Z" /><glyph glyph-name="quotesingle" unicode="&#39;" d="M81 447 l0 283 l103 0 l0 -283 l-103 0 Z" /><glyph glyph-name="r" unicode="r" d="M86 0 l0 539 l93 0 l0 -225 l-4 0 q0 116 51 173.5 q51 57.5 151 57.5 l19 0 l0 -103 l-36 0 q-76 0 -116.5 -40.5 q-40.5 -40.5 -40.5 -115.5 l0 -286 l-117 0 Z" /><glyph glyph-name="registered" unicode="®" d="M339 180 q-70 0 -123.5 24.5 q-53.5 24.5 -89.5 65 q-36 40.5 -54 89.5 q-18 49 -18 98 l0 16 q0 51 18.5 99.5 q18.5 48.5 55 88.5 q36.5 40 89.5 63.5 q53 23.5 122 23.5 q69 0 122 -23.5 q53 -23.5 89.5 -63.5 q36.5 -40 55 -88.5 q18.5 -48.5 18.5 -99.5 l0 -16 q0 -49 -18 -98 q-18 -49 -54 -89.5 q-36 -40.5 -89.5 -65 q-53.5 -24.5 -123.5 -24.5 ZM339 232 q69 0 120.5 31.5 q51.5 31.5 80 84 q28.5 52.5 28.5 116.5 q0 66 -28.5 118.5 q-28.5 52.5 -80 83 q-51.5 30.5 -120.5 30.5 q-69 0 -120.5 -30.5 q-51.5 -30.5 -80 -83 q-28.5 -52.5 -28.5 -118.5 q0 -64 28.5 -116.5 q28.5 -52.5 80 -84 q51.5 -31.5 120.5 -31.5 ZM227 315 l0 310 l65 0 l0 -310 l-65 0 ZM410 315 l-88 119 l71 0 l92 -119 l-75 0 ZM258 413 l0 56 l85 0 q28 0 42.5 12.5 q14.5 12.5 14.5 36.5 q0 26 -14.5 38 q-14.5 12 -42.5 12 l-85 0 l0 57 l78 0 q60 0 94.5 -27.5 q34.5 -27.5 34.5 -78.5 q0 -51 -34.5 -78.5 q-34.5 -27.5 -94.5 -27.5 l-78 0 Z" /><glyph glyph-name="uni17DB" unicode="&#x17db;" d="M256 -6 q-55 0 -99 16.5 q-44 16.5 -69.5 50 q-25.5 33.5 -25.5 83.5 q0 47 27 79 q27 32 74.5 49 q47.5 17 110.5 17 l0 -80 q-53 0 -83.5 -14 q-30.5 -14 -30.5 -49 q0 -34 27 -51.5 q27 -17.5 65 -17.5 l49 0 l-35 -41 l1 335 l96 0 l0 -377 l-107 0 ZM128 348 l0 76 l354 0 l0 -76 l-354 0 ZM267 401 l0 35 q0 14 -6 25.5 q-6 11.5 -20 19.5 q-20 14 -44.5 27 q-24.5 13 -40.5 24 q-41 27 -47.5 65.5 q-6.5 38.5 9.5 78.5 q17 38 51 51.5 q34 13.5 89 13.5 q35 0 75 -3 q40 -3 78 -8 l0 -89 q-39 5 -75 9 q-36 4 -86 4 q-20 0 -28.5 -4.5 q-8.5 -4.5 -12.5 -15.5 q-4 -10 -2.5 -19.5 q1.5 -9.5 11.5 -16.5 q8 -5 23 -13.5 q15 -8.5 32.5 -18.5 q17.5 -10 34.5 -20 q30 -18 42.5 -43 q12.5 -25 12.5 -67 l0 -35 l-96 0 Z" /><glyph glyph-name="uni030A" unicode="&#x30a;" d="M117 602 q-52 0 -84.5 32.5 q-32.5 32.5 -32.5 82.5 q0 50 32.5 82.5 q32.5 32.5 84.5 32.5 q53 0 85.5 -32.5 q32.5 -32.5 32.5 -82.5 q0 -50 -32.5 -82.5 q-32.5 -32.5 -85.5 -32.5 ZM117 662 q25 0 39.5 15.5 q14.5 15.5 14.5 39.5 q0 24 -14.5 39.5 q-14.5 15.5 -39.5 15.5 q-24 0 -38.5 -15.5 q-14.5 -15.5 -14.5 -39.5 q0 -24 14.5 -39.5 q14.5 -15.5 38.5 -15.5 Z" /><glyph glyph-name="s" unicode="s" d="M272 -16 q-109 0 -169.5 46 q-60.5 46 -63.5 127 l108 0 q2 -30 31 -55 q29 -25 95 -25 q56 0 88 22 q32 22 32 55 q0 30 -23.5 47.5 q-23.5 17.5 -79.5 23.5 l-53 5 q-83 9 -131.5 49 q-48.5 40 -48.5 108 q0 54 27 91 q27 37 74.5 57 q47.5 20 109.5 20 q96 0 155 -42.5 q59 -42.5 61 -124.5 l-107 0 q-2 31 -29 52 q-27 21 -80 21 q-50 0 -76.5 -20 q-26.5 -20 -26.5 -51 q0 -28 20 -44 q20 -16 65 -21 l53 -5 q91 -10 144.5 -50.5 q53.5 -40.5 53.5 -112.5 q0 -52 -29 -91 q-29 -39 -80.5 -60.5 q-51.5 -21.5 -119.5 -21.5 Z" /><glyph glyph-name="section" unicode="§" d="M286 -89 q-108 0 -168.5 46.5 q-60.5 46.5 -63.5 131.5 l108 0 q2 -33 31 -59 q29 -26 94 -26 q49 0 77 20.5 q28 20.5 28 55.5 q0 25 -19 41 q-19 16 -50 28 q-31 12 -67 23 q-36 11 -72 24.5 q-36 13.5 -66.5 32.5 q-30.5 19 -49 48 q-18.5 29 -18.5 71 q0 46 21 81 q21 35 55.5 57.5 q34.5 22.5 76.5 31.5 l94 -48 q-36 -1 -68 -16 q-32 -15 -51.5 -38.5 q-19.5 -23.5 -19.5 -50.5 q0 -31 21 -50 q21 -19 54.5 -32 q33.5 -13 71.5 -24 q35 -11 69 -23.5 q34 -12.5 62.5 -30.5 q28.5 -18 45.5 -45 q17 -27 17 -66 q0 -82 -55.5 -132.5 q-55.5 -50.5 -157.5 -50.5 ZM362 173 l-58 60 q65 14 96 45 q31 31 31 69 q0 29 -19.5 47 q-19.5 18 -52.5 30.5 q-33 12.5 -71 24.5 q-36 11 -72 24.5 q-36 13.5 -66 33.5 q-30 20 -48 49 q-18 29 -18 73 q0 48 25.5 85.5 q25.5 37.5 70.5 59 q45 21.5 103 21.5 q95 0 151 -43 q56 -43 58 -120 l-106 0 q-1 31 -26 50.5 q-25 19.5 -75 19.5 q-48 0 -70.5 -20.5 q-22.5 -20.5 -22.5 -50.5 q0 -28 19.5 -45.5 q19.5 -17.5 52 -29 q32.5 -11.5 69.5 -22.5 q36 -11 72.5 -23.5 q36.5 -12.5 67 -32 q30.5 -19.5 48.5 -49 q18 -29.5 18 -74.5 q0 -46 -21 -81.5 q-21 -35.5 -60.5 -60.5 q-39.5 -25 -95.5 -40 Z" /><glyph glyph-name="seven" unicode="7" d="M144 0 l291 620 l-8 11 l-384 0 l0 99 l511 0 l0 -112 l-286 -618 l-124 0 ZM43 514 l0 216 l98 0 l0 -216 l-98 0 Z" /><glyph glyph-name="six" unicode="6" d="M352 -20 q-80 0 -135 27.5 q-55 27.5 -88 76 q-33 48.5 -48 111.5 q-15 63 -15 133 l0 46 q0 176 88.5 269 q88.5 93 257.5 93 q38 0 68 -2 q30 -2 63 -6 l0 -100 q-33 3 -64.5 5.5 q-31.5 2.5 -71.5 2.5 q-87 0 -138 -31.5 q-51 -31.5 -72.5 -91.5 q-21.5 -60 -21.5 -146 l0 -56 l-28 -67 q1 78 30.5 129.5 q29.5 51.5 81 77 q51.5 25.5 119.5 25.5 q77 0 132 -31 q55 -31 83 -86 q28 -55 28 -127 q0 -74 -31 -131 q-31 -57 -91.5 -89 q-60.5 -32 -146.5 -32 ZM351 81 q51 0 86 19.5 q35 19.5 52.5 53 q17.5 33.5 17.5 77.5 q0 45 -17 78.5 q-17 33.5 -50.5 52.5 q-33.5 19 -82.5 19 q-47 0 -85 -17 q-38 -17 -59.5 -50.5 q-21.5 -33.5 -21.5 -83.5 q0 -41 17 -75 q17 -34 52.5 -54 q35.5 -20 90.5 -20 Z" /><glyph glyph-name="slash" unicode="/" d="M23 -60 l205 840 l114 0 l-205 -840 l-114 0 Z" /><glyph glyph-name="uni00AD" unicode="­" d="M53 229 l0 102 l326 0 l0 -102 l-326 0 Z" /><glyph glyph-name="sora" unicode="&#xe000;" d="M189 0 l-124 0 l299 463 l101 0 l298 -463 l-124 0 l-224 348 l-226 -348 ZM66 463 l0 78 l697 0 l0 -78 l-697 0 ZM364 510 l0 164 l101 0 l0 -164 l-101 0 ZM66 652 l0 78 l697 0 l0 -78 l-697 0 Z" /><glyph glyph-name="space" unicode=" " d="" /><glyph glyph-name="sterling" unicode="£" d="M119 0 l0 491 q0 119 69 183.5 q69 64.5 198 64.5 q23 0 54 -1.5 q31 -1.5 60 -3.5 q29 -2 48 -5 l0 -98 q-19 3 -49 5 q-30 2 -61 3.5 q-31 1.5 -54 1.5 q-52 0 -87.5 -16 q-35.5 -16 -53.5 -51 q-18 -35 -18 -90 l0 -484 l-106 0 ZM43 0 l0 92 l492 0 l0 -92 l-492 0 ZM49 315 l0 80 l424 0 l0 -80 l-424 0 ZM499 0 l0 184 l95 0 l0 -184 l-95 0 Z" /><glyph glyph-name="uni0336" unicode="&#x336;" d="M-36 311 l0 98 l373 0 l0 -98 l-373 0 Z" /><glyph glyph-name="uni0335" unicode="&#x335;" d="M-27 231 l0 72 l354 0 l0 -72 l-354 0 Z" /><glyph glyph-name="t" unicode="t" d="M307 -6 q-67 0 -113 18 q-46 18 -69.5 62 q-23.5 44 -23.5 119 l0 503 l111 0 l0 -513 q0 -42 22.5 -64.5 q22.5 -22.5 63.5 -22.5 l90 0 l0 -102 l-81 0 ZM12 452 l0 87 l376 0 l0 -87 l-376 0 Z" /><glyph glyph-name="thorn" unicode="þ" d="M86 -200 l0 930 l117 0 l0 -378 l-31 -36 q4 80 34 133.5 q30 53.5 80 80.5 q50 27 113 27 q57 0 102.5 -20.5 q45.5 -20.5 78 -58 q32.5 -37.5 49.5 -88 q17 -50.5 17 -110.5 l0 -21 q0 -60 -18 -110 q-18 -50 -52 -87 q-34 -37 -81 -57.5 q-47 -20.5 -104 -20.5 q-61 0 -112 25 q-51 25 -83.5 79.5 q-32.5 54.5 -36.5 142.5 l44 -74 l0 -357 l-117 0 ZM365 84 q49 0 86 24.5 q37 24.5 57.5 67 q20.5 42.5 20.5 96.5 q0 56 -21 97 q-21 41 -57.5 64 q-36.5 23 -85.5 23 q-44 0 -82 -19.5 q-38 -19.5 -61 -57 q-23 -37.5 -23 -90.5 l0 -43 q0 -51 23.5 -87 q23.5 -36 61.5 -55.5 q38 -19.5 81 -19.5 Z" /><glyph glyph-name="three" unicode="3" d="M303 -18 q-83 0 -142 31.5 q-59 31.5 -89.5 85 q-30.5 53.5 -30.5 117.5 l115 0 q0 -61 39.5 -97 q39.5 -36 107.5 -36 q45 0 77.5 16.5 q32.5 16.5 50.5 47 q18 30.5 18 71.5 q0 61 -39 99.5 q-39 38.5 -107 38.5 q-30 0 -52.5 -8 q-22.5 -8 -39.5 -20 l-57 99 l260 184 l-10 18 l-334 0 l0 101 l461 0 l0 -139 l-239 -166 l-74 5 q18 6 39.5 10 q21.5 4 48.5 4 q82 0 139.5 -29.5 q57.5 -29.5 88.5 -79.5 q31 -50 31 -112 l0 -13 q0 -61 -31 -113 q-31 -52 -89 -83.5 q-58 -31.5 -142 -31.5 Z" /><glyph glyph-name="tildecomb" unicode="&#x303;" d="M239 635 q-27 0 -45.5 8 q-18.5 8 -34 18 q-15.5 10 -31 17.5 q-15.5 7.5 -36.5 7.5 q-22 0 -40.5 -10.5 q-18.5 -10.5 -32.5 -27.5 l-19 79 q16 19 39.5 32 q23.5 13 55.5 13 q26 0 45 -7.5 q19 -7.5 34 -17.5 q15 -10 31 -18 q16 -8 36 -8 q23 0 41.5 10.5 q18.5 10.5 33.5 27.5 l18 -79 q-16 -18 -40 -31.5 q-24 -13.5 -55 -13.5 Z" /><glyph glyph-name="trademark" unicode="&#x2122;" d="M390 335 l0 395 l100 0 l111 -264 l7 0 l111 264 l100 0 l0 -395 l-75 0 l0 339 l17 -1 l-113 -269 l-90 0 l-114 269 l17 1 l0 -339 l-71 0 ZM139 335 l0 339 l78 0 l0 -339 l-78 0 ZM21 664 l0 66 l314 0 l0 -66 l-314 0 Z" /><glyph glyph-name="two" unicode="2" d="M71 0 l0 130 q0 45 13.5 77.5 q13.5 32.5 45.5 58.5 q32 26 86 50 l130 59 q49 22 75.5 55.5 q26.5 33.5 26.5 86.5 q0 61 -35 96.5 q-35 35.5 -100 35.5 q-64 0 -99.5 -35.5 q-35.5 -35.5 -35.5 -98.5 l-116 0 q0 65 27.5 118.5 q27.5 53.5 83.5 85.5 q56 32 140 32 q84 0 139.5 -31.5 q55.5 -31.5 83 -83 q27.5 -51.5 27.5 -112.5 l0 -14 q0 -80 -45.5 -134.5 q-45.5 -54.5 -128.5 -91.5 l-131 -59 q-40 -18 -55 -37 q-15 -19 -15 -50 l0 -78 l-30 42 l412 0 l0 -102 l-499 0 Z" /><glyph glyph-name="u" unicode="u" d="M271 -16 q-95 0 -146 61.5 q-51 61.5 -51 181.5 l0 312 l117 0 l0 -328 q0 -56 31 -88.5 q31 -32.5 84 -32.5 q54 0 88.5 34.5 q34.5 34.5 34.5 94.5 l0 320 l117 0 l0 -539 l-93 0 l0 230 l12 0 q0 -81 -21.5 -135.5 q-21.5 -54.5 -63 -82.5 q-41.5 -28 -104.5 -28 l-5 0 Z" /><glyph glyph-name="underscore" unicode="_" d="M0 -145 l0 88 l581 0 l0 -88 l-581 0 Z" /><glyph glyph-name="v" unicode="v" d="M197 0 l-176 539 l122 0 l170 -539 l-116 0 ZM230 0 l0 95 l131 0 l0 -95 l-131 0 ZM280 0 l148 539 l114 0 l-153 -539 l-109 0 Z" /><glyph glyph-name="w" unicode="w" d="M257 0 l105 521 l145 0 l123 -521 l-96 0 l-124 518 l45 0 l-108 -518 l-90 0 ZM211 0 l0 95 l111 0 l0 -95 l-111 0 ZM173 0 l-150 539 l114 0 l143 -539 l-107 0 ZM561 0 l0 95 l111 0 l0 -95 l-111 0 ZM606 0 l126 539 l107 0 l-132 -539 l-101 0 Z" /><glyph glyph-name="x" unicode="x" d="M23 0 l184 285 l-4 -21 l-172 275 l128 0 l119 -196 l15 0 l112 196 l120 0 l-163 -271 l3 19 l193 -287 l-128 0 l-140 211 l-14 0 l-133 -211 l-120 0 Z" /><glyph glyph-name="y" unicode="y" d="M60 -211 l0 103 l89 0 q31 0 53 7.5 q22 7.5 36 26 q14 18.5 23 49.5 l157 564 l113 0 l-170 -592 q-16 -56 -44.5 -91 q-28.5 -35 -72 -51 q-43.5 -16 -104.5 -16 l-80 0 ZM226 12 l0 95 l116 0 l0 -95 l-116 0 ZM197 12 l-183 527 l119 0 l175 -527 l-111 0 Z" /><glyph glyph-name="yen" unicode="¥" d="M238 305 l-219 425 l124 0 l174 -349 l-36 8 l99 0 l-39 -8 l162 349 l116 0 l-204 -425 l-177 0 ZM272 0 l0 326 l110 0 l0 -326 l-110 0 ZM59 153 l0 71 l534 0 l0 -71 l-534 0 ZM59 305 l0 71 l534 0 l0 -71 l-534 0 Z" /><glyph glyph-name="z" unicode="z" d="M51 0 l0 109 l280 335 l0 -16 l-19 26 l15 -7 l-278 0 l0 92 l397 0 l0 -109 l-280 -335 l0 14 l20 -27 l-15 10 l288 0 l0 -92 l-408 0 Z" /><glyph glyph-name="zero" unicode="0" d="M375 -18 q-83 0 -142 28.5 q-59 28.5 -95.5 77.5 q-36.5 49 -53.5 113.5 q-17 64.5 -17 136.5 l0 55 q0 100 32.5 181 q32.5 81 101 129 q68.5 48 174.5 48 q107 0 174.5 -48 q67.5 -48 100.5 -129 q33 -81 33 -181 l0 -55 q0 -72 -17 -136.5 q-17 -64.5 -53.5 -113.5 q-36.5 -49 -95 -77.5 q-58.5 -28.5 -142.5 -28.5 ZM375 91 q97 0 142.5 65.5 q45.5 65.5 45.5 207.5 q0 149 -46.5 213.5 q-46.5 64.5 -141.5 64.5 q-95 0 -141.5 -64.5 q-46.5 -64.5 -46.5 -211.5 q0 -143 46 -209 q46 -66 142 -66 Z" /></font>
</defs>
</svg>
