<?xml version="1.0" standalone="no"?><!DOCTYPE svg PUBLIC "-//W3C//DTD SVG 1.1//EN" "http://www.w3.org/Graphics/SVG/1.1/DTD/svg11.dtd" ><svg xmlns="http://www.w3.org/2000/svg"><metadata></metadata><defs><font id="2.000;NONE;Sora-SemiBold" horiz-adv-x="1310"><font-face font-family="Sora SemiBold" font-weight="600" font-stretch="normal" units-per-em="1000" panose-1="0 0 0 0 0 0 0 0 0 0" ascent="970" descent="-290" x-height="0" bbox="-134 -299 1270 1192" underline-thickness="50" underline-position="-100" unicode-range="U+0000-fb02" /><missing-glyph horiz-adv-x="864" d="M372 244 l0 144 l55 0 q40 0 60 23 q20 23 20 57 q0 35 -20 57 q-20 22 -54 22 q-36 0 -56.5 -23.5 q-20.5 -23.5 -20.5 -58.5 l-92 0 q0 46 20 83.5 q20 37.5 58.5 59.5 q38.5 22 92.5 22 q51 0 88 -20 q37 -20 57 -55 q20 -35 20 -79 l0 -8 q0 -44 -20.5 -78 q-20.5 -34 -59 -53.5 q-38.5 -19.5 -94.5 -21.5 l33 35 l-1 -106 l-86 0 ZM367 100 l0 90 l96 0 l0 -90 l-96 0 ZM88 -48 l0 830 l689 0 l0 -830 l-689 0 ZM151 12 l563 0 l0 710 l-563 0 l0 -710 Z" /><glyph glyph-name="CR" unicode="" d="" /><glyph glyph-name="A" unicode="A" d="M18 0 l249 730 l232 0 l256 -730 l-146 0 l-217 633 l51 -22 l-125 0 l52 22 l-210 -633 l-142 0 ZM192 194 l45 120 l296 0 l44 -120 l-385 0 Z" /><glyph glyph-name="AE" unicode="Æ" d="M2 0 l289 730 l205 0 l0 -119 l-153 0 l51 22 l-250 -633 l-142 0 ZM198 213 l46 121 l252 0 l0 -121 l-298 0 ZM475 0 l0 730 l138 0 l0 -730 l-138 0 ZM592 0 l0 120 l331 0 l0 -120 l-331 0 ZM592 311 l0 120 l306 0 l0 -120 l-306 0 ZM592 610 l0 120 l323 0 l0 -120 l-323 0 Z" /><glyph glyph-name="B" unicode="B" d="M209 -5 l0 114 l183 0 q50 0 76 27.5 q26 27.5 26 75.5 q0 48 -26 74.5 q-26 26.5 -76 26.5 l-183 0 l0 87 l173 0 q73 0 130.5 -17.5 q57.5 -17.5 90 -58.5 q32.5 -41 32.5 -110 l0 -14 q0 -65 -28.5 -110.5 q-28.5 -45.5 -85 -70 q-56.5 -24.5 -139.5 -24.5 l-173 0 ZM90 -5 l0 740 l139 0 l0 -740 l-139 0 ZM209 336 l0 87 l156 0 q51 0 75 27 q24 27 24 72 q0 45 -24 72 q-24 27 -75 27 l-156 0 l0 114 l143 0 q124 0 188.5 -52 q64.5 -52 64.5 -149 l0 -14 q0 -68 -32.5 -108.5 q-32.5 -40.5 -89.5 -58 q-57 -17.5 -131 -17.5 l-143 0 Z" /><glyph glyph-name="C" unicode="C" d="M419 -19 q-99 0 -170 35 q-71 35 -115.5 91 q-44.5 56 -65.5 122 q-21 66 -21 127 l0 22 q0 68 21.5 134 q21.5 66 66.5 120 q45 54 114.5 86.5 q69.5 32.5 164.5 32.5 q99 0 172.5 -35.5 q73.5 -35.5 117.5 -100 q44 -64.5 53 -150.5 l-143 0 q-8 50 -35.5 84.5 q-27.5 34.5 -69.5 52 q-42 17.5 -95 17.5 q-54 0 -96 -18.5 q-42 -18.5 -70 -52.5 q-28 -34 -42.5 -80 q-14.5 -46 -14.5 -102 q0 -54 14.5 -100 q14.5 -46 43.5 -80.5 q29 -34.5 71.5 -53.5 q42.5 -19 98.5 -19 q82 0 138.5 40.5 q56.5 40.5 68.5 113.5 l143 0 q-10 -78 -53 -143 q-43 -65 -118 -104 q-75 -39 -179 -39 Z" /><glyph glyph-name="D" unicode="D" d="M212 -4 l0 132 l151 0 q57 0 101.5 17.5 q44.5 17.5 75.5 49.5 q31 32 47.5 75.5 q16.5 43.5 16.5 96.5 q0 55 -16.5 98.5 q-16.5 43.5 -47.5 74.5 q-31 31 -75.5 47 q-44.5 16 -101.5 16 l-151 0 l0 132 l142 0 q99 0 173 -29 q74 -29 123 -79.5 q49 -50.5 73.5 -115 q24.5 -64.5 24.5 -133.5 l0 -22 q0 -66 -24.5 -130 q-24.5 -64 -73.5 -116 q-49 -52 -123 -83 q-74 -31 -173 -31 l-142 0 ZM90 -4 l0 739 l142 0 l0 -739 l-142 0 Z" /><glyph glyph-name="E" unicode="E" d="M90 0 l0 730 l139 0 l0 -730 l-139 0 ZM209 0 l0 120 l331 0 l0 -120 l-331 0 ZM209 311 l0 120 l305 0 l0 -120 l-305 0 ZM209 610 l0 120 l323 0 l0 -120 l-323 0 Z" /><glyph glyph-name="Eng" unicode="&#x14a;" d="M439 -234 l0 123 l113 0 q45 0 69 24 q24 24 24 77 l0 51 l32 -26 l-141 0 l-300 597 l-34 0 l20 18 l0 -630 l-132 0 l0 730 l233 0 l303 -602 l37 0 l-20 -18 l0 620 l134 0 l0 -730 q0 -76 -24.5 -128 q-24.5 -52 -76.5 -79 q-52 -27 -136 -27 l-101 0 Z" /><glyph glyph-name="F" unicode="F" d="M90 0 l0 730 l142 0 l0 -730 l-142 0 ZM212 304 l0 120 l292 1 l0 -120 l-292 -1 ZM212 610 l0 120 l306 0 l0 -120 l-306 0 Z" /><glyph glyph-name="G" unicode="G" d="M430 -19 q-94 0 -165.5 31.5 q-71.5 31.5 -120 85 q-48.5 53.5 -73 121 q-24.5 67.5 -24.5 140.5 l0 22 q0 69 24 135 q24 66 70.5 119 q46.5 53 115 84.5 q68.5 31.5 157.5 31.5 q96 0 170 -35.5 q74 -35.5 119 -99 q45 -63.5 53 -147.5 l-143 0 q-7 47 -35 80.5 q-28 33.5 -70.5 51.5 q-42.5 18 -93.5 18 q-51 0 -92.5 -18 q-41.5 -18 -70.5 -51 q-29 -33 -44.5 -79 q-15.5 -46 -15.5 -102 q0 -61 17 -109 q17 -48 48 -81.5 q31 -33.5 75 -51 q44 -17.5 99 -17.5 q73 0 128 30.5 q55 30.5 80 79.5 l-25 -115 l0 188 l131 0 l0 -162 q-47 -71 -128 -110.5 q-81 -39.5 -186 -39.5 ZM407 265 l0 106 l398 0 l0 -106 l-398 0 Z" /><glyph glyph-name="uni1E9E" unicode="&#x1e9e;" d="M334 -18 q-93 0 -159 30 q-66 30 -101 84 q-35 54 -35 125 l139 0 q0 -27 15.5 -54.5 q15.5 -27.5 50 -45 q34.5 -17.5 90.5 -17.5 q51 0 84.5 15 q33.5 15 50.5 40 q17 25 17 55 q0 36 -31.5 60.5 q-31.5 24.5 -100.5 30.5 l-61 5 q-67 6 -118.5 32 q-51.5 26 -80 71.5 q-28.5 45.5 -28.5 110.5 q0 70 32 120 q32 50 90.5 77.5 q58.5 27.5 136.5 27.5 q82 0 141.5 -28 q59.5 -28 92 -80 q32.5 -52 32.5 -124 l-139 0 q0 29 -14.5 53.5 q-14.5 24.5 -42.5 40.5 q-28 16 -70 16 q-40 0 -67 -14 q-27 -14 -40 -37.5 q-13 -23.5 -13 -51.5 q0 -34 24 -59 q24 -25 77 -29 l61 -6 q78 -7 136 -33.5 q58 -26.5 90 -72.5 q32 -46 32 -110 q0 -69 -35 -121.5 q-35 -52.5 -100 -81.5 q-65 -29 -156 -29 ZM982 -18 q-94 0 -159 30 q-65 30 -99.5 84 q-34.5 54 -34.5 125 l139 0 q0 -27 15 -54.5 q15 -27.5 48.5 -45 q33.5 -17.5 90.5 -17.5 q50 0 83 15 q33 15 49.5 40 q16.5 25 16.5 55 q0 37 -32 61 q-32 24 -100 30 l-63 5 q-67 6 -118.5 32 q-51.5 26 -80 72 q-28.5 46 -28.5 110 q0 70 32.5 120 q32.5 50 91 77.5 q58.5 27.5 137.5 27.5 q82 0 141.5 -28 q59.5 -28 92 -80 q32.5 -52 32.5 -124 l-139 0 q0 29 -14.5 53.5 q-14.5 24.5 -42.5 40.5 q-28 16 -70 16 q-41 0 -68 -14 q-27 -14 -40.5 -37.5 q-13.5 -23.5 -13.5 -51.5 q0 -34 24 -59 q24 -25 77 -29 l63 -6 q77 -6 135 -33 q58 -27 90.5 -72.5 q32.5 -45.5 32.5 -110.5 q0 -69 -34.5 -121.5 q-34.5 -52.5 -99 -81.5 q-64.5 -29 -154.5 -29 Z" /><glyph glyph-name="H" unicode="H" d="M569 0 l0 730 l142 0 l0 -730 l-142 0 ZM90 0 l0 730 l142 0 l0 -730 l-142 0 ZM206 303 l0 125 l389 0 l0 -125 l-389 0 Z" /><glyph glyph-name="Hbar" unicode="&#x126;" d="M34 545 l0 102 l734 0 l0 -102 l-734 0 ZM569 0 l0 730 l142 0 l0 -730 l-142 0 ZM90 0 l0 730 l142 0 l0 -730 l-142 0 ZM206 303 l0 125 l389 0 l0 -125 l-389 0 Z" /><glyph glyph-name="I" unicode="I" d="M92 0 l0 730 l142 0 l0 -730 l-142 0 Z" /><glyph glyph-name="J" unicode="J" d="M300 -19 q-79 0 -139 31 q-60 31 -93 91 q-33 60 -33 147 l0 32 l141 0 l0 -44 q0 -58 34 -91.5 q34 -33.5 89 -33.5 q56 0 89.5 33.5 q33.5 33.5 33.5 91.5 l0 387 l142 0 l0 -375 q0 -87 -33 -147 q-33 -60 -92 -91 q-59 -31 -139 -31 ZM124 605 l0 125 l440 0 l0 -125 l-440 0 Z" /><glyph glyph-name="K" unicode="K" d="M563 0 l-267 341 l-103 0 l317 389 l163 0 l-286 -350 l-4 70 l353 -450 l-173 0 ZM90 0 l0 730 l142 0 l0 -730 l-142 0 Z" /><glyph glyph-name="L" unicode="L" d="M90 0 l0 730 l142 0 l0 -730 l-142 0 ZM212 0 l0 125 l315 0 l0 -125 l-315 0 Z" /><glyph glyph-name="Lslash" unicode="&#x141;" d="M167 287 l0 115 l221 128 l0 -115 l-221 -128 ZM24 209 l0 115 l113 65 l0 -115 l-113 -65 ZM90 0 l0 730 l142 0 l0 -730 l-142 0 ZM212 0 l0 125 l315 0 l0 -125 l-315 0 Z" /><glyph glyph-name="M" unicode="M" d="M90 0 l0 730 l194 0 l183 -436 l18 0 l182 436 l197 0 l0 -730 l-141 0 l0 623 l18 -2 l-197 -472 l-145 0 l-198 472 l19 2 l0 -623 l-130 0 Z" /><glyph glyph-name="N" unicode="N" d="M90 0 l0 730 l233 0 l307 -612 l33 0 l-20 -18 l0 630 l134 0 l0 -730 l-234 0 l-307 612 l-34 0 l20 18 l0 -630 l-132 0 Z" /><glyph glyph-name="NULL" unicode="" d="" /><glyph glyph-name="O" unicode="O" d="M433 -19 q-99 0 -171.5 35 q-72.5 35 -120 91.5 q-47.5 56.5 -71 122 q-23.5 65.5 -23.5 126.5 l0 22 q0 67 24 133.5 q24 66.5 72.5 120.5 q48.5 54 120.5 86.5 q72 32.5 169 32.5 q96 0 168 -32.5 q72 -32.5 120.5 -86.5 q48.5 -54 72.5 -120.5 q24 -66.5 24 -133.5 l0 -22 q0 -61 -23.5 -126.5 q-23.5 -65.5 -71 -122 q-47.5 -56.5 -120 -91.5 q-72.5 -35 -170.5 -35 ZM433 113 q56 0 100.5 20 q44.5 20 76 55.5 q31.5 35.5 48 81 q16.5 45.5 16.5 96.5 q0 55 -16.5 101 q-16.5 46 -48 80 q-31.5 34 -76.5 53 q-45 19 -100 19 q-56 0 -101 -19 q-45 -19 -76.5 -53 q-31.5 -34 -48 -80 q-16.5 -46 -16.5 -101 q0 -51 16.5 -96.5 q16.5 -45.5 48 -81 q31.5 -35.5 76.5 -55.5 q45 -20 101 -20 Z" /><glyph glyph-name="OE" unicode="&#x152;" d="M436 -21 q-81 0 -144 23 q-63 23 -109.5 62.5 q-46.5 39.5 -76.5 88.5 q-30 49 -44.5 101 q-14.5 52 -14.5 101 l0 22 q0 68 24 134 q24 66 72 120.5 q48 54.5 121.5 87 q73.5 32.5 171.5 32.5 q40 0 74.5 -5.5 q34.5 -5.5 60.5 -15.5 l111 0 l0 -730 l-111 0 q-25 -9 -59 -15 q-34 -6 -76 -6 ZM436 110 q34 0 69 7.5 q35 7.5 60 20.5 l-22 -31 l0 514 l22 -28 q-25 14 -59.5 20.5 q-34.5 6.5 -69.5 6.5 q-75 0 -130 -33.5 q-55 -33.5 -84.5 -91 q-29.5 -57.5 -29.5 -130.5 q0 -51 16.5 -97.5 q16.5 -46.5 48.5 -82 q32 -35.5 77 -55.5 q45 -20 102 -20 ZM662 0 l0 120 l331 0 l0 -120 l-331 0 ZM662 311 l0 120 l306 0 l0 -120 l-306 0 ZM662 610 l0 120 l323 0 l0 -120 l-323 0 Z" /><glyph glyph-name="Oslash" unicode="Ø" d="M88 -61 l572 842 l116 0 l-572 -842 l-116 0 ZM433 -19 q-99 0 -171.5 35 q-72.5 35 -120 91.5 q-47.5 56.5 -71 122 q-23.5 65.5 -23.5 126.5 l0 22 q0 67 24 133.5 q24 66.5 72.5 120.5 q48.5 54 120.5 86.5 q72 32.5 169 32.5 q96 0 168 -32.5 q72 -32.5 120.5 -86.5 q48.5 -54 72.5 -120.5 q24 -66.5 24 -133.5 l0 -22 q0 -61 -23.5 -126.5 q-23.5 -65.5 -71 -122 q-47.5 -56.5 -120 -91.5 q-72.5 -35 -170.5 -35 ZM433 113 q56 0 100.5 20 q44.5 20 76 55.5 q31.5 35.5 48 81 q16.5 45.5 16.5 96.5 q0 55 -16.5 101 q-16.5 46 -48 80 q-31.5 34 -76.5 53 q-45 19 -100 19 q-56 0 -101 -19 q-45 -19 -76.5 -53 q-31.5 -34 -48 -80 q-16.5 -46 -16.5 -101 q0 -51 16.5 -96.5 q16.5 -45.5 48 -81 q31.5 -35.5 76.5 -55.5 q45 -20 101 -20 Z" /><glyph glyph-name="P" unicode="P" d="M212 224 l0 123 l142 0 q43 0 72.5 17 q29.5 17 45 47 q15.5 30 15.5 69 q0 39 -15.5 69 q-15.5 30 -45 46.5 q-29.5 16.5 -72.5 16.5 l-142 0 l0 123 l130 0 q92 0 156.5 -30 q64.5 -30 98.5 -85.5 q34 -55.5 34 -131.5 l0 -16 q0 -76 -34 -131.5 q-34 -55.5 -98.5 -86 q-64.5 -30.5 -156.5 -30.5 l-130 0 ZM90 0 l0 735 l142 0 l0 -735 l-142 0 Z" /><glyph glyph-name="Q" unicode="Q" d="M573 -215 q-63 0 -109.5 15.5 q-46.5 15.5 -72.5 56 q-26 40.5 -26 114.5 l0 104 l132 0 l0 -113 q0 -31 17.5 -47.5 q17.5 -16.5 47.5 -16.5 l114 0 l0 -113 l-103 0 ZM433 -19 q-99 0 -171.5 35 q-72.5 35 -120 91.5 q-47.5 56.5 -71 122 q-23.5 65.5 -23.5 126.5 l0 22 q0 67 24 133.5 q24 66.5 72.5 120.5 q48.5 54 120.5 86.5 q72 32.5 169 32.5 q96 0 168 -32.5 q72 -32.5 120.5 -86.5 q48.5 -54 72.5 -120.5 q24 -66.5 24 -133.5 l0 -22 q0 -61 -23.5 -126.5 q-23.5 -65.5 -71 -122 q-47.5 -56.5 -120 -91.5 q-72.5 -35 -170.5 -35 ZM433 113 q56 0 100.5 20 q44.5 20 76 55.5 q31.5 35.5 48 81 q16.5 45.5 16.5 96.5 q0 55 -16.5 101 q-16.5 46 -48 80 q-31.5 34 -76.5 53 q-45 19 -100 19 q-56 0 -101 -19 q-45 -19 -76.5 -53 q-31.5 -34 -48 -80 q-16.5 -46 -16.5 -101 q0 -51 16.5 -96.5 q16.5 -45.5 48 -81 q31.5 -35.5 76.5 -55.5 q45 -20 101 -20 Z" /><glyph glyph-name="R" unicode="R" d="M90 0 l0 735 l142 0 l0 -735 l-142 0 ZM536 0 l-224 318 l159 0 l231 -318 l-166 0 ZM190 244 l0 115 l186 0 q39 0 67.5 16 q28.5 16 44.5 45 q16 29 16 66 q0 38 -16 67 q-16 29 -44.5 45 q-28.5 16 -67.5 16 l-186 0 l0 121 l171 0 q88 0 152.5 -26 q64.5 -26 99.5 -79 q35 -53 35 -133 l0 -16 q0 -81 -35.5 -133 q-35.5 -52 -99.5 -78 q-64 -26 -152 -26 l-171 0 Z" /><glyph glyph-name="S" unicode="S" d="M339 -19 q-97 0 -163.5 31 q-66.5 31 -101.5 85.5 q-35 54.5 -35 123.5 l139 0 q0 -29 16 -56.5 q16 -27.5 51.5 -44.5 q35.5 -17 93.5 -17 q52 0 87 15 q35 15 52 39.5 q17 24.5 17 55.5 q0 39 -33 62.5 q-33 23.5 -102 29.5 l-64 5 q-105 9 -167.5 65.5 q-62.5 56.5 -62.5 149.5 q0 70 33 120.5 q33 50.5 92.5 78 q59.5 27.5 139.5 27.5 q83 0 143 -29 q60 -29 93 -81.5 q33 -52.5 33 -123.5 l-139 0 q0 30 -14.5 55.5 q-14.5 25.5 -43 41 q-28.5 15.5 -72.5 15.5 q-42 0 -70 -14 q-28 -14 -42 -38 q-14 -24 -14 -52 q0 -34 25 -59.5 q25 -25.5 79 -29.5 l64 -6 q78 -6 137 -33 q59 -27 91.5 -73 q32.5 -46 32.5 -111 q0 -69 -36 -121.5 q-36 -52.5 -102.5 -81.5 q-66.5 -29 -156.5 -29 Z" /><glyph glyph-name="T" unicode="T" d="M234 0 l0 625 l142 0 l0 -625 l-142 0 ZM23 605 l0 125 l564 0 l0 -125 l-564 0 Z" /><glyph glyph-name="Tbar" unicode="&#x166;" d="M86 303 l0 102 l438 0 l0 -102 l-438 0 ZM234 0 l0 625 l142 0 l0 -625 l-142 0 ZM23 605 l0 125 l564 0 l0 -125 l-564 0 Z" /><glyph glyph-name="Thorn" unicode="Þ" d="M212 122 l0 124 l133 0 q42 0 70 15.5 q28 15.5 42 43.5 q14 28 14 66 q0 39 -14 67 q-14 28 -42 43.5 q-28 15.5 -70 15.5 l-133 0 l0 123 l124 0 q89 0 151.5 -29.5 q62.5 -29.5 95 -84 q32.5 -54.5 32.5 -127.5 l0 -15 q0 -73 -32.5 -127.5 q-32.5 -54.5 -95 -84.5 q-62.5 -30 -151.5 -30 l-124 0 ZM90 0 l0 730 l142 0 l0 -730 l-142 0 Z" /><glyph glyph-name="U" unicode="U" d="M391 -19 q-102 0 -172 39 q-70 39 -106.5 109.5 q-36.5 70.5 -36.5 165.5 l0 435 l142 0 l0 -443 q0 -52 20 -91.5 q20 -39.5 58.5 -61 q38.5 -21.5 94.5 -21.5 q55 0 93.5 21.5 q38.5 21.5 58 60.5 q19.5 39 19.5 92 l0 443 l142 0 l0 -435 q0 -95 -35.5 -165.5 q-35.5 -70.5 -105.5 -109.5 q-70 -39 -172 -39 Z" /><glyph glyph-name="V" unicode="V" d="M254 0 l-233 730 l147 0 l193 -632 l-42 20 l108 0 l-43 -20 l178 632 l142 0 l-216 -730 l-234 0 Z" /><glyph glyph-name="W" unicode="W" d="M210 0 l-186 730 l147 0 l151 -635 l-39 23 l100 0 l-44 -23 l119 607 l122 0 l-148 -702 l-222 0 ZM646 0 l-161 702 l127 0 l137 -607 l-43 23 l98 0 l-38 -23 l133 635 l139 0 l-166 -730 l-226 0 Z" /><glyph glyph-name="X" unicode="X" d="M11 0 l257 389 l1 -17 l-236 358 l158 0 l158 -245 l21 0 l157 245 l152 0 l-239 -361 l-2 17 l263 -386 l-157 0 l-184 274 l-21 0 l-176 -274 l-152 0 Z" /><glyph glyph-name="Y" unicode="Y" d="M230 279 l-220 451 l146 0 l168 -353 l-32 10 l95 0 l-34 -10 l153 353 l138 0 l-203 -451 l-211 0 ZM266 0 l0 301 l139 0 l0 -301 l-139 0 Z" /><glyph glyph-name="Z" unicode="Z" d="M46 0 l0 122 l403 488 l2 -21 l-30 40 l20 -16 l-383 0 l0 117 l548 0 l0 -122 l-404 -487 l-3 23 l33 -45 l-24 18 l403 0 l0 -117 l-565 0 Z" /><glyph glyph-name="a" unicode="a" d="M408 0 l0 161 l-23 0 l0 179 q0 47 -23 70 q-23 23 -71 23 q-25 0 -60 -1 q-35 -1 -70.5 -2.5 q-35.5 -1.5 -63.5 -3.5 l0 118 q23 2 52 4 q29 2 59.5 2.5 q30.5 0.5 57.5 0.5 q84 0 139.5 -22 q55.5 -22 84 -69 q28.5 -47 28.5 -123 l0 -337 l-110 0 ZM233 -14 q-59 0 -103.5 21 q-44.5 21 -69 60 q-24.5 39 -24.5 94 q0 60 29.5 98 q29.5 38 83 57 q53.5 19 125.5 19 l126 0 l0 -83 l-128 0 q-48 0 -73.5 -23.5 q-25.5 -23.5 -25.5 -60.5 q0 -37 25.5 -60 q25.5 -23 73.5 -23 q29 0 53.5 10.5 q24.5 10.5 41 36 q16.5 25.5 18.5 69.5 l34 -39 q-5 -57 -27.5 -96 q-22.5 -39 -62 -59.5 q-39.5 -20.5 -96.5 -20.5 Z" /><glyph glyph-name="acutecomb" unicode="&#x301;" d="M0 612 l89 205 l144 0 l-114 -205 l-119 0 Z" /><glyph glyph-name="ae" unicode="æ" d="M660 -19 q-54 0 -96 15 q-42 15 -72.5 40 q-30.5 25 -50 57.5 q-19.5 32.5 -30.5 69.5 l39 0 q-5 -58 -33.5 -97.5 q-28.5 -39.5 -75 -59.5 q-46.5 -20 -105.5 -20 q-60 0 -105 20.5 q-45 20.5 -70 60 q-25 39.5 -25 94.5 q0 59 29.5 97.5 q29.5 38.5 83 57 q53.5 18.5 125.5 18.5 l126 0 l0 -83 l-128 0 q-48 0 -73.5 -23 q-25.5 -23 -25.5 -61 q0 -37 25.5 -59.5 q25.5 -22.5 73.5 -22.5 q29 0 54 11 q25 11 41.5 36.5 q16.5 25.5 17.5 70.5 l0 137 q0 46 -23 69.5 q-23 23.5 -70 23.5 q-25 0 -60 -1 q-35 -1 -71 -2.5 q-36 -1.5 -64 -3.5 l0 118 q23 2 52 3.5 q29 1.5 59 2.5 q30 1 57 1 q82 0 133 -22.5 q51 -22.5 75 -69 q24 -46.5 25 -119.5 l-89 0 q10 60 39 110 q29 50 80 80 q51 30 127 30 q87 0 145.5 -38.5 q58.5 -38.5 89 -101 q30.5 -62.5 30.5 -133.5 l0 -49 l-423 0 l0 83 l335 0 l-42 -40 q0 52 -15.5 88.5 q-15.5 36.5 -46 55.5 q-30.5 19 -75.5 19 q-46 0 -78 -21 q-32 -21 -48 -60 q-16 -39 -16 -93 q0 -51 15.5 -90 q15.5 -39 48.5 -61 q33 -22 84 -22 q50 0 82 20 q32 20 41 49 l128 0 q-11 -55 -45.5 -97 q-34.5 -42 -86.5 -65 q-52 -23 -118 -23 Z" /><glyph glyph-name="ampersand" unicode="&amp;" d="M534 0 l-286 308 q-46 50 -72.5 87 q-26.5 37 -38 71 q-11.5 34 -11.5 74 q0 62 26 106.5 q26 44.5 81.5 68.5 q55.5 24 143.5 24 q35 0 74.5 -3 q39.5 -3 69.5 -8 l0 -116 q-20 3 -50 5.5 q-30 2.5 -59.5 4 q-29.5 1.5 -48.5 1.5 q-63 0 -85.5 -23 q-22.5 -23 -22.5 -66 q0 -38 18 -71.5 q18 -33.5 57 -76.5 l360 -386 l-156 0 ZM292 -20 q-80 0 -139.5 31 q-59.5 31 -93 84 q-33.5 53 -33.5 118 l0 14 q0 72 41 128.5 q41 56.5 104 87.5 l60 -78 q-32 -19 -54 -55.5 q-22 -36.5 -22 -83.5 q0 -40 17.5 -69.5 q17.5 -29.5 49.5 -45.5 q32 -16 76 -16 q62 0 111.5 34 q49.5 34 78 104.5 q28.5 70.5 28.5 180.5 l122 0 q0 -104 -26 -184.5 q-26 -80.5 -73 -136 q-47 -55.5 -110 -84.5 q-63 -29 -137 -29 ZM415 396 l0 103 l277 0 l0 -103 l-277 0 Z" /><glyph glyph-name="asciicircum" unicode="^" d="M55 310 l164 423 l166 0 l162 -423 l-116 0 l-116 323 l-24 0 l-118 -323 l-118 0 Z" /><glyph glyph-name="asciitilde" unicode="~" d="M364 223 q-36 0 -64 13.5 q-28 13.5 -51.5 31 q-23.5 17.5 -44.5 31 q-21 13.5 -43 13.5 q-20 0 -35 -15 q-15 -15 -22 -51 l-84 -1 q3 59 24.5 97.5 q21.5 38.5 53.5 57.5 q32 19 66 19 q36 0 64 -13.5 q28 -13.5 51.5 -30.5 q23.5 -17 44.5 -30.5 q21 -13.5 42 -13.5 q21 0 36 15 q15 15 21 51 l84 0 q-2 -60 -24 -98.5 q-22 -38.5 -53.5 -57 q-31.5 -18.5 -65.5 -18.5 Z" /><glyph glyph-name="asterisk" unicode="*" d="M473 367 l-152 110 l0 108 l152 110 l55 -97 l-125 -52 l0 -30 l125 -52 l-55 -97 ZM326 782 l-19 -187 l-94 -54 l-171 77 l56 96 l108 -82 l26 15 l-18 134 l112 1 ZM42 444 l171 77 l94 -54 l19 -187 l-111 2 l17 133 l-26 15 l-108 -81 l-56 95 Z" /><glyph glyph-name="at" unicode="@" d="M566 -245 q-110 0 -203.5 35 q-93.5 35 -162.5 100 q-69 65 -107 156.5 q-38 91.5 -38 204.5 q0 110 36.5 201.5 q36.5 91.5 104.5 158 q68 66.5 163 103 q95 36.5 212 36.5 q102 0 191.5 -29 q89.5 -29 158 -85.5 q68.5 -56.5 107.5 -139.5 q39 -83 39 -192 q0 -88 -26.5 -156 q-26.5 -68 -76 -107.5 q-49.5 -39.5 -119.5 -39.5 q-49 0 -85.5 20.5 q-36.5 20.5 -56.5 58 q-20 37.5 -20 87.5 l0 57 l32 0 q-3 -71 -29 -119 q-26 -48 -69.5 -72.5 q-43.5 -24.5 -97.5 -24.5 q-62 0 -111.5 30 q-49.5 30 -78.5 83.5 q-29 53.5 -29 122.5 l0 16 q0 70 28.5 122 q28.5 52 77.5 80.5 q49 28.5 111 28.5 q57 0 101 -25 q44 -25 70.5 -71.5 q26.5 -46.5 29.5 -111.5 l-26 0 l0 191 l102 0 l0 -300 q0 -23 7 -38 q7 -15 20 -23 q13 -8 30 -8 q31 0 54 24 q23 24 36.5 67.5 q13.5 43.5 13.5 103.5 q0 89 -30 154 q-30 65 -83.5 107.5 q-53.5 42.5 -123 63 q-69.5 20.5 -146.5 20.5 q-94 0 -169 -28.5 q-75 -28.5 -127.5 -81 q-52.5 -52.5 -80.5 -125 q-28 -72.5 -28 -160.5 q0 -118 51 -205.5 q51 -87.5 141 -135 q90 -47.5 207 -47.5 q33 0 67 4 q34 4 63 10 l0 -108 q-29 -6 -63 -9.5 q-34 -3.5 -67 -3.5 ZM544 111 q34 0 62.5 15.5 q28.5 15.5 45 46 q16.5 30.5 16.5 72.5 l0 22 q0 40 -17 66.5 q-17 26.5 -45 40.5 q-28 14 -62 14 q-38 0 -66 -17 q-28 -17 -43 -47.5 q-15 -30.5 -15 -71.5 q0 -40 15 -72 q15 -32 42.5 -50.5 q27.5 -18.5 66.5 -18.5 Z" /><glyph glyph-name="b" unicode="b" d="M398 -18 q-67 0 -118 28.5 q-51 28.5 -80 83.5 q-29 55 -32 133 l21 0 l0 -227 l-110 0 l0 730 l139 0 l0 -365 l-37 -57 q4 84 33.5 140 q29.5 56 79.5 84 q50 28 113 28 q56 0 102 -21 q46 -21 79 -58.5 q33 -37.5 50.5 -87.5 q17.5 -50 17.5 -109 l0 -21 q0 -59 -18 -110 q-18 -51 -52 -89.5 q-34 -38.5 -81.5 -60 q-47.5 -21.5 -106.5 -21.5 ZM367 99 q45 0 78.5 22.5 q33.5 22.5 52.5 61.5 q19 39 19 90 q0 52 -19 90 q-19 38 -52.5 59 q-33.5 21 -78.5 21 q-41 0 -75.5 -18 q-34.5 -18 -56 -53 q-21.5 -35 -21.5 -84 l0 -40 q0 -47 22 -80 q22 -33 57 -51 q35 -18 74 -18 Z" /><glyph glyph-name="backslash" unicode="\" d="M235 -60 l-221 840 l138 0 l220 -840 l-137 0 Z" /><glyph glyph-name="bar" unicode="|" d="M128 -200 l0 930 l119 1 l0 -930 l-119 -1 Z" /><glyph glyph-name="braceleft" unicode="{" d="M324 -182 q-92 0 -148 47.5 q-56 47.5 -56 145.5 l0 164 q0 31 -19 46.5 q-19 15.5 -54 15.5 l0 125 q35 0 54 15.5 q19 15.5 19 46.5 l0 159 q0 99 56 146 q56 47 148 47 l24 0 l0 -114 l-24 0 q-36 0 -54 -20 q-18 -20 -18 -58 l0 -161 q0 -56 -25 -84 q-25 -28 -75 -34 l0 -12 q50 -5 75 -32.5 q25 -27.5 25 -85.5 l0 -165 q0 -38 18 -58 q18 -20 54 -20 l24 0 l0 -114 l-24 0 Z" /><glyph glyph-name="bracketleft" unicode="[" d="M94 -182 l0 958 l133 0 l0 -958 l-133 0 ZM179 -182 l0 114 l162 0 l0 -114 l-162 0 ZM179 662 l0 114 l162 0 l0 -114 l-162 0 Z" /><glyph glyph-name="uni0306" unicode="&#x306;" d="M174 606 q-82 0 -126 53.5 q-44 53.5 -47 157.5 l100 0 q3 -59 21 -87 q18 -28 52 -28 q35 0 54 28 q19 28 21 87 l96 0 q-3 -104 -45.5 -157.5 q-42.5 -53.5 -125.5 -53.5 Z" /><glyph glyph-name="brokenbar" unicode="¦" d="M128 335 l0 395 l119 0 l0 -395 l-119 0 ZM128 -200 l0 391 l119 0 l0 -391 l-119 0 Z" /><glyph glyph-name="bullet" unicode="&#x2022;" d="M87 153 l0 271 l260 0 l0 -271 l-260 0 Z" /><glyph glyph-name="c" unicode="c" d="M320 -19 q-71 0 -122.5 24 q-51.5 24 -86 64 q-34.5 40 -51.5 90 q-17 50 -17 102 l0 19 q0 55 17.5 105.5 q17.5 50.5 52.5 90 q35 39.5 86.5 63 q51.5 23.5 119.5 23.5 q71 0 127 -27.5 q56 -27.5 89.5 -76.5 q33.5 -49 37.5 -114 l-135 0 q-5 42 -35.5 70 q-30.5 28 -83.5 28 q-46 0 -76.5 -22 q-30.5 -22 -45.5 -60.5 q-15 -38.5 -15 -88.5 q0 -48 14.5 -87 q14.5 -39 45 -61 q30.5 -22 78.5 -22 q36 0 62 13 q26 13 41.5 36 q15.5 23 19.5 52 l135 0 q-4 -66 -38.5 -115.5 q-34.5 -49.5 -91 -77.5 q-56.5 -28 -128.5 -28 Z" /><glyph glyph-name="uni030C" unicode="&#x30c;" d="M106 612 l-106 205 l117 0 l69 -139 l11 0 l59 139 l113 0 l-96 -205 l-167 0 Z" /><glyph glyph-name="uni0327" unicode="&#x327;" d="M120 -261 q-22 0 -42.5 3.5 q-20.5 3.5 -34.5 7.5 l0 87 q14 -4 33.5 -7.5 q19.5 -3.5 38.5 -3.5 q30 0 44 8.5 q14 8.5 14 22.5 q0 13 -10.5 20 q-10.5 7 -35.5 7 l-47 0 l0 128 l84 0 l0 -98 l-52 41 l15 0 q64 0 101.5 -25 q37.5 -25 37.5 -74 q0 -49 -38 -83 q-38 -34 -108 -34 Z" /><glyph glyph-name="cent" unicode="¢" d="M318 97 q-68 0 -119.5 21 q-51.5 21 -86 57.5 q-34.5 36.5 -52 83.5 q-17.5 47 -17.5 97 l0 20 q0 52 18 99.5 q18 47.5 52.5 83.5 q34.5 36 86 57 q51.5 21 118.5 21 q71 0 125.5 -24.5 q54.5 -24.5 88 -70.5 q33.5 -46 39.5 -112 l-132 0 q-5 40 -37.5 65.5 q-32.5 25.5 -84.5 25.5 q-43 0 -74 -19 q-31 -19 -48 -54 q-17 -35 -17 -82 q0 -46 16 -80.5 q16 -34.5 47 -53.5 q31 -19 76 -19 q53 0 87.5 26.5 q34.5 26.5 39.5 67.5 l132 0 q-5 -64 -39 -111.5 q-34 -47.5 -90.5 -73 q-56.5 -25.5 -128.5 -25.5 ZM261 0 l0 146 l116 0 l0 -146 l-116 0 ZM261 579 l0 146 l116 0 l0 -146 l-116 0 Z" /><glyph glyph-name="uni0302" unicode="&#x302;" d="M0 612 l106 205 l166 0 l105 -205 l-116 0 l-68 139 l-11 0 l-68 -139 l-114 0 Z" /><glyph glyph-name="comma" unicode="," d="M121 -166 l-108 41 l102 290 l116 -43 l-110 -288 Z" /><glyph glyph-name="uni0312" unicode="&#x312;" d="M87 598 q-40 0 -63.5 29 q-23.5 29 -23.5 82 l0 6 q0 64 36.5 97.5 q36.5 33.5 100.5 33.5 l18 0 l0 -67 l-20 0 q-33 0 -47.5 -16.5 q-14.5 -16.5 -14.5 -41.5 l1 -29 l-24 1 q6 12 18.5 20.5 q12.5 8.5 31.5 8.5 q25 0 41.5 -15 q16.5 -15 16.5 -44 q0 -34 -21.5 -49.5 q-21.5 -15.5 -49.5 -15.5 Z" /><glyph glyph-name="copyright" unicode="©" d="M358 111 q-81 0 -140.5 28 q-59.5 28 -97.5 74 q-38 46 -56.5 100.5 q-18.5 54.5 -18.5 106.5 l0 18 q0 54 19 108.5 q19 54.5 57 99.5 q38 45 97.5 72 q59.5 27 139.5 27 q81 0 139.5 -27 q58.5 -27 97 -72 q38.5 -45 57.5 -99.5 q19 -54.5 19 -108.5 l0 -18 q0 -52 -18.5 -106.5 q-18.5 -54.5 -56 -100.5 q-37.5 -46 -97 -74 q-59.5 -28 -141.5 -28 ZM358 165 q78 0 135 36.5 q57 36.5 87.5 96.5 q30.5 60 30.5 130 q0 73 -30.5 132.5 q-30.5 59.5 -87.5 95 q-57 35.5 -135 35.5 q-78 0 -135 -35.5 q-57 -35.5 -87.5 -95 q-30.5 -59.5 -30.5 -132.5 q0 -70 30.5 -130 q30.5 -60 87.5 -96.5 q57 -36.5 135 -36.5 ZM362 242 q-61 0 -100 26 q-39 26 -57.5 67 q-18.5 41 -18.5 85 l0 13 q0 47 19.5 88 q19.5 41 59 66.5 q39.5 25.5 97.5 25.5 q70 0 115.5 -38.5 q45.5 -38.5 49.5 -102.5 l-92 0 q-3 26 -20.5 43 q-17.5 17 -51.5 17 q-43 0 -61.5 -28.5 q-18.5 -28.5 -18.5 -76.5 q0 -30 8 -54 q8 -24 25.5 -37 q17.5 -13 46.5 -13 q34 0 52.5 17.5 q18.5 17.5 21.5 45.5 l93 0 q-4 -66 -51 -105 q-47 -39 -117 -39 Z" /><glyph glyph-name="currency" unicode="¤" d="M339 138 q-75 0 -128.5 32.5 q-53.5 32.5 -82 83 q-28.5 50.5 -28.5 104.5 l0 16 q0 56 28.5 106.5 q28.5 50.5 82 82 q53.5 31.5 128.5 31.5 q75 0 128.5 -31.5 q53.5 -31.5 82 -82 q28.5 -50.5 28.5 -106.5 l0 -16 q0 -54 -28.5 -104.5 q-28.5 -50.5 -82 -83 q-53.5 -32.5 -128.5 -32.5 ZM115 75 l-80 81 l108 108 l80 -81 l-108 -108 ZM143 468 l-108 108 l80 81 l108 -108 l-80 -81 ZM339 246 q39 0 65 15.5 q26 15.5 40 42.5 q14 27 14 62 q0 37 -14.5 64 q-14.5 27 -40.5 41.5 q-26 14.5 -64 14.5 q-37 0 -64 -14.5 q-27 -14.5 -41 -41.5 q-14 -27 -14 -64 q0 -35 13.5 -62 q13.5 -27 40.5 -42.5 q27 -15.5 65 -15.5 ZM562 75 l-108 108 l80 81 l108 -108 l-80 -81 ZM534 468 l-80 81 l108 108 l80 -81 l-108 -108 Z" /><glyph glyph-name="d" unicode="d" d="M304 -18 q-57 0 -105 21 q-48 21 -83 59 q-35 38 -54 88.5 q-19 50.5 -19 109.5 l0 21 q0 58 18.5 109 q18.5 51 52 89 q33.5 38 81 59.5 q47.5 21.5 105.5 21.5 q64 0 112.5 -27.5 q48.5 -27.5 77.5 -82.5 q29 -55 32 -138 l-41 48 l0 370 l139 0 l0 -730 l-110 0 l0 231 l24 0 q-3 -83 -34 -138.5 q-31 -55.5 -81.5 -83 q-50.5 -27.5 -114.5 -27.5 ZM335 99 q41 0 75 18.5 q34 18.5 54.5 54 q20.5 35.5 20.5 83.5 l0 40 q0 48 -21 80.5 q-21 32.5 -55 50 q-34 17.5 -74 17.5 q-45 0 -79.5 -21.5 q-34.5 -21.5 -54 -60.5 q-19.5 -39 -19.5 -91 q0 -52 20 -90.5 q20 -38.5 54.5 -59.5 q34.5 -21 78.5 -21 Z" /><glyph glyph-name="dagger" unicode="&#x2020;" d="M223 -200 l0 561 l128 0 l0 -561 l-128 0 ZM42 433 l0 107 l490 0 l0 -107 l-490 0 ZM223 506 l0 224 l128 0 l0 -224 l-128 0 Z" /><glyph glyph-name="daggerdbl" unicode="&#x2021;" d="M42 433 l0 107 l490 0 l0 -107 l-490 0 ZM223 -200 l0 224 l128 0 l0 -224 l-128 0 ZM42 -10 l0 107 l490 0 l0 -107 l-490 0 ZM223 166 l0 198 l128 0 l0 -198 l-128 0 ZM223 506 l0 224 l128 0 l0 -224 l-128 0 Z" /><glyph glyph-name="degree" unicode="°" d="M203 378 q-53 0 -93.5 24 q-40.5 24 -63.5 64 q-23 40 -23 89 q0 48 23 87.5 q23 39.5 63.5 63.5 q40.5 24 93.5 24 q54 0 94.5 -24 q40.5 -24 63 -63.5 q22.5 -39.5 22.5 -87.5 q0 -49 -22.5 -89 q-22.5 -40 -63 -64 q-40.5 -24 -94.5 -24 ZM203 473 q37 0 58 24 q21 24 21 58 q0 33 -21 56.5 q-21 23.5 -58 23.5 q-37 0 -58 -23.5 q-21 -23.5 -21 -56.5 q0 -34 21 -58 q21 -24 58 -24 Z" /><glyph glyph-name="divide" unicode="÷" d="M55 288 l0 112 l484 0 l0 -112 l-484 0 ZM230 69 l0 135 l134 0 l0 -135 l-134 0 ZM230 484 l0 135 l134 0 l0 -135 l-134 0 Z" /><glyph glyph-name="uni2215" unicode="&#x2215;" d="M-8 -64 l348 883 l122 0 l-348 -883 l-122 0 Z" /><glyph glyph-name="dollar" unicode="$" d="M327 -3 q-94 0 -157.5 28.5 q-63.5 28.5 -96 81 q-32.5 52.5 -32.5 124.5 l128 0 q0 -31 16 -59 q16 -28 50.5 -45.5 q34.5 -17.5 91.5 -17.5 q75 0 114 29 q39 29 39 72 q0 39 -33.5 65 q-33.5 26 -103.5 32 l-56 5 q-103 10 -164 62.5 q-61 52.5 -61 149.5 q0 67 30.5 113 q30.5 46 88 69.5 q57.5 23.5 136.5 23.5 q82 0 139.5 -27 q57.5 -27 88 -77.5 q30.5 -50.5 30.5 -122.5 l-128 0 q0 31 -14.5 57 q-14.5 26 -43 42 q-28.5 16 -72.5 16 q-40 0 -68 -12 q-28 -12 -43 -33 q-15 -21 -15 -49 q0 -35 25.5 -62 q25.5 -27 82.5 -32 l56 -5 q115 -10 184.5 -64 q69.5 -54 69.5 -151 q0 -67 -33.5 -114.5 q-33.5 -47.5 -96.5 -73 q-63 -25.5 -152 -25.5 ZM266 -129 l0 146 l116 0 l0 -146 l-116 0 ZM262 681 l0 146 l116 0 l0 -146 l-116 0 Z" /><glyph glyph-name="uni0307" unicode="&#x307;" d="M77 635 q-40 0 -58.5 22 q-18.5 22 -18.5 54 q0 32 18.5 53.5 q18.5 21.5 58.5 21.5 q41 0 59 -21.5 q18 -21.5 18 -53.5 q0 -32 -18 -54 q-18 -22 -59 -22 Z" /><glyph glyph-name="e" unicode="e" d="M322 -19 q-70 0 -122.5 24 q-52.5 24 -87 64.5 q-34.5 40.5 -52 90.5 q-17.5 50 -17.5 102 l0 19 q0 54 17.5 104.5 q17.5 50.5 52 90 q34.5 39.5 85.5 63 q51 23.5 118 23.5 q88 0 147.5 -38.5 q59.5 -38.5 89.5 -101 q30 -62.5 30 -134.5 l0 -50 l-481 0 l0 85 l394 0 l-43 -42 q0 52 -15 89 q-15 37 -45.5 57 q-30.5 20 -76.5 20 q-46 0 -78 -21 q-32 -21 -48.5 -60.5 q-16.5 -39.5 -16.5 -94.5 q0 -51 16 -90.5 q16 -39.5 49 -62 q33 -22.5 84 -22.5 q51 0 83 20.5 q32 20.5 41 50.5 l128 0 q-12 -56 -46 -98 q-34 -42 -86.5 -65 q-52.5 -23 -119.5 -23 Z" /><glyph glyph-name="eight" unicode="8" d="M328 -20 q-84 0 -148 27 q-64 27 -100 77 q-36 50 -36 119 q0 46 16 81.5 q16 35.5 44 61 q28 25.5 66 38.5 l0 12 q-29 13 -52.5 34 q-23.5 21 -37 51 q-13.5 30 -13.5 69 q0 66 34.5 110.5 q34.5 44.5 94 67 q59.5 22.5 132.5 22.5 q74 0 133.5 -22.5 q59.5 -22.5 94 -67 q34.5 -44.5 34.5 -110.5 q0 -39 -13.5 -69 q-13.5 -30 -36.5 -51 q-23 -21 -53 -34 l0 -12 q38 -13 66.5 -39 q28.5 -26 44 -61.5 q15.5 -35.5 15.5 -80.5 q0 -69 -35.5 -119 q-35.5 -50 -99.5 -77 q-64 -27 -150 -27 ZM328 97 q46 0 79 14 q33 14 51 41 q18 27 18 65 q0 38 -17.5 64.5 q-17.5 26.5 -51 40.5 q-33.5 14 -79.5 14 q-45 0 -78 -14 q-33 -14 -51 -40.5 q-18 -26.5 -18 -64.5 q0 -38 18 -65 q18 -27 51 -41 q33 -14 78 -14 ZM328 442 q58 0 91.5 24.5 q33.5 24.5 33.5 71.5 q0 49 -34 72 q-34 23 -91 23 q-57 0 -90.5 -23.5 q-33.5 -23.5 -33.5 -71.5 q0 -47 34 -71.5 q34 -24.5 90 -24.5 Z" /><glyph glyph-name="emdash" unicode="&#x2014;" d="M18 227 l0 109 l873 0 l0 -109 l-873 0 Z" /><glyph glyph-name="endash" unicode="&#x2013;" d="M18 227 l0 109 l485 0 l0 -109 l-485 0 Z" /><glyph glyph-name="eng" unicode="&#x14b;" d="M309 -202 l0 119 l58 0 q38 0 55 18.5 q17 18.5 17 50.5 l0 41 l139 0 l0 -34 q0 -102 -53.5 -148.5 q-53.5 -46.5 -166.5 -46.5 l-49 0 ZM79 0 l0 543 l110 0 l0 -233 l-10 0 q0 83 22 138.5 q22 55.5 65.5 83.5 q43.5 28 108.5 28 l6 0 q97 0 147 -62.5 q50 -62.5 50 -186.5 l0 -311 l-139 0 l0 323 q0 50 -28.5 81 q-28.5 31 -78.5 31 q-51 0 -82.5 -31.5 q-31.5 -31.5 -31.5 -84.5 l0 -319 l-139 0 Z" /><glyph glyph-name="equal" unicode="=" d="M55 376 l0 112 l480 0 l0 -112 l-480 0 ZM55 173 l0 112 l480 0 l0 -112 l-480 0 Z" /><glyph glyph-name="eth" unicode="ð" d="M334 -19 q-72 0 -126.5 21.5 q-54.5 21.5 -91 58 q-36.5 36.5 -55 83.5 q-18.5 47 -18.5 98 l0 18 q0 72 32.5 129 q32.5 57 91.5 89.5 q59 32.5 137 32.5 q59 0 104.5 -19 q45.5 -19 74 -53.5 q28.5 -34.5 34.5 -81.5 l-11 0 q-1 101 -20.5 161.5 q-19.5 60.5 -55.5 86.5 q-22 16 -54 24 q-32 8 -77 8 q-31 0 -62 -2.5 q-31 -2.5 -61 -7.5 l0 106 q31 5 61.5 7.5 q30.5 2.5 61.5 2.5 q114 0 185 -45 q71 -45 103.5 -134.5 q32.5 -89.5 32.5 -223.5 l0 -26 q0 -100 -31 -175 q-31 -75 -94.5 -116.5 q-63.5 -41.5 -160.5 -41.5 ZM334 100 q49 0 83 18.5 q34 18.5 51.5 52.5 q17.5 34 17.5 80 q0 48 -18.5 82.5 q-18.5 34.5 -52.5 52.5 q-34 18 -82 18 q-47 0 -81 -18 q-34 -18 -52 -52.5 q-18 -34.5 -18 -82.5 q0 -46 17.5 -80 q17.5 -34 51.5 -52.5 q34 -18.5 83 -18.5 ZM375 519 l-49 53 l230 211 l48 -53 l-229 -211 Z" /><glyph glyph-name="Euro" unicode="&#x20ac;" d="M402 -16 q-150 0 -229 94 q-79 94 -79 280 l0 14 q0 187 76.5 280.5 q76.5 93.5 225.5 93.5 q91 0 150.5 -30 q59.5 -30 90 -83.5 q30.5 -53.5 33.5 -122.5 l-123 0 q-4 56 -41 89 q-37 33 -110 33 q-91 0 -134.5 -61.5 q-43.5 -61.5 -43.5 -205.5 q0 -144 46 -205.5 q46 -61.5 138 -61.5 q75 0 111 33 q36 33 40 90 l123 0 q-3 -70 -33 -123.5 q-30 -53.5 -90 -83.5 q-60 -30 -151 -30 ZM14 243 l0 76 l438 0 l0 -76 l-438 0 ZM32 395 l0 76 l438 0 l0 -76 l-438 0 Z" /><glyph glyph-name="exclam" unicode="!" d="M84 237 l0 493 l142 0 l0 -493 l-142 0 ZM73 0 l0 148 l164 0 l0 -148 l-164 0 Z" /><glyph glyph-name="f" unicode="f" d="M92 0 l0 556 q0 93 51.5 137.5 q51.5 44.5 152.5 44.5 l68 0 l0 -107 l-78 0 q-31 0 -47.5 -16.5 q-16.5 -16.5 -16.5 -46.5 l0 -568 l-130 0 ZM24 432 l0 102 l349 0 l0 -102 l-349 0 Z" /><glyph glyph-name="fi" unicode="&#xfb01;" d="M91 0 l0 562 q0 93 51.5 137.5 q51.5 44.5 152.5 44.5 l56 0 l0 -107 l-66 0 q-31 0 -47.5 -16.5 q-16.5 -16.5 -16.5 -46.5 l0 -574 l-130 0 ZM24 438 l0 102 l322 0 l0 -102 l-322 0 ZM462 0 l0 543 l139 0 l0 -543 l-139 0 ZM393 439 l0 104 l208 0 l0 -104 l-208 0 ZM512 608 q-40 0 -59.5 21.5 q-19.5 21.5 -19.5 54.5 q0 33 19.5 54 q19.5 21 59.5 21 q41 0 60.5 -21 q19.5 -21 19.5 -54 q0 -33 -19.5 -54.5 q-19.5 -21.5 -60.5 -21.5 Z" /><glyph glyph-name="five" unicode="5" d="M323 -19 q-86 0 -147.5 34 q-61.5 34 -94 90.5 q-32.5 56.5 -32.5 123.5 l137 0 q0 -38 17.5 -67 q17.5 -29 48.5 -45.5 q31 -16.5 72 -16.5 q43 0 74 18 q31 18 47.5 49 q16.5 31 16.5 71 q0 39 -16.5 70.5 q-16.5 31.5 -47 50 q-30.5 18.5 -73.5 18.5 q-36 0 -68 -14 q-32 -14 -50 -37 l-131 0 l37 404 l423 0 l0 -121 l-361 0 l50 39 l-24 -252 l-34 10 q29 33 71 55 q42 22 106 22 q81 0 138 -33 q57 -33 87 -87.5 q30 -54.5 30 -118.5 l0 -13 q0 -65 -32 -122 q-32 -57 -93.5 -92.5 q-61.5 -35.5 -150.5 -35.5 Z" /><glyph glyph-name="fl" unicode="&#xfb02;" d="M91 0 l0 548 q0 93 51.5 137.5 q51.5 44.5 152.5 44.5 l48 0 l0 -106 l-58 0 q-31 0 -47.5 -16.5 q-16.5 -16.5 -16.5 -46.5 l0 -561 l-130 0 ZM24 429 l0 102 l323 0 l0 -102 l-323 0 ZM455 0 l0 730 l139 0 l0 -730 l-139 0 ZM392 626 l0 104 l202 0 l0 -104 l-202 0 Z" /><glyph glyph-name="four" unicode="4" d="M38 151 l0 154 l286 445 l107 -73 l-252 -394 l12 -20 l448 0 l0 -112 l-601 0 ZM420 0 l0 523 l131 0 l0 -523 l-131 0 Z" /><glyph glyph-name="fraction" unicode="&#x2044;" d="M-134 -22 l394 702 l101 0 l-394 -702 l-101 0 Z" /><glyph glyph-name="g" unicode="g" d="M291 -214 q-39 0 -79.5 3 q-40.5 3 -75.5 8 l0 116 q36 -4 77 -7.5 q41 -3.5 77 -3.5 q67 0 108.5 16 q41.5 16 61 50.5 q19.5 34.5 19.5 87.5 l0 107 l30 68 q-3 -75 -31 -127.5 q-28 -52.5 -76 -80 q-48 -27.5 -111 -27.5 q-56 0 -101.5 21 q-45.5 21 -78 58 q-32.5 37 -50.5 87 q-18 50 -18 107 l0 21 q0 57 18.5 106.5 q18.5 49.5 52.5 86.5 q34 37 81 57 q47 20 104 20 q67 0 116.5 -29 q49.5 -29 77.5 -84 q28 -55 31 -135 l-24 -4 l0 235 l110 0 l0 -479 q0 -99 -34 -160 q-34 -61 -104.5 -89.5 q-70.5 -28.5 -180.5 -28.5 ZM331 115 q40 0 73 18 q33 18 53 52 q20 34 20 82 l0 35 q0 46 -20.5 78 q-20.5 32 -53.5 48.5 q-33 16.5 -72 16.5 q-44 0 -77.5 -20.5 q-33.5 -20.5 -52.5 -57.5 q-19 -37 -19 -88 q0 -50 19 -87 q19 -37 52.5 -57 q33.5 -20 77.5 -20 Z" /><glyph glyph-name="germandbls" unicode="ß" d="M377 -13 q-26 0 -51.5 3 q-25.5 3 -44.5 8 l0 114 q19 -4 43 -7.5 q24 -3.5 43 -3.5 q57 0 87.5 30 q30.5 30 30.5 81 q0 35 -15.5 63.5 q-15.5 28.5 -46 45.5 q-30.5 17 -76.5 17 l-42 0 l0 104 l28 0 q30 0 49.5 13 q19.5 13 29 34.5 q9.5 21.5 9.5 45.5 q0 27 -10.5 49 q-10.5 22 -31.5 35 q-21 13 -51 13 q-32 0 -55 -15.5 q-23 -15.5 -35.5 -43 q-12.5 -27.5 -12.5 -65.5 l0 -508 l-139 0 l0 498 q0 118 63.5 183 q63.5 65 176.5 65 l4 0 q71 0 122.5 -26.5 q51.5 -26.5 79.5 -72.5 q28 -46 28 -103 q0 -50 -22 -88.5 q-22 -38.5 -66 -60 q-44 -21.5 -110 -21.5 l3 38 q84 0 142 -26 q58 -26 87.5 -73 q29.5 -47 29.5 -111 q0 -69 -32 -117 q-32 -48 -88 -73 q-56 -25 -127 -25 ZM26 420 l0 104 l90 0 l0 -104 l-90 0 Z" /><glyph glyph-name="gravecomb" unicode="&#x300;" d="M112 612 l-112 205 l148 0 l87 -205 l-123 0 Z" /><glyph glyph-name="greater" unicode="&gt;" d="M72 93 l0 117 l450 141 l0 -112 l-450 -146 ZM522 305 l-450 141 l0 118 l450 -146 l0 -113 ZM422 289 l0 82 l30 0 l0 -82 l-30 0 Z" /><glyph glyph-name="greaterequal" unicode="&#x2265;" d="M72 29 l0 109 l450 0 l0 -109 l-450 0 ZM72 198 l0 112 l450 111 l0 -100 l-450 -123 ZM522 381 l-450 111 l0 113 l450 -123 l0 -101 ZM415 362 l0 82 l30 0 l0 -82 l-30 0 Z" /><glyph glyph-name="guilsinglleft" unicode="&#x2039;" d="M157 39 l-131 197 l0 46 l137 201 l149 0 l-140 -208 l0 -28 l140 -208 l-155 0 Z" /><glyph glyph-name="h" unicode="h" d="M79 0 l0 730 l139 0 l0 -426 l-24 0 q0 82 21 139 q21 57 62.5 87 q41.5 30 105.5 30 l6 0 q93 0 141 -64 q48 -64 48 -186 l0 -310 l-139 0 l0 323 q0 52 -29.5 82 q-29.5 30 -77.5 30 q-51 0 -82.5 -33.5 q-31.5 -33.5 -31.5 -87.5 l0 -314 l-139 0 Z" /><glyph glyph-name="uni030B" unicode="&#x30b;" d="M175 612 l78 205 l114 0 l-90 -205 l-102 0 ZM0 612 l78 205 l114 0 l-90 -205 l-102 0 Z" /><glyph glyph-name="hyphen" unicode="-" d="M51 220 l0 122 l405 0 l0 -122 l-405 0 Z" /><glyph glyph-name="i" unicode="i" d="M105 0 l0 543 l139 0 l0 -543 l-139 0 ZM29 439 l0 104 l215 0 l0 -104 l-215 0 ZM156 608 q-41 0 -60.5 21.5 q-19.5 21.5 -19.5 54.5 q0 33 19.5 54 q19.5 21 60.5 21 q41 0 60 -21 q19 -21 19 -54 q0 -33 -19 -54.5 q-19 -21.5 -60 -21.5 Z" /><glyph glyph-name="dotlessi" unicode="&#x131;" d="M105 0 l0 543 l139 0 l0 -543 l-139 0 ZM29 439 l0 104 l215 0 l0 -104 l-215 0 Z" /><glyph glyph-name="j" unicode="j" d="M2 -205 l0 119 l42 0 q37 0 57 20 q20 20 20 57 l0 552 l134 0 l0 -544 q0 -75 -23 -119.5 q-23 -44.5 -71 -64.5 q-48 -20 -126 -20 l-33 0 ZM42 439 l0 104 l213 0 l0 -104 l-213 0 ZM166 612 q-40 0 -59.5 21.5 q-19.5 21.5 -19.5 54.5 q0 33 19.5 54 q19.5 21 59.5 21 q41 0 60.5 -21 q19.5 -21 19.5 -54 q0 -33 -19.5 -54.5 q-19.5 -21.5 -60.5 -21.5 Z" /><glyph glyph-name="uni0237" unicode="&#x237;" d="M2 -205 l0 119 l42 0 q37 0 57 20 q20 20 20 57 l0 552 l134 0 l0 -544 q0 -75 -23 -119.5 q-23 -44.5 -71 -64.5 q-48 -20 -126 -20 l-33 0 ZM42 439 l0 104 l213 0 l0 -104 l-213 0 Z" /><glyph glyph-name="k" unicode="k" d="M459 0 l-182 254 l-81 0 l231 289 l145 0 l-213 -267 l3 70 l254 -346 l-157 0 ZM79 0 l0 730 l139 0 l0 -730 l-139 0 Z" /><glyph glyph-name="l" unicode="l" d="M86 0 l0 730 l139 0 l0 -730 l-139 0 ZM18 626 l0 104 l207 0 l0 -104 l-207 0 Z" /><glyph glyph-name="lessequal" unicode="&#x2264;" d="M72 29 l0 109 l450 0 l0 -109 l-450 0 ZM522 198 l-450 123 l0 101 l450 -111 l0 -113 ZM72 382 l0 100 l450 123 l0 -112 l-450 -111 ZM149 359 l0 82 l30 0 l0 -82 l-30 0 Z" /><glyph glyph-name="logicalnot" unicode="¬" d="M55 263 l0 112 l512 0 l0 -296 l-108 0 l0 247 l62 -63 l-466 0 Z" /><glyph glyph-name="lslash" unicode="&#x142;" d="M14 203 l0 102 l114 63 l0 -102 l-114 -63 ZM184 294 l0 102 l111 62 l0 -102 l-111 -62 ZM86 0 l0 730 l139 0 l0 -730 l-139 0 ZM18 626 l0 104 l207 0 l0 -104 l-207 0 Z" /><glyph glyph-name="m" unicode="m" d="M79 0 l0 543 l110 0 l0 -233 l-10 0 q0 82 21 137.5 q21 55.5 62.5 84 q41.5 28.5 103.5 28.5 l6 0 q63 0 104.5 -28.5 q41.5 -28.5 62 -84 q20.5 -55.5 20.5 -137.5 l-35 0 q0 82 21.5 137.5 q21.5 55.5 63 84 q41.5 28.5 103.5 28.5 l6 0 q63 0 105 -28.5 q42 -28.5 63.5 -84 q21.5 -55.5 21.5 -137.5 l0 -310 l-139 0 l0 323 q0 51 -26 81.5 q-26 30.5 -74 30.5 q-48 0 -77 -31.5 q-29 -31.5 -29 -84.5 l0 -319 l-139 0 l0 323 q0 51 -26 81.5 q-26 30.5 -74 30.5 q-48 0 -77 -31.5 q-29 -31.5 -29 -84.5 l0 -319 l-139 0 Z" /><glyph glyph-name="uni0304" unicode="&#x304;" d="M0 654 l0 98 l319 0 l0 -98 l-319 0 Z" /><glyph glyph-name="uni00B5" unicode="µ" d="M67 -200 l0 744 l139 0 l0 -327 q0 -50 28 -79.5 q28 -29.5 76 -29.5 q32 0 56.5 14 q24.5 14 38.5 40 q14 26 14 61 l0 321 l139 0 l0 -388 q0 -18 9.5 -27.5 q9.5 -9.5 27.5 -9.5 l51 0 l0 -119 l-58 0 q-56 0 -91 18 q-35 18 -51 55 q-16 37 -16 93 l18 65 l11 0 q0 -82 -21.5 -137 q-21.5 -55 -61.5 -83 q-40 -28 -97 -28 l-5 0 q-34 0 -67 16 q-33 16 -55 46 q-22 30 -24 72 l40 8 q0 -32 7 -65.5 q7 -33.5 14.5 -68.5 q7.5 -35 7.5 -73 l0 -118 l-130 0 Z" /><glyph glyph-name="minus" unicode="&#x2212;" d="M55 288 l0 112 l484 0 l0 -112 l-484 0 Z" /><glyph glyph-name="minute" unicode="&#x2032;" d="M42 434 l58 296 l124 0 l-58 -296 l-124 0 Z" /><glyph glyph-name="multiply" unicode="×" d="M460 101 l81 81 l-407 406 l-81 -81 l407 -406 ZM130 101 l411 410 l-77 77 l-411 -410 l77 -77 Z" /><glyph glyph-name="n" unicode="n" d="M79 0 l0 543 l110 0 l0 -233 l-10 0 q0 83 22 138.5 q22 55.5 65.5 83.5 q43.5 28 108.5 28 l6 0 q97 0 147 -62.5 q50 -62.5 50 -186.5 l0 -311 l-139 0 l0 323 q0 50 -28.5 81 q-28.5 31 -78.5 31 q-51 0 -82.5 -31.5 q-31.5 -31.5 -31.5 -84.5 l0 -319 l-139 0 Z" /><glyph glyph-name="uni00A0" unicode=" " d="" /><glyph glyph-name="numbersign" unicode="#" d="M120 0 l113 730 l113 0 l-113 -730 l-113 0 ZM367 0 l113 730 l113 0 l-113 -730 l-113 0 ZM34 193 l0 94 l606 0 l0 -94 l-606 0 ZM72 443 l0 94 l606 0 l0 -94 l-606 0 Z" /><glyph glyph-name="o" unicode="o" d="M340 -19 q-72 0 -127 23 q-55 23 -93 62.5 q-38 39.5 -57.5 89.5 q-19.5 50 -19.5 104 l0 21 q0 56 20.5 106.5 q20.5 50.5 59 90 q38.5 39.5 93.5 62 q55 22.5 124 22.5 q69 0 124 -22.5 q55 -22.5 93.5 -62 q38.5 -39.5 58.5 -90 q20 -50.5 20 -106.5 l0 -21 q0 -54 -19.5 -104 q-19.5 -50 -57.5 -89.5 q-38 -39.5 -93 -62.5 q-55 -23 -126 -23 ZM340 100 q51 0 86 22.5 q35 22.5 53 61 q18 38.5 18 87.5 q0 50 -18.5 88.5 q-18.5 38.5 -54 61 q-35.5 22.5 -84.5 22.5 q-49 0 -84.5 -22.5 q-35.5 -22.5 -54.5 -61 q-19 -38.5 -19 -88.5 q0 -49 18.5 -87.5 q18.5 -38.5 53.5 -61 q35 -22.5 86 -22.5 Z" /><glyph glyph-name="oe" unicode="&#x153;" d="M336 -18 q-71 0 -126 23 q-55 23 -92 62 q-37 39 -56 89.5 q-19 50.5 -19 104.5 l0 21 q0 56 20 106.5 q20 50.5 57.5 89.5 q37.5 39 92 61.5 q54.5 22.5 123.5 22.5 q71 0 122.5 -22.5 q51.5 -22.5 85 -62 q33.5 -39.5 50 -90 q16.5 -50.5 16.5 -105.5 l-89 0 q0 53 14 103 q14 50 44 90 q30 40 77.5 63.5 q47.5 23.5 114.5 23.5 q88 0 146.5 -38.5 q58.5 -38.5 88 -101 q29.5 -62.5 29.5 -134.5 l0 -49 l-418 0 l0 83 l331 0 l-43 -40 q0 52 -15.5 88.5 q-15.5 36.5 -45.5 56 q-30 19.5 -76 19.5 q-46 0 -78 -21 q-32 -21 -48.5 -60 q-16.5 -39 -16.5 -94 q0 -51 16 -90 q16 -39 49 -61.5 q33 -22.5 84 -22.5 q51 0 83 19.5 q32 19.5 41 48.5 l128 0 q-18 -84 -83 -134 q-65 -50 -166 -50 q-71 0 -120 24.5 q-49 24.5 -79 65 q-30 40.5 -43.5 90.5 q-13.5 50 -13.5 100 l89 0 q-1 -53 -16.5 -102.5 q-15.5 -49.5 -48 -89.5 q-32.5 -40 -84.5 -63.5 q-52 -23.5 -125 -23.5 ZM339 101 q51 0 86 22.5 q35 22.5 53 61 q18 38.5 18 86.5 q0 50 -18.5 88.5 q-18.5 38.5 -54 61 q-35.5 22.5 -84.5 22.5 q-49 0 -84 -22 q-35 -22 -54 -61 q-19 -39 -19 -89 q0 -48 18.5 -86.5 q18.5 -38.5 53.5 -61 q35 -22.5 85 -22.5 Z" /><glyph glyph-name="uni0328" unicode="&#x328;" d="M188 -242 q-59 0 -95 31.5 q-36 31.5 -36 87.5 q0 46 23.5 81 q23.5 35 67.5 74 l31 28 l54 -60 l-30 -29 q-24 -21 -35.5 -38.5 q-11.5 -17.5 -11.5 -36.5 q0 -19 12 -29.5 q12 -10.5 34 -10.5 q27 0 47 8 l0 -98 q-10 -3 -27.5 -5.5 q-17.5 -2.5 -33.5 -2.5 Z" /><glyph glyph-name="one" unicode="1" d="M185 0 l0 642 l44 -34 l-193 0 l0 122 l290 0 l0 -730 l-141 0 Z" /><glyph glyph-name="ordfeminine" unicode="ª" d="M280 350 l0 111 l-20 0 l0 117 q0 24 -11 37 q-11 13 -38 13 q-12 0 -36.5 -0.5 q-24.5 -0.5 -52.5 -1.5 q-28 -1 -52 -3 l0 104 q17 2 40 3 q23 1 47 2 q24 1 42 1 q61 0 100.5 -18.5 q39.5 -18.5 59.5 -52.5 q20 -34 20 -84 l0 -228 l-99 0 ZM163 340 q-58 0 -95.5 32 q-37.5 32 -37.5 89 q0 42 22.5 68.5 q22.5 26.5 61.5 38.5 q39 12 89 12 l71 0 l0 -65 l-70 0 q-24 0 -37.5 -12.5 q-13.5 -12.5 -13.5 -33.5 q0 -19 13 -31.5 q13 -12.5 38 -12.5 q15 0 27.5 6 q12.5 6 20 20 q7.5 14 8.5 38 l29 -28 q-5 -57 -36.5 -89 q-31.5 -32 -89.5 -32 Z" /><glyph glyph-name="ordmasculine" unicode="º" d="M237 336 q-64 0 -109 26.5 q-45 26.5 -69.5 70.5 q-24.5 44 -24.5 96 l0 16 q0 55 25 99 q25 44 70.5 70 q45.5 26 107.5 26 q61 0 106.5 -26 q45.5 -26 70.5 -70 q25 -44 25 -99 l0 -16 q0 -52 -24 -96 q-24 -44 -69 -70.5 q-45 -26.5 -109 -26.5 ZM237 441 q25 0 42.5 12.5 q17.5 12.5 26 34 q8.5 21.5 8.5 49.5 q0 28 -9 50 q-9 22 -26 35 q-17 13 -42 13 q-25 0 -42.5 -12.5 q-17.5 -12.5 -26.5 -34.5 q-9 -22 -9 -51 q0 -28 9 -49.5 q9 -21.5 26 -34 q17 -12.5 43 -12.5 Z" /><glyph glyph-name="oslash" unicode="ø" d="M71 -59 l443 652 l93 0 l-443 -652 l-93 0 ZM340 -19 q-72 0 -127 23 q-55 23 -93 62.5 q-38 39.5 -57.5 89.5 q-19.5 50 -19.5 104 l0 21 q0 56 20.5 106.5 q20.5 50.5 59 90 q38.5 39.5 93.5 62 q55 22.5 124 22.5 q69 0 124 -22.5 q55 -22.5 93.5 -62 q38.5 -39.5 58.5 -90 q20 -50.5 20 -106.5 l0 -21 q0 -54 -19.5 -104 q-19.5 -50 -57.5 -89.5 q-38 -39.5 -93 -62.5 q-55 -23 -126 -23 ZM340 100 q51 0 86 22.5 q35 22.5 53 61 q18 38.5 18 87.5 q0 50 -18.5 88.5 q-18.5 38.5 -54 61 q-35.5 22.5 -84.5 22.5 q-49 0 -84.5 -22.5 q-35.5 -22.5 -54.5 -61 q-19 -38.5 -19 -88.5 q0 -49 18.5 -87.5 q18.5 -38.5 53.5 -61 q35 -22.5 86 -22.5 Z" /><glyph glyph-name="p" unicode="p" d="M79 -200 l0 743 l110 0 l0 -234 l-17 1 q4 83 34.5 139 q30.5 56 81.5 83.5 q51 27.5 114 27.5 q58 0 104.5 -21 q46.5 -21 80 -59 q33.5 -38 51.5 -88.5 q18 -50.5 18 -108.5 l0 -21 q0 -59 -17.5 -109.5 q-17.5 -50.5 -51 -89 q-33.5 -38.5 -80.5 -60 q-47 -21.5 -105 -21.5 q-61 0 -111.5 25.5 q-50.5 25.5 -81.5 79 q-31 53.5 -35 138.5 l44 -67 l0 -358 l-139 0 ZM367 99 q45 0 78.5 22 q33.5 22 52.5 61.5 q19 39.5 19 89.5 q0 52 -19 90 q-19 38 -52.5 59.5 q-33.5 21.5 -78.5 21.5 q-41 0 -75.5 -18 q-34.5 -18 -56 -53 q-21.5 -35 -21.5 -84 l0 -40 q0 -47 22 -80 q22 -33 57 -51 q35 -18 74 -18 Z" /><glyph glyph-name="paragraph" unicode="¶" d="M202 381 q-99 0 -146 47 q-47 47 -47 124 l0 11 q0 78 47 124.5 q47 46.5 146 46.5 l102 0 l0 -353 l-102 0 ZM266 0 l0 734 l108 0 l0 -734 l-108 0 ZM444 0 l0 734 l106 0 l0 -734 l-106 0 Z" /><glyph glyph-name="parenleft" unicode="(" d="M219 -182 q-49 61 -86 132 q-37 71 -57 157.5 q-20 86.5 -20 194.5 q0 109 21 194.5 q21 85.5 59 154 q38 68.5 86 125.5 l155 0 q-54 -66 -96 -138 q-42 -72 -65 -155 q-23 -83 -23 -181 q0 -97 19.5 -181 q19.5 -84 60.5 -159 q41 -75 104 -144 l-158 0 Z" /><glyph glyph-name="percent" unicode="%" d="M249 0 l269 730 l115 0 l-269 -730 l-115 0 ZM197 332 q-58 0 -96 26.5 q-38 26.5 -56.5 70.5 q-18.5 44 -18.5 96 l0 26 q0 57 19 100.5 q19 43.5 57.5 68 q38.5 24.5 94.5 24.5 q58 0 96 -24.5 q38 -24.5 57 -68 q19 -43.5 19 -100.5 l0 -26 q0 -52 -18.5 -96 q-18.5 -44 -56 -70.5 q-37.5 -26.5 -97.5 -26.5 ZM197 425 q36 0 53.5 26.5 q17.5 26.5 17.5 85.5 q0 64 -18 89 q-18 25 -53 25 q-35 0 -52.5 -25 q-17.5 -25 -17.5 -88 q0 -59 17.5 -86 q17.5 -27 52.5 -27 ZM680 -15 q-58 0 -96 26.5 q-38 26.5 -56.5 70.5 q-18.5 44 -18.5 96 l0 26 q0 57 19 100.5 q19 43.5 57.5 68 q38.5 24.5 94.5 24.5 q58 0 96 -24.5 q38 -24.5 57 -68 q19 -43.5 19 -100.5 l0 -26 q0 -52 -18.5 -96 q-18.5 -44 -56 -70.5 q-37.5 -26.5 -97.5 -26.5 ZM680 78 q36 0 53.5 26.5 q17.5 26.5 17.5 85.5 q0 64 -18 89 q-18 25 -53 25 q-35 0 -52.5 -25 q-17.5 -25 -17.5 -88 q0 -59 17.5 -86 q17.5 -27 52.5 -27 Z" /><glyph glyph-name="period" unicode="." d="M57 0 l0 160 l156 0 l0 -160 l-156 0 Z" /><glyph glyph-name="perthousand" unicode="&#x2030;" d="M249 0 l269 730 l115 0 l-269 -730 l-115 0 ZM197 332 q-58 0 -96 26.5 q-38 26.5 -56.5 70.5 q-18.5 44 -18.5 96 l0 26 q0 57 19 100.5 q19 43.5 57.5 68 q38.5 24.5 94.5 24.5 q58 0 96 -24.5 q38 -24.5 57 -68 q19 -43.5 19 -100.5 l0 -26 q0 -52 -18.5 -96 q-18.5 -44 -56 -70.5 q-37.5 -26.5 -97.5 -26.5 ZM197 425 q36 0 53.5 26.5 q17.5 26.5 17.5 85.5 q0 64 -18 89 q-18 25 -53 25 q-35 0 -52.5 -25 q-17.5 -25 -17.5 -88 q0 -59 17.5 -86 q17.5 -27 52.5 -27 ZM680 -15 q-58 0 -96 26.5 q-38 26.5 -56.5 70.5 q-18.5 44 -18.5 96 l0 26 q0 57 19 100.5 q19 43.5 57.5 68 q38.5 24.5 94.5 24.5 q58 0 96 -24.5 q38 -24.5 57 -68 q19 -43.5 19 -100.5 l0 -26 q0 -52 -18.5 -96 q-18.5 -44 -56 -70.5 q-37.5 -26.5 -97.5 -26.5 ZM680 78 q36 0 53.5 26.5 q17.5 26.5 17.5 85.5 q0 64 -18 89 q-18 25 -53 25 q-35 0 -52.5 -25 q-17.5 -25 -17.5 -88 q0 -59 17.5 -86 q17.5 -27 52.5 -27 ZM1070 -15 q-59 0 -97 26.5 q-38 26.5 -56.5 70.5 q-18.5 44 -18.5 96 l0 26 q0 57 19 100.5 q19 43.5 57.5 68 q38.5 24.5 95.5 24.5 q57 0 95 -24.5 q38 -24.5 57 -68 q19 -43.5 19 -100.5 l0 -26 q0 -52 -18.5 -96 q-18.5 -44 -56 -70.5 q-37.5 -26.5 -96.5 -26.5 ZM1070 78 q36 0 53 26.5 q17 26.5 17 85.5 q0 64 -17.5 89 q-17.5 25 -52.5 25 q-35 0 -53 -25 q-18 -25 -18 -88 q0 -59 17.5 -86 q17.5 -27 53.5 -27 Z" /><glyph glyph-name="plus" unicode="+" d="M236 97 l0 494 l122 0 l0 -494 l-122 0 ZM55 288 l0 112 l484 0 l0 -112 l-484 0 Z" /><glyph glyph-name="plusminus" unicode="±" d="M68 40 l0 107 l474 0 l0 -107 l-474 0 ZM248 206 l0 450 l115 1 l0 -450 l-115 -1 ZM68 378 l0 107 l474 0 l0 -107 l-474 0 Z" /><glyph glyph-name="q" unicode="q" d="M481 -200 l0 361 l41 64 q-3 -78 -32 -132.5 q-29 -54.5 -78 -82.5 q-49 -28 -113 -28 q-58 0 -105 21.5 q-47 21.5 -80.5 60 q-33.5 38.5 -52 89 q-18.5 50.5 -18.5 109.5 l0 21 q0 58 19 108.5 q19 50.5 53.5 88 q34.5 37.5 82 59 q47.5 21.5 106.5 21.5 q68 0 118 -29 q50 -29 78.5 -84.5 q28.5 -55.5 31.5 -135.5 l-22 0 l0 232 l110 0 l0 -743 l-139 0 ZM335 101 q41 0 75 18.5 q34 18.5 54.5 54 q20.5 35.5 20.5 83.5 l0 40 q0 48 -21 80.5 q-21 32.5 -55 50 q-34 17.5 -74 17.5 q-45 0 -79.5 -21.5 q-34.5 -21.5 -54 -61 q-19.5 -39.5 -19.5 -90.5 q0 -51 20 -89.5 q20 -38.5 54.5 -60 q34.5 -21.5 78.5 -21.5 Z" /><glyph glyph-name="question" unicode="?" d="M186 236 l0 178 l85 0 q60 0 88.5 31.5 q28.5 31.5 28.5 77.5 q0 33 -13 57.5 q-13 24.5 -38 37.5 q-25 13 -58 13 q-36 0 -61.5 -15 q-25.5 -15 -39.5 -40 q-14 -25 -14 -58 l-133 0 q0 64 29 117 q29 53 85 84.5 q56 31.5 137 31.5 q74 0 127.5 -28.5 q53.5 -28.5 82.5 -77.5 q29 -49 29 -111 l0 -12 q0 -61 -29 -109 q-29 -48 -85.5 -75.5 q-56.5 -27.5 -137.5 -29.5 l57 52 l-2 -124 l-138 0 ZM175 0 l0 148 l160 0 l0 -148 l-160 0 Z" /><glyph glyph-name="quoteright" unicode="&#x2019;" d="M42 401 l0 78 l24 0 q29 0 46 9 q17 9 25 30.5 q8 21.5 8 57.5 l0 74 l29 -56 q-7 -5 -20 -8.5 q-13 -3.5 -27 -3.5 q-33 0 -55 20.5 q-22 20.5 -22 56.5 q0 34 21 57.5 q21 23.5 60 23.5 q25 0 46.5 -11.5 q21.5 -11.5 34.5 -40 q13 -28.5 13 -78.5 l0 -17 q0 -71 -19.5 -113 q-19.5 -42 -56.5 -60.5 q-37 -18.5 -90 -18.5 l-17 0 Z" /><glyph glyph-name="quotesingle" unicode="&#39;" d="M71 434 l0 296 l124 0 l0 -296 l-124 0 Z" /><glyph glyph-name="r" unicode="r" d="M79 0 l0 543 l110 0 l0 -230 l-3 0 q0 117 50 177 q50 60 147 60 l20 0 l0 -121 l-38 0 q-70 0 -108.5 -37.5 q-38.5 -37.5 -38.5 -108.5 l0 -283 l-139 0 Z" /><glyph glyph-name="registered" unicode="®" d="M339 178 q-70 0 -123.5 24.5 q-53.5 24.5 -89.5 65 q-36 40.5 -54 89.5 q-18 49 -18 98 l0 16 q0 51 18.5 99.5 q18.5 48.5 55 88.5 q36.5 40 89.5 63.5 q53 23.5 122 23.5 q69 0 122 -23.5 q53 -23.5 89.5 -63.5 q36.5 -40 55 -88.5 q18.5 -48.5 18.5 -99.5 l0 -16 q0 -49 -18 -98 q-18 -49 -54 -89.5 q-36 -40.5 -89.5 -65 q-53.5 -24.5 -123.5 -24.5 ZM339 230 q69 0 120.5 31.5 q51.5 31.5 80 84 q28.5 52.5 28.5 116.5 q0 66 -28.5 118.5 q-28.5 52.5 -80 83 q-51.5 30.5 -120.5 30.5 q-69 0 -120.5 -30.5 q-51.5 -30.5 -80 -83 q-28.5 -52.5 -28.5 -118.5 q0 -64 28.5 -116.5 q28.5 -52.5 80 -84 q51.5 -31.5 120.5 -31.5 ZM222 312 l0 312 l74 0 l0 -312 l-74 0 ZM406 312 l-81 120 l78 0 l86 -120 l-83 0 ZM257 406 l0 63 l86 0 q28 0 40.5 12 q12.5 12 12.5 34 q0 23 -12.5 34.5 q-12.5 11.5 -40.5 11.5 l-86 0 l0 63 l81 0 q63 0 98 -28 q35 -28 35 -81 q0 -52 -35 -80.5 q-35 -28.5 -98 -28.5 l-81 0 Z" /><glyph glyph-name="uni17DB" unicode="&#x17db;" d="M259 -7 q-60 0 -105 17.5 q-45 17.5 -70.5 51.5 q-25.5 34 -25.5 83 q0 48 26 81.5 q26 33.5 74.5 51 q48.5 17.5 114.5 17.5 l0 -89 q-47 0 -74 -13.5 q-27 -13.5 -27 -45.5 q0 -31 24.5 -47 q24.5 -16 59.5 -16 l45 0 l-36 -40 l2 325 l110 0 l0 -376 l-118 0 ZM128 344 l0 86 l363 0 l0 -86 l-363 0 ZM267 404 l0 34 q0 12 -4.5 21 q-4.5 9 -16.5 16 q-20 12 -45 26 q-25 14 -42 24 q-41 26 -49.5 66 q-8.5 40 9.5 83 q18 42 51.5 56 q33.5 14 93.5 14 q38 0 78 -3 q40 -3 79 -9 l0 -100 q-39 6 -77 9.5 q-38 3.5 -88 3.5 q-17 0 -24 -3.5 q-7 -3.5 -11 -12.5 q-3 -9 -1.5 -16.5 q1.5 -7.5 9.5 -13.5 q8 -4 23.5 -12.5 q15.5 -8.5 33.5 -18.5 q18 -10 33 -20 q30 -18 44 -42.5 q14 -24.5 14 -67.5 l0 -34 l-110 0 Z" /><glyph glyph-name="uni030A" unicode="&#x30a;" d="M123 602 q-55 0 -89 33.5 q-34 33.5 -34 84.5 q0 52 34 85.5 q34 33.5 89 33.5 q54 0 88 -33.5 q34 -33.5 34 -85.5 q0 -51 -34 -84.5 q-34 -33.5 -88 -33.5 ZM123 670 q22 0 35.5 14 q13.5 14 13.5 36 q0 22 -13.5 36 q-13.5 14 -35.5 14 q-23 0 -36 -14 q-13 -14 -13 -36 q0 -21 13 -35.5 q13 -14.5 36 -14.5 Z" /><glyph glyph-name="s" unicode="s" d="M276 -17 q-112 0 -175.5 47.5 q-63.5 47.5 -66.5 131.5 l125 0 q3 -28 31 -51 q28 -23 88 -23 q50 0 79.5 18 q29.5 18 29.5 49 q0 27 -22.5 43 q-22.5 16 -76.5 21 l-48 5 q-91 10 -140 52 q-49 42 -49 112 q0 56 28 94 q28 38 77.5 57.5 q49.5 19.5 113.5 19.5 q100 0 162 -44 q62 -44 65 -129 l-125 0 q-2 28 -28 48 q-26 20 -75 20 q-44 0 -68 -17 q-24 -17 -24 -44 q0 -26 19.5 -40 q19.5 -14 63.5 -19 l48 -5 q96 -10 150.5 -53 q54.5 -43 54.5 -116 q0 -54 -29.5 -93.5 q-29.5 -39.5 -82.5 -61.5 q-53 -22 -125 -22 Z" /><glyph glyph-name="section" unicode="§" d="M287 -93 q-112 0 -175.5 48.5 q-63.5 48.5 -66.5 136.5 l125 0 q3 -31 31 -55.5 q28 -24.5 87 -24.5 q45 0 70.5 18 q25.5 18 25.5 49 q0 23 -18 38 q-18 15 -48 26 q-30 11 -65 22 q-36 11 -73 24.5 q-37 13.5 -68 33.5 q-31 20 -50 49.5 q-19 29.5 -19 71.5 q0 49 22.5 85 q22.5 36 59 59.5 q36.5 23.5 78.5 30.5 l99 -50 q-38 -4 -68.5 -19 q-30.5 -15 -47.5 -36.5 q-17 -21.5 -17 -46.5 q0 -29 20.5 -47 q20.5 -18 53 -30.5 q32.5 -12.5 69.5 -24.5 q35 -10 69.5 -23 q34.5 -13 63.5 -32 q29 -19 46 -47 q17 -28 17 -70 q0 -85 -58 -135.5 q-58 -50.5 -163 -50.5 ZM365 168 l-67 68 q65 14 96 43.5 q31 29.5 31 66.5 q0 27 -19.5 44 q-19.5 17 -51 29.5 q-31.5 12.5 -68.5 23.5 q-36 12 -73 26 q-37 14 -68 34 q-31 20 -49.5 50 q-18.5 30 -18.5 75 q0 50 26.5 88.5 q26.5 38.5 74 61.5 q47.5 23 108.5 23 q99 0 158 -45 q59 -45 60 -128 l-123 0 q-1 31 -24 49.5 q-23 18.5 -70 18.5 q-43 0 -63.5 -18.5 q-20.5 -18.5 -20.5 -45.5 q0 -25 18.5 -41 q18.5 -16 49 -27 q30.5 -11 66.5 -21 q36 -11 74 -24.5 q38 -13.5 69.5 -33.5 q31.5 -20 51 -50.5 q19.5 -30.5 19.5 -76.5 q0 -48 -21 -84.5 q-21 -36.5 -62 -62.5 q-41 -26 -103 -43 Z" /><glyph glyph-name="seven" unicode="7" d="M144 0 l273 600 l-9 13 l-370 0 l0 117 l532 0 l0 -108 l-277 -622 l-149 0 ZM38 496 l0 234 l115 0 l0 -234 l-115 0 Z" /><glyph glyph-name="six" unicode="6" d="M356 -21 q-81 0 -137.5 27.5 q-56.5 27.5 -91.5 75.5 q-35 48 -51 111.5 q-16 63.5 -16 134.5 l0 44 q0 179 90.5 271.5 q90.5 92.5 265.5 92.5 q38 0 71 -2 q33 -2 66 -6 l0 -119 q-33 4 -67.5 6 q-34.5 2 -74.5 2 q-84 0 -132 -29 q-48 -29 -68.5 -85 q-20.5 -56 -20.5 -139 l0 -65 l-32 -46 q1 77 30.5 127.5 q29.5 50.5 81.5 76 q52 25.5 119 25.5 q78 0 133 -31 q55 -31 84.5 -86 q29.5 -55 29.5 -128 q0 -76 -34 -134.5 q-34 -58.5 -96.5 -91 q-62.5 -32.5 -149.5 -32.5 ZM353 98 q47 0 80 17.5 q33 17.5 50 48.5 q17 31 17 71 q0 41 -16.5 72 q-16.5 31 -48.5 48 q-32 17 -77 17 q-43 0 -78.5 -15.5 q-35.5 -15.5 -56 -46 q-20.5 -30.5 -20.5 -75.5 q0 -39 16.5 -70 q16.5 -31 50 -49 q33.5 -18 83.5 -18 Z" /><glyph glyph-name="slash" unicode="/" d="M21 -60 l206 840 l139 0 l-206 -840 l-139 0 Z" /><glyph glyph-name="uni00AD" unicode="­" d="M46 220 l0 122 l340 0 l0 -122 l-340 0 Z" /><glyph glyph-name="sora" unicode="&#xe000;" d="M218 0 l-151 0 l289 454 l123 0 l288 -454 l-152 0 l-198 312 l-199 -312 ZM68 454 l0 87 l699 0 l0 -87 l-699 0 ZM356 499 l0 175 l123 0 l0 -175 l-123 0 ZM68 643 l0 87 l699 0 l0 -87 l-699 0 Z" /><glyph glyph-name="space" unicode=" " d="" /><glyph glyph-name="sterling" unicode="£" d="M114 0 l0 488 q0 122 73 187 q73 65 204 65 q23 0 54 -1.5 q31 -1.5 60.5 -3.5 q29.5 -2 48.5 -5 l0 -114 q-19 3 -49.5 5 q-30.5 2 -62 3.5 q-31.5 1.5 -52.5 1.5 q-51 0 -84.5 -15.5 q-33.5 -15.5 -49.5 -47.5 q-16 -32 -16 -82 l0 -481 l-126 0 ZM42 0 l0 108 l484 0 l0 -108 l-484 0 ZM48 314 l0 93 l434 0 l0 -93 l-434 0 ZM490 0 l0 198 l110 0 l0 -198 l-110 0 Z" /><glyph glyph-name="uni0336" unicode="&#x336;" d="M-40 302 l0 116 l380 0 l0 -116 l-380 0 Z" /><glyph glyph-name="uni0335" unicode="&#x335;" d="M-30 228 l0 79 l360 0 l0 -79 l-360 0 Z" /><glyph glyph-name="t" unicode="t" d="M315 -7 q-75 0 -123.5 19.5 q-48.5 19.5 -72.5 66 q-24 46.5 -24 125.5 l1 492 l130 0 l-1 -501 q0 -40 21.5 -61.5 q21.5 -21.5 61.5 -21.5 l85 0 l0 -119 l-78 0 ZM9 441 l0 102 l384 0 l0 -102 l-384 0 Z" /><glyph glyph-name="thorn" unicode="þ" d="M79 -200 l0 930 l139 0 l0 -381 l-29 -24 q4 75 33 127.5 q29 52.5 78 79.5 q49 27 113 27 q56 0 100.5 -20 q44.5 -20 76.5 -57 q32 -37 49 -88 q17 -51 17 -112 l0 -22 q0 -60 -17.5 -110.5 q-17.5 -50.5 -51 -87.5 q-33.5 -37 -80 -58 q-46.5 -21 -104.5 -21 q-62 0 -112.5 25 q-50.5 25 -81.5 78.5 q-31 53.5 -35 138.5 l44 -67 l0 -358 l-139 0 ZM367 100 q45 0 78.5 22.5 q33.5 22.5 52.5 61.5 q19 39 19 89 q0 52 -19 89.5 q-19 37.5 -52.5 58.5 q-33.5 21 -78.5 21 q-41 0 -75.5 -18 q-34.5 -18 -56 -52.5 q-21.5 -34.5 -21.5 -83.5 l0 -40 q0 -47 22 -80 q22 -33 57 -50.5 q35 -17.5 74 -17.5 Z" /><glyph glyph-name="three" unicode="3" d="M306 -19 q-84 0 -144.5 32 q-60.5 32 -92.5 85.5 q-32 53.5 -32 119.5 l137 0 q0 -53 35.5 -85.5 q35.5 -32.5 96.5 -32.5 q41 0 70.5 15.5 q29.5 15.5 45.5 43 q16 27.5 16 63.5 q0 54 -35 88.5 q-35 34.5 -96 34.5 q-30 0 -52.5 -8 q-22.5 -8 -39.5 -21 l-65 112 l240 164 l-9 17 l-314 0 l0 121 l477 0 l0 -146 l-247 -164 l-77 14 q19 6 41 9.5 q22 3.5 48 3.5 q83 0 142.5 -28.5 q59.5 -28.5 91.5 -78.5 q32 -50 32 -115 l0 -13 q0 -63 -32 -115.5 q-32 -52.5 -92 -84 q-60 -31.5 -145 -31.5 Z" /><glyph glyph-name="tildecomb" unicode="&#x303;" d="M251 630 q-28 0 -47.5 7.5 q-19.5 7.5 -35 17.5 q-15.5 10 -32 18 q-16.5 8 -37.5 8 q-25 0 -44 -10.5 q-19 -10.5 -34 -26.5 l-21 94 q17 18 41.5 31.5 q24.5 13.5 58.5 13.5 q29 0 48 -8 q19 -8 35 -18 q16 -10 32 -17.5 q16 -7.5 38 -7.5 q25 0 44.5 10.5 q19.5 10.5 33.5 26.5 l21 -94 q-16 -19 -41 -32 q-25 -13 -60 -13 Z" /><glyph glyph-name="trademark" unicode="&#x2122;" d="M392 332 l0 398 l119 0 l102 -255 l6 0 l103 255 l118 0 l0 -398 l-88 0 l0 342 l21 -1 l-110 -274 l-98 0 l-110 274 l20 1 l0 -342 l-83 0 ZM133 332 l0 330 l92 0 l0 -330 l-92 0 ZM17 652 l0 78 l323 0 l0 -78 l-323 0 Z" /><glyph glyph-name="two" unicode="2" d="M65 0 l0 140 q0 46 14.5 80 q14.5 34 48 60.5 q33.5 26.5 88.5 50.5 l124 55 q46 21 70.5 51.5 q24.5 30.5 24.5 78.5 q0 53 -31.5 84.5 q-31.5 31.5 -89.5 31.5 q-58 0 -89.5 -32 q-31.5 -32 -31.5 -89 l-137 0 q0 68 29 122.5 q29 54.5 86 86 q57 31.5 143 31.5 q86 0 143 -31 q57 -31 86 -82.5 q29 -51.5 29 -114.5 l0 -13 q0 -82 -46 -136.5 q-46 -54.5 -135 -94.5 l-124 -55 q-35 -15 -49 -31.5 q-14 -16.5 -14 -44.5 l0 -64 l-34 37 l405 0 l0 -121 l-510 0 Z" /><glyph glyph-name="u" unicode="u" d="M264 -17 q-94 0 -145.5 62 q-51.5 62 -51.5 184 l0 315 l139 0 l0 -327 q0 -50 28 -79.5 q28 -29.5 76 -29.5 q48 0 78.5 31 q30.5 31 30.5 84 l0 321 l139 0 l0 -544 l-110 0 l0 231 l11 0 q0 -82 -21 -137 q-21 -55 -63 -83 q-42 -28 -105 -28 l-6 0 Z" /><glyph glyph-name="underscore" unicode="_" d="M0 -158 l0 104 l585 0 l0 -104 l-585 0 Z" /><glyph glyph-name="v" unicode="v" d="M188 0 l-170 543 l143 0 l163 -543 l-136 0 ZM229 0 l0 114 l147 0 l0 -114 l-147 0 ZM284 0 l140 543 l134 0 l-147 -543 l-127 0 Z" /><glyph glyph-name="w" unicode="w" d="M265 0 l103 525 l160 0 l119 -525 l-110 0 l-121 522 l58 0 l-107 -522 l-102 0 ZM224 0 l-1 114 l111 0 l0 -114 l-110 0 ZM168 0 l-148 543 l135 0 l141 -543 l-128 0 ZM572 0 l0 114 l111 0 l-1 -114 l-110 0 ZM616 0 l125 543 l126 0 l-131 -543 l-120 0 Z" /><glyph glyph-name="x" unicode="x" d="M17 0 l177 290 l-3 -23 l-167 276 l151 0 l109 -191 l15 0 l103 191 l142 0 l-158 -275 l3 20 l187 -288 l-151 0 l-129 205 l-15 0 l-122 -205 l-142 0 Z" /><glyph glyph-name="y" unicode="y" d="M63 -214 l0 119 l102 0 q29 0 48.5 7.5 q19.5 7.5 32.5 24 q13 16.5 20 45.5 l146 561 l133 0 l-161 -591 q-16 -61 -45 -97.5 q-29 -36.5 -74.5 -52.5 q-45.5 -16 -112.5 -16 l-89 0 ZM232 12 l0 110 l116 0 l0 -110 l-116 0 ZM185 12 l-176 531 l140 0 l167 -531 l-131 0 Z" /><glyph glyph-name="yen" unicode="¥" d="M236 301 l-218 429 l145 0 l164 -334 l-33 8 l88 0 l-34 -8 l149 334 l137 0 l-202 -429 l-196 0 ZM269 0 l0 323 l130 0 l0 -323 l-130 0 ZM60 149 l0 76 l546 0 l0 -76 l-546 0 ZM60 301 l0 76 l546 0 l0 -76 l-546 0 Z" /><glyph glyph-name="z" unicode="z" d="M44 0 l0 110 l268 322 l0 -16 l-21 28 l17 -8 l-265 0 l0 107 l414 0 l0 -110 l-268 -322 l0 15 l22 -28 l-17 9 l274 0 l0 -107 l-424 0 Z" /><glyph glyph-name="zero" unicode="0" d="M379 -19 q-86 0 -146 28.5 q-60 28.5 -98 78 q-38 49.5 -55.5 114 q-17.5 64.5 -17.5 135.5 l0 56 q0 101 34 182 q34 81 104 128.5 q70 47.5 179 47.5 q108 0 178 -47.5 q70 -47.5 103.5 -128.5 q33.5 -81 33.5 -182 l0 -56 q0 -71 -17.5 -135.5 q-17.5 -64.5 -55 -114 q-37.5 -49.5 -97.5 -78 q-60 -28.5 -145 -28.5 ZM379 111 q89 0 131 61.5 q42 61.5 42 191.5 q0 138 -43 197.5 q-43 59.5 -130 59.5 q-88 0 -131.5 -59.5 q-43.5 -59.5 -43.5 -195.5 q0 -131 43 -193 q43 -62 132 -62 Z" /></font>
</defs>
</svg>
